<?xml version="1.0" encoding="UTF-8"?>
<svg width="37px" height="20px" viewBox="0 0 37 20" version="1.1" xmlns="http://www.w3.org/2000/svg" xmlns:xlink="http://www.w3.org/1999/xlink">
    <title>Group 71 Copy 2</title>
    <g id="Desktop---Prototype---V-10" stroke="none" stroke-width="1" fill="none" fill-rule="evenodd">
        <g id="Empty-cart-A" transform="translate(-1251.000000, -532.000000)">
            <g id="Group-28" transform="translate(160.000000, 431.000000)">
                <g id="Group-76" transform="translate(977.000000, 101.000000)">
                    <g id="Group-71-Copy-2" transform="translate(114.000000, 0.000000)">
                        <rect id="Rectangle" fill="#016FD0" x="0" y="0" width="36.25" height="20" rx="2"></rect>
                        <g id="Group-72" transform="translate(1.500000, 4.000000)" fill-rule="nonzero">
                            <path d="M6.4707335,12.5 L6.4707335,7.08951614 L12.0118254,7.08951614 L12.6063349,7.89077118 L13.2205266,7.08951614 L33.3333333,7.08951614 L33.3333333,12.1268203 C33.3333333,12.1268203 32.8073607,12.4945415 32.1990168,12.5 L21.0621306,12.5 L20.3918663,11.6470968 L20.3918663,12.5 L18.1954125,12.5 L18.1954125,11.044074 C18.1954125,11.044074 17.8953675,11.2473157 17.2467236,11.2473157 L16.4991006,11.2473157 L16.4991006,12.5 L13.1735098,12.5 L12.5798357,11.681575 L11.9770724,12.5 L6.4707335,12.5 Z M0,3.01176266 L1.24953593,0 L3.41050161,0 L4.11959562,1.68704726 L4.11959562,0 L6.80586563,0 L7.22801382,1.2193462 L7.63726332,0 L19.6958047,0 L19.6958047,0.613006912 C19.6958047,0.613006912 20.329712,0 21.3714988,0 L25.284047,0.0141643842 L25.9809106,1.67910138 L25.9809106,0 L28.2289258,0 L28.8476287,0.956406862 L28.8476287,0 L31.1162617,0 L31.1162617,5.41044931 L28.8476287,5.41044931 L28.2546897,4.45096774 L28.2546897,5.41044931 L24.9518889,5.41044931 L24.6197308,4.55758064 L23.7318595,4.55758064 L23.4050815,5.41044931 L21.1652533,5.41044931 C20.2688275,5.41044931 19.6958047,4.80994851 19.6958047,4.80994851 L19.6958047,5.41044931 L16.3186191,5.41044931 L15.6483549,4.55758064 L15.6483549,5.41044931 L3.0903734,5.41044931 L2.75844923,4.55758064 L1.87331812,4.55758064 L1.54376651,5.41044931 L0,5.41044931 L0,3.01176266 Z" id="Shape" fill="#FFFFFF"></path>
                            <path d="M1.68149119,0.834005176 L0,4.77315481 L1.09474462,4.77315481 L1.4050045,3.98437758 L3.20868594,3.98437758 L3.51731217,4.77315481 L4.63619479,4.77315481 L2.95627056,0.834005176 L1.68149119,0.834005176 L1.68149119,0.834005176 Z M2.30361126,1.75076848 L2.85338404,3.12915509 L1.75223818,3.12915509 L2.30361126,1.75076848 Z M4.75191712,4.77251656 L4.75191712,0.833333333 L6.30758403,0.839178367 L7.21242533,3.37887912 L8.09559578,0.833333333 L9.6388603,0.833333333 L9.6388603,4.77251656 L8.66147166,4.77251656 L8.66147166,1.86995343 L7.62540504,4.77251656 L6.7682396,4.77251656 L5.72930576,1.86995343 L5.72930576,4.77251656 L4.75191712,4.77251656 Z M10.3075894,4.77251656 L10.3075894,0.833333333 L13.4969716,0.833333333 L13.4969716,1.71445537 L11.29528,1.71445537 L11.29528,2.38828027 L13.4455283,2.38828027 L13.4455283,3.21756962 L11.29528,3.21756962 L11.29528,3.91729406 L13.4969716,3.91729406 L13.4969716,4.77251656 L10.3075894,4.77251656 Z M14.0628475,0.834005176 L14.0628475,4.77315481 L15.0402361,4.77315481 L15.0402361,3.37370593 L15.4517489,3.37370593 L16.6236417,4.77315481 L17.8180722,4.77315481 L16.532024,3.32190684 C17.0598259,3.27702773 17.6042643,2.82057762 17.6042643,2.11198485 C17.6042643,1.28303142 16.9585397,0.834005176 16.2378339,0.834005176 L14.0628475,0.834005176 L14.0628475,0.834005176 Z M15.0402361,1.71516081 L16.1574517,1.71516081 C16.4255035,1.71516081 16.6204411,1.92635464 16.6204411,2.12978869 C16.6204411,2.39147152 16.3678257,2.54441657 16.1719545,2.54441657 L15.0402361,2.54441657 L15.0402361,1.71512722 L15.0402361,1.71516081 Z M19.0012339,4.77251656 L18.0032746,4.77251656 L18.0032746,0.833333333 L19.0012339,0.833333333 L19.0012339,4.77251656 Z M21.3675239,4.77251656 L21.152149,4.77251656 C20.1098812,4.77251656 19.4770591,3.94514196 19.4770591,2.81913316 C19.4770591,1.66524288 20.1027798,0.833333333 21.4189672,0.833333333 L22.4992424,0.833333333 L22.4992424,1.76628806 L21.3794929,1.76628806 C20.8451898,1.76628806 20.4673169,2.18642505 20.4673169,2.8288077 C20.4673169,3.59168537 20.8994003,3.91212087 21.5218537,3.91212087 L21.77907,3.91212087 L21.3675239,4.77251656 Z M23.4943344,0.834005176 L21.8128432,4.77315481 L22.9075878,4.77315481 L23.2178144,3.98437758 L25.0214958,3.98437758 L25.3301554,4.77315481 L26.4490047,4.77315481 L24.7691138,0.834005176 L23.4943344,0.834005176 L23.4943344,0.834005176 Z M24.1164545,1.75076848 L24.6662272,3.12915509 L23.5650481,3.12915509 L24.1164545,1.75076848 Z M26.5631267,4.77251656 L26.5631267,0.833333333 L27.8057665,0.833333333 L29.3924061,3.30826842 L29.3924061,0.833333333 L30.369828,0.833333333 L30.369828,4.77251656 L29.1673626,4.77251656 L27.5405153,2.23278222 L27.5405153,4.77251656 L26.5631267,4.77251656 Z M7.11824049,11.6660284 L7.11824049,7.72687878 L10.3075894,7.72687878 L10.3075894,8.60800082 L8.10589777,8.60800082 L8.10589777,9.28179213 L10.2561461,9.28179213 L10.2561461,10.1110815 L8.10589777,10.1110815 L8.10589777,10.8108059 L10.3075894,10.8108059 L10.3075894,11.6660284 L7.11824049,11.6660284 Z M22.74619,11.6660284 L22.74619,7.72687878 L25.9355389,7.72687878 L25.9355389,8.60800082 L23.7338473,8.60800082 L23.7338473,9.28179213 L25.873827,9.28179213 L25.873827,10.1110815 L23.733814,10.1110815 L23.733814,10.8108059 L25.9355056,10.8108059 L25.9355056,11.6660284 L22.74619,11.6660284 Z M10.4313799,11.6660284 L11.9842796,9.72070713 L10.3944061,7.72687878 L11.6258104,7.72687878 L12.5726599,8.95947547 L13.5227432,7.72687878 L14.7059049,7.72687878 L13.1369354,9.6964536 L14.692669,11.6660284 L13.4614981,11.6660284 L12.5421206,10.452848 L11.6451142,11.6660284 L10.4313799,11.6660284 Z M14.8087581,7.72751703 L14.8087581,11.6666667 L15.8118517,11.6666667 L15.8118517,10.4227494 L16.8406836,10.4227494 C17.7112183,10.4227494 18.371079,9.9573974 18.371079,9.05245853 C18.371079,8.30281616 17.8535457,7.72751703 16.9676748,7.72751703 L14.8087581,7.72751703 Z M15.8118517,8.6183808 L16.8953275,8.6183808 C17.1765817,8.6183808 17.3775872,8.7920522 17.3775872,9.07187479 C17.3775872,9.33480053 17.1775819,9.52540238 16.8921268,9.52540238 L15.8118517,9.52540238 L15.8118517,8.6183808 Z M18.7954609,7.72687878 L18.7954609,11.6660284 L19.7728495,11.6660284 L19.7728495,10.2665795 L20.1843956,10.2665795 L21.3562884,11.6660284 L22.5506856,11.6660284 L21.2646707,10.2147468 C21.7924393,10.1698677 22.3368777,9.71345123 22.3368777,9.00482487 C22.3368777,8.17590502 21.6911531,7.72687878 20.9704806,7.72687878 L18.7954609,7.72687878 L18.7954609,7.72687878 Z M19.7728495,8.60800082 L20.8900985,8.60800082 C21.1581168,8.60800082 21.3530878,8.81922825 21.3530878,9.0226287 C21.3530878,9.28431154 21.1004724,9.43729018 20.9045679,9.43729018 L19.7728495,9.43729018 L19.7728495,8.60800082 L19.7728495,8.60800082 Z M26.3882263,11.6660284 L26.3882263,10.8108059 L28.3443038,10.8108059 C28.6337263,10.8108059 28.7590505,10.6532252 28.7590505,10.4803936 C28.7590505,10.3147843 28.6341264,10.147361 28.3443038,10.147361 L27.4603665,10.147361 C26.6920516,10.147361 26.2641356,9.67572724 26.2641356,8.96757117 C26.2641356,8.33597161 26.6559779,7.72687878 27.797765,7.72687878 L29.7010656,7.72687878 L29.2895529,8.61317401 L27.6434018,8.61317401 C27.3287411,8.61317401 27.2318891,8.77955592 27.2318891,8.93841319 C27.2318891,9.10170462 27.3515789,9.28179213 27.5919586,9.28179213 L28.517904,9.28179213 C29.3744026,9.28179213 29.7460743,9.7712969 29.7460743,10.4123695 C29.7460743,11.101546 29.3319277,11.6660284 28.471295,11.6660284 L26.3882263,11.6660284 Z M29.9754853,11.6660284 L29.9754853,10.8108059 L31.9315295,10.8108059 C32.2209853,10.8108059 32.3462762,10.6532252 32.3462762,10.4803936 C32.3462762,10.3147843 32.2213854,10.147361 31.9315295,10.147361 L31.0476255,10.147361 C30.2792772,10.147361 29.8513947,9.67572724 29.8513947,8.96757117 C29.8513947,8.33597161 30.2432369,7.72687878 31.3849906,7.72687878 L33.2883246,7.72687878 L32.8767786,8.61317401 L31.2306609,8.61317401 C30.9160001,8.61317401 30.8191148,8.77955592 30.8191148,8.93841319 C30.8191148,9.10170462 30.9388045,9.28179213 31.1792176,9.28179213 L32.105163,9.28179213 C32.9616616,9.28179213 33.3333333,9.7712969 33.3333333,10.4123695 C33.3333333,11.101546 32.9191867,11.6660284 32.058554,11.6660284 L29.9754853,11.6660284 Z" id="Shape" fill="#016FD0"></path>
                        </g>
                    </g>
                </g>
            </g>
        </g>
    </g>
</svg>