<?xml version="1.0" encoding="UTF-8" standalone="no"?><svg id="Layer_1" data-name="Layer 1" xmlns="http://www.w3.org/2000/svg" viewBox="0 0 400 368">
  <defs>
    <style>
      .cls-1 {
        fill: #172934;
      }
    </style>
  </defs>
  <title>Arise_full_logo 2020 Update</title>
  <g>
    <g>
      <polygon class="cls-1" points="222.22 73.05 157.22 189.03 177.02 189.03 222.37 108.64 267.44 189.03 287.24 189.03 222.22 73.05"/>
      <polygon class="cls-1" points="207.09 47.04 127.54 189.03 147.39 189.03 217.14 64.97 207.09 47.04"/>
      <polygon class="cls-1" points="222.05 126.95 212.2 144.52 237.14 189.03 256.94 189.03 222.09 126.86 222.05 126.95"/>
    </g>
    <g>
      <path class="cls-1" d="M88.71,299.57c0-5.57,3.84-9.36,9-9.36a8.5,8.5,0,0,1,4.59,1.09V296a6.13,6.13,0,0,0-4.36-1.52c-3,0-4.59,2.15-4.59,5.11a4.55,4.55,0,0,0,4.82,4.65,7.12,7.12,0,0,0,4.08-1.43v4.57a9.65,9.65,0,0,1-4.38,1.16A8.82,8.82,0,0,1,88.71,299.57Z"/>
      <path class="cls-1" d="M112.54,299.38c0-5.56,4.31-9.31,9.61-9.31a9.34,9.34,0,1,1-9.61,9.31Zm9.58-5a4.89,4.89,0,0,0-5,5.1,4.8,4.8,0,0,0,5,5.05,5.08,5.08,0,0,0,0-10.15Z"/>
      <path class="cls-1" d="M152.85,308.12h-10V290.71h4.55v13.45h5.5Z"/>
      <path class="cls-1" d="M173.41,308.12h-10V290.71h4.54v13.45h5.5Z"/>
      <path class="cls-1" d="M183.93,308.12V290.71H194v4h-5.54v2.82h5.22v3.86h-5.22v2.91h5.63v3.87Z"/>
      <path class="cls-1" d="M204.82,299.57c0-5.57,3.84-9.36,9-9.36a8.5,8.5,0,0,1,4.59,1.09V296a6.11,6.11,0,0,0-4.36-1.52c-2.95,0-4.59,2.15-4.59,5.11a4.55,4.55,0,0,0,4.82,4.65,7.06,7.06,0,0,0,4.08-1.43v4.57a9.61,9.61,0,0,1-4.37,1.16A8.82,8.82,0,0,1,204.82,299.57Z"/>
      <path class="cls-1" d="M231.86,308.14V294.86h-3.59v-4.13h11.9v4.13h-3.58v13.28Z"/>
      <path class="cls-1" d="M254.94,308.12H250.4V290.71h4.54Z"/>
      <path class="cls-1" d="M265.2,290.71h5.05l4.41,11.36L279,290.71h5l-7.23,17.41h-4.27Z"/>
      <path class="cls-1" d="M294.24,308.12V290.71h10.09v4h-5.54v2.82H304v3.86h-5.22v2.91h5.63v3.87Z"/>
    </g>
    <rect class="cls-1" x="199.26" y="213.32" width="11.23" height="59.78"/>
    <polygon class="cls-1" points="304.66 223.52 304.66 212.83 270.53 212.83 270.53 272.61 304.66 272.61 304.66 261.92 281.75 261.92 281.75 248.03 304.06 248.03 304.06 237.34 281.75 237.34 281.75 223.52 304.66 223.52"/>
    <path class="cls-1" d="M243.27,236.19l-2.12-.75-.57-.21c-3.22-1.13-6.12-2.45-6.12-6.08a6.22,6.22,0,0,1,6.12-6.11c1.09,0,6.51.32,6.51,6.57v.64l11.64-2.05c-.67-9.41-7.93-15.87-18.15-15.87-12.3,0-17.82,9.88-17.82,16.9,0,4.74,1.64,9.12,4.4,11.73,3,2.79,5.21,3.82,12.83,6.66.34.14.7.27,1.06.4,4.36,1.6,7.21,3,7.21,7.35,0,4.82-3,7.93-7.68,7.93-7.54,0-7.76-7.74-7.76-8.62v-.21l-11.63,1.82C222,267.93,231.33,274,240.58,274,252,274,260,266.36,260,255.37,260,242,250.32,238.62,243.27,236.19Z"/>
    <path class="cls-1" d="M180.91,243.56A17.3,17.3,0,0,0,185,232a17.64,17.64,0,0,0-6.36-14.12c-3.59-3-7.48-4.56-17.14-4.56H150V273.1h11.22v-22l16,22h13.74l-18.06-24A16.46,16.46,0,0,0,180.91,243.56Zm-18.24-3.08h-1.44V224h1.82c8.78,0,10.92,4.27,10.92,8.14C174,237.47,170,240.48,162.67,240.48Z"/>
    <polygon class="cls-1" points="116.9 212.46 88.66 273.1 100.53 273.1 116.71 237.62 122.11 249.96 115.68 249.96 110.92 260.46 126.64 260.46 132.1 273.1 144.16 273.1 116.9 212.46"/>
  </g>
</svg>
