<?xml version="1.0" encoding="UTF-8" standalone="no"?>
<svg
   xmlns:dc="http://purl.org/dc/elements/1.1/"
   xmlns:cc="http://creativecommons.org/ns#"
   xmlns:rdf="http://www.w3.org/1999/02/22-rdf-syntax-ns#"
   xmlns:svg="http://www.w3.org/2000/svg"
   xmlns="http://www.w3.org/2000/svg"
   xmlns:sodipodi="http://sodipodi.sourceforge.net/DTD/sodipodi-0.dtd"
   xmlns:inkscape="http://www.inkscape.org/namespaces/inkscape"
   version="1.1"
   id="svg2"
   xml:space="preserve"
   width="869.29065"
   height="585.82666"
   viewBox="0 0 869.29065 585.82666"
   sodipodi:docname="BOSS_LOGO_SUB_EYEWEAR_black_RGB.ai"><metadata
     id="metadata8"><rdf:RDF><cc:Work
         rdf:about=""><dc:format>image/svg+xml</dc:format><dc:type
           rdf:resource="http://purl.org/dc/dcmitype/StillImage" /></cc:Work></rdf:RDF></metadata><defs
     id="defs6"><clipPath
       clipPathUnits="userSpaceOnUse"
       id="clipPath18"><path
         d="M 0,439.37 H 651.969 V 0 H 0 Z"
         id="path16" /></clipPath></defs><sodipodi:namedview
     pagecolor="#ffffff"
     bordercolor="#666666"
     borderopacity="1"
     objecttolerance="10"
     gridtolerance="10"
     guidetolerance="10"
     inkscape:pageopacity="0"
     inkscape:pageshadow="2"
     inkscape:window-width="640"
     inkscape:window-height="480"
     id="namedview4" /><g
     id="g10"
     inkscape:groupmode="layer"
     inkscape:label="BOSS_LOGO_SUB_EYEWEAR_black_RGB"
     transform="matrix(1.3333333,0,0,-1.3333333,0,585.82667)"><g
       id="g12"><g
         id="g14"
         clip-path="url(#clipPath18)"><g
           id="g20"
           transform="translate(282.0468,209.7642)"><path
             d="m 0,0 c -32.598,0 -59.527,25.512 -59.527,59.527 0,34.015 26.929,59.528 59.527,59.528 32.599,0 59.528,-25.513 59.528,-59.528 C 59.528,25.512 32.599,0 0,0 m 0,90.708 c -17.008,0 -29.055,-14.173 -29.055,-31.181 0,-17.007 12.047,-31.181 29.055,-31.181 17.009,0 29.055,14.174 29.055,31.181 0,17.008 -12.046,31.181 -29.055,31.181"
             style="fill:#000000;fill-opacity:1;fill-rule:nonzero;stroke:none"
             id="path22" /></g><g
           id="g24"
           transform="translate(408.1884,245.1968)"><path
             d="m 0,0 c 0,-4.252 -4.252,-7.795 -11.339,-7.795 -15.59,0 -25.511,10.63 -25.511,10.63 l -17.007,-22.678 c 0,0 14.172,-15.59 42.518,-15.59 22.679,0 42.521,14.173 42.521,35.433 0,34.016 -53.859,36.85 -53.859,48.189 0,4.252 5.669,7.795 14.173,7.795 11.339,0 17.717,-5.669 17.717,-5.669 l 16.3,21.968 c 0,0 -14.173,11.339 -36.852,11.339 -21.259,0 -39.684,-15.591 -39.684,-35.433 C -51.023,14.173 0,12.756 0,0"
             style="fill:#000000;fill-opacity:1;fill-rule:nonzero;stroke:none"
             id="path26" /></g><g
           id="g28"
           transform="translate(165.8271,238.1109)"><path
             d="M 0,0 H -23.386 V 21.259 H 0 C 5.87,21.259 10.63,16.5 10.63,10.63 10.63,4.759 5.87,0 0,0 M -23.386,63.07 H -5.67 c 5.48,0 9.922,-4.442 9.922,-9.921 0,-5.48 -4.442,-9.92 -9.922,-9.92 L -23.386,43.228 Z M 25.512,36.85 c 4.961,6.378 7.087,12.706 7.087,19.842 0,17.221 -13.961,31.182 -31.181,31.182 L -52.441,87.873 V -25.513 H 6.378 c 19.178,0 34.725,15.548 34.725,34.725 0,11.83 -5.67,21.969 -15.591,27.638"
             style="fill:#000000;fill-opacity:1;fill-rule:nonzero;stroke:none"
             id="path30" /></g><g
           id="g32"
           transform="translate(507.4013,245.1968)"><path
             d="m 0,0 c 0,-4.252 -4.252,-7.795 -11.339,-7.795 -15.59,0 -25.511,10.63 -25.511,10.63 l -17.008,-22.678 c 0,0 14.173,-15.59 42.519,-15.59 22.678,0 42.52,14.173 42.52,35.433 0,34.016 -53.858,36.85 -53.858,48.189 0,4.252 5.669,7.795 14.173,7.795 11.339,0 17.717,-5.669 17.717,-5.669 l 16.299,21.968 c 0,0 -14.173,11.339 -36.851,11.339 -21.259,0 -39.685,-15.591 -39.685,-35.433 C -51.024,14.173 0,12.756 0,0"
             style="fill:#000000;fill-opacity:1;fill-rule:nonzero;stroke:none"
             id="path34" /></g><g
           id="g36"
           transform="translate(169.4091,155.8111)"><path
             d="M 0,0 H 27.666 V -8.903 H 9.74 v -8.126 h 14.161 v -8.605 H 9.74 v -7.887 h 19.181 v -8.904 H 0 Z"
             style="fill:#000000;fill-opacity:1;fill-rule:nonzero;stroke:none"
             id="path38" /></g><g
           id="g40"
           transform="translate(219.6591,131.8501)"><path
             d="M 0,0 -13.803,23.961 H -2.39 L 5.079,9.859 h 0.12 l 7.35,14.102 H 24.081 L 10.158,0 V -18.464 H 0 Z"
             style="fill:#000000;fill-opacity:1;fill-rule:nonzero;stroke:none"
             id="path42" /></g><g
           id="g44"
           transform="translate(253.5957,155.8111)"><path
             d="M 0,0 H 27.666 V -8.903 H 9.74 v -8.126 h 14.161 v -8.605 H 9.74 v -7.887 h 19.181 v -8.904 H 0 Z"
             style="fill:#000000;fill-opacity:1;fill-rule:nonzero;stroke:none"
             id="path46" /></g><g
           id="g48"
           transform="translate(290.5215,155.8111)"><path
             d="m 0,0 h 10.695 l 7.112,-26.053 h 0.178 L 24.499,0 h 10.517 l 6.453,-25.992 h 0.178 L 48.818,0 H 59.454 L 46.13,-42.425 h -9.143 l -7.05,27.845 h -0.121 l -7.349,-27.845 h -9.142 z"
             style="fill:#000000;fill-opacity:1;fill-rule:nonzero;stroke:none"
             id="path50" /></g><g
           id="g52"
           transform="translate(360.6689,155.8111)"><path
             d="M 0,0 H 27.666 V -8.903 H 9.74 v -8.126 h 14.161 v -8.605 H 9.74 v -7.887 h 19.181 v -8.904 H 0 Z"
             style="fill:#000000;fill-opacity:1;fill-rule:nonzero;stroke:none"
             id="path54" /></g><g
           id="g56"
           transform="translate(422.9883,129.3999)"><path
             d="M 0,0 -4.721,14.341 H -4.84 L -9.501,0 Z M -9.561,26.411 H 0 L 15.536,-16.014 H 5.139 l -2.51,7.649 h -14.818 l -2.51,-7.649 h -10.457 z"
             style="fill:#000000;fill-opacity:1;fill-rule:nonzero;stroke:none"
             id="path58" /></g><g
           id="g60"
           transform="translate(463.497,135.7935)"><path
             d="m 0,0 c 4.303,0 6.633,2.092 6.633,5.617 0,3.227 -1.972,5.617 -6.453,5.617 H -5.019 V 0 Z M -14.759,20.018 H 1.793 c 10.517,0 15.178,-6.155 15.178,-14.64 0,-6.154 -2.749,-10.576 -8.008,-12.728 L 19.062,-22.407 H 7.35 l -8.724,13.683 h -3.645 v -13.683 h -9.74 z"
             style="fill:#000000;fill-opacity:1;fill-rule:nonzero;stroke:none"
             id="path62" /></g></g></g></g></svg>
