<?xml version="1.0" encoding="utf-8"?>
<!-- Generator: Adobe Illustrator 22.1.0, SVG Export Plug-In . SVG Version: 6.00 Build 0)  -->
<svg version="1.1"
	 id="svg2" xmlns:cc="http://creativecommons.org/ns#" xmlns:dc="http://purl.org/dc/elements/1.1/" xmlns:rdf="http://www.w3.org/1999/02/22-rdf-syntax-ns#" xmlns:svg="http://www.w3.org/2000/svg"
	 xmlns="http://www.w3.org/2000/svg" xmlns:xlink="http://www.w3.org/1999/xlink" x="0px" y="0px" viewBox="0 0 623.6 122.8"
	 style="enable-background:new 0 0 623.6 122.8;" xml:space="preserve">
<style type="text/css">
	.st0{fill:#CD0000;}
</style>
<g id="g10" transform="matrix(1.3333333,0,0,-1.3333333,0,122.84)">
	<g id="g12" transform="scale(0.1)">
		<path id="path14" class="st0" d="M0,139.8V2.5h103.4v26.8H29.7v28.8h64V85h-64v27.9h72.7v26.9H0"/>
		<path id="path16" class="st0" d="M361.8,139.8l-33.1-55.1l-32.4,55.1h-35l52.3-83.2V2.5h29.8v54.6l52.1,82.7H361.8"/>
		<path id="path18" class="st0" d="M559.7,139.8V2.5h103.5v26.8h-73.8v28.8h64V85h-64v27.9h72.7v26.9H559.7"/>
		<path id="path20" class="st0" d="M915.2,140.2l-30.4-93.4l-28.2,93.1h-31.9L871.1,1.4H897l30.6,89.8l30.8-89.8h26l46.3,138.4
			h-31.3l-28.1-93.1l-30.5,93.4H915.2"/>
		<path id="path22" class="st0" d="M1198.3,139.8V2.5h103.4v26.8h-73.8v28.8h64V85h-64v27.9h72.8v26.9H1198.3"/>
		<path id="path24" class="st0" d="M1533.6,104.4l18.1-44.5h-36.2L1533.6,104.4z M1520.3,140.7L1462,2.5h30.5l12.4,30.8h57.4
			l12.5-30.8h31.3l-58.2,138.3L1520.3,140.7"/>
		<path id="path26" class="st0" d="M1832.5,73c14.6,0,23,7.9,23,19.5v0.4c0,12.9-8.9,19.6-23.5,19.6h-29.7V73H1832.5z M1772.3,139.8
			h62.2c17.2,0,30.6-4.9,39.6-13.9c7.7-7.7,11.7-18.4,11.7-31.4v-0.4c0-22.2-11.9-36.2-29.2-42.6l33.2-49h-35l-29.1,44h-0.4h-23.1
			v-44h-29.9V139.8"/>
		<path id="path28" class="st0" d="M2252.3,22.4l17.6,21.5c12.3-10.2,25.1-16.7,40.6-16.7c12.3,0,19.5,4.9,19.5,12.9v0.4
			c0,7.6-4.6,11.5-27.2,17.4c-27.4,7.1-45.1,14.7-45.1,42v0.4c0,24.9,19.8,41.4,47.5,41.4c19.8,0,36.8-6.2,50.5-17.4l-15.6-22.8
			c-12,8.4-23.8,13.6-35.4,13.6c-11.4,0-17.4-5.4-17.4-12.1v-0.4c0-9,5.7-11.9,29.2-18c27.6-7.3,43.1-17.2,43.1-41.2V43
			c0-27.3-20.5-42.6-49.9-42.6C2289.3,0.4,2268.7,7.7,2252.3,22.4"/>
		<path id="path30" class="st0" d="M2532.6,2.5h30v137.3h-30V2.5"/>
		<path id="path32" class="st0" d="M2833,139.8V55.2l-63.6,84.6h-27.6V2.5h29.6v87.2l65.7-87.2h25.4v137.3H2833"/>
		<path id="path34" class="st0" d="M3034.4,70.7v0.4c0,39.1,29.2,71.1,70.9,71.1c25.6,0,40.9-8.7,53.5-21.3l-18.9-22.2
			c-10.6,9.7-21.2,15.6-34.8,15.6c-22.8,0-39.4-19.2-39.4-42.8v-0.4c0-23.6,16.1-43.2,39.4-43.2c15.6,0,25.1,6.3,35.7,16.1
			l19.1-19.4c-14-15.2-29.6-24.6-55.7-24.6C3064.2,0,3034.4,31.2,3034.4,70.7"/>
		<path id="path36" class="st0" d="M3329.1,139.8V2.5h103.4v26.8h-73.8v28.8h64.1V85h-64.1v27.9h72.8v26.9H3329.1"/>
		<path id="path38" class="st0" d="M3835.5,140.7l-39-11.8l6.1-24.7l23.7,5.8V2.5h29.6v138.2H3835.5"/>
		<path id="path40" class="st0" d="M4106.6,94.9v0.4c0,12.1-9,20.9-23.9,20.9c-14.7,0-23.1-8.6-23.1-20.8V95
			c0-12.2,8.9-20.6,23.7-20.6C4098.1,74.4,4106.6,83.1,4106.6,94.9 M4033,16.3l15.8,23c9.9-8.1,18.2-11.7,29.6-11.7
			c16.8,0,25.6,12.7,27.6,31.1c-6.6-5.7-15.7-9.4-27.6-9.4c-29.5,0-48.5,16.4-48.5,44.3V94c0,27.7,21.2,48.1,51.8,48.1
			c18.3,0,28.9-4.5,39.2-14.9c9.7-9.8,16.1-24.8,16.1-51.8V75c0-44.6-20.8-74.9-59.4-74.9C4057.9,0.1,4044.5,6.7,4033,16.3"/>
		<path id="path42" class="st0" d="M4300.3,20.6l18.1,21.8c10.3-9.4,20.4-14.9,32.5-14.9c13.9,0,22.6,6.9,22.6,19v0.4
			c0,11.8-9.9,18.7-24.1,18.7c-8.5,0-16.3-2.3-22.7-5.1l-17.2,11.7l3.9,67.7h83.5v-26.4h-57.8l-1.6-23.8c5.5,1.4,10.3,2.3,17.9,2.3
			c26.4,0,47.5-12.9,47.5-44v-0.3c0-29-20.3-47.5-51.5-47.5C4329.4,0,4313.5,7.9,4300.3,20.6"/>
		<path id="path44" class="st0" d="M4647.4,46.2v0.4c0,11.5-8.9,20-23.7,20c-14.7,0-23.2-8.3-23.2-19.9v-0.3
			c0-11.7,8.9-20.4,23.7-20.4C4639,25.9,4647.4,34.3,4647.4,46.2 M4586.2,14.8c-10,10-16.1,24.8-16.1,52v0.4c0,42.3,19,75,59.5,75
			c18.4,0,30.5-5.5,42.5-15.2l-15.6-23.3c-9,6.9-16.1,11-27.8,11c-16.8,0-25.4-13.7-27.3-31.8c6.8,4.5,14.7,8.8,28.1,8.8
			c27,0,47.7-15.1,47.7-43.8v-0.4c0-28-22.3-47.5-51.8-47.5C4607.7,0,4595.7,5.1,4586.2,14.8"/>
		<path id="path46" class="st0" d="M4248.8,492.1h188.9l-52.5,206.2H4372L4248.8,492.1z M871.4,492.1h188.9l-52.5,206.2h-13.3
			L871.4,492.1z M4498.7,921.3c124.8-459.9,175-639.5,177.5-649h-194l-26.4,88.7h-282.7l-60.7-88.7h-225.2
			c-220.3,0-309,146.5-231.8,362.9h83.8c44.4,0,65.7,18.7,79,59.6c11.6,35.7,6.3,61.3-55.8,61.3h-133.3l-177.4-483.8h-894.2
			c-220,0-308.8,146.5-231.7,362.9h83.8c44.4,0,65.8,18.7,79,59.6c11.4,35.7,6.5,61.3-56,61.3h-133l-177.5-483.8h-281.3
			c-220,0-308.7,146.5-231.6,362.9h83.9c44.3,0,65.8,18.7,79,59.6c11.3,35.7,6.5,61.3-55.8,61.3h-133.2l-177.5-483.8h-300.8
			l-26.1,88.7H795.8l-60.9-88.7H340.5c-241.6,0-392.8,88.7-323.7,368c42.6,173.8,180.7,281,419.2,281h289.2l-60.9-166.9H439.1
			c-73.9,0-184.1-12-217-141.4c-27.8-114.1-1.7-170.4,154.6-170.4h258L942,921.3h182.6l128.1-483.8l190.7,483.8h241.6
			c101.9,0,172.7,0,231.7-35.8c67.4-42.5,87.2-119.2,64.3-190.8c-8.4-27.3-34.5-78.4-56.1-102.2c-63.9-69.7-137.9-78.3-162.6-78.3
			c-5.1-68.1,31.2-76.7,101.9-76.7h115l180.9,483.8h241.4c102,0,172.6,0,231.8-35.8c67.4-42.5,87.1-119.2,64-190.8
			c-8-27.3-34.5-78.4-55.8-102.2c-64.1-69.7-137.9-78.3-162.7-78.3c-5-68.1,31.2-76.7,101.8-76.7H2704l180.7,483.8h488.1
			l-62.4-161.8h-282.7l-34.6-90.2H3233l-50.7-144.7h-237l-32.9-87.1h396.2l180.8,483.8h241.6c101.9,0,172.7,0,231.8-35.8
			c67.2-42.5,87-119.2,64-190.8c-8.4-27.3-34.5-78.4-55.8-102.2c-64.2-69.7-138.1-78.3-162.8-78.3c-4.8-68.1,31.3-76.7,102-76.7
			h101.9l315.6,483.8H4498.7"/>
	</g>
</g>
</svg>
