<?xml version="1.0" encoding="utf-8"?>
<!-- Generator: Adobe Illustrator 16.0.0, SVG Export Plug-In . SVG Version: 6.00 Build 0)  -->
<svg version="1.2" baseProfile="tiny" id="Layer_1" xmlns="http://www.w3.org/2000/svg" xmlns:xlink="http://www.w3.org/1999/xlink"
	 x="0px" y="0px" width="1050px" height="1050px" viewBox="0 0 1050 1050" xml:space="preserve">
<g>
	<path fill="#231F20" d="M233.493,637.017c1.566-0.521,2.088-0.521,5.744-0.521l0,0h0.262l3.654-0.522l5.222-1.567
		c5.222-1.566,9.139-2.872,12.271-4.7c8.879-4.697,17.755-13.053,22.978-21.408c3.916-6.787,9.397-17.755,14.359-29.242
		c4.177-9.66,8.093-14.099,12.794-14.099c3.916,0,6.526,3.132,6.526,8.355c0,2.61-0.26,5.222-1.306,9.919
		c-0.26,1.045-0.521,2.09-0.521,2.612l-0.26,0.784l-4.961,24.802l-0.26,1.306c-0.262,0.784-0.262,2.09-0.784,3.918
		c-1.566,10.443-3.134,14.881-6.528,18.274c-1.566,1.568-3.394,2.874-6.788,4.962c-22.192,12.793-46.474,19.32-71.278,19.32
		c-74.41,0-131.852-56.655-131.852-130.283c0-54.046,28.198-99.477,75.978-122.453c8.877-4.177,17.231-7.571,26.632-10.182
		c4.178-1.044,6.788-1.827,7.832-1.827l3.917-0.261l4.178-0.523l6.788-1.306c1.306-0.26,2.35-0.26,3.394-0.26
		c8.616,0,27.414,3.133,39.163,6.527c10.445,2.872,24.282,9.399,32.375,15.403c0.524,0.262,0.784,0.262,0.784,0.262
		c0.26,0.262,0.784,0.522,1.828,1.044c11.749,7.573,13.055,10.706,13.315,32.375v1.829v1.566c0,1.308,0.262,3.657,0.522,7.049
		c0.524,4.701,0.784,8.879,0.784,12.534c0,9.137-1.828,12.792-6.788,12.792c-4.178,0-6.268-2.61-9.921-12.01
		c-13.839-36.03-35.771-55.089-63.967-55.089c-29.504,0-56.658,18.538-69.713,47.518c-7.571,16.972-11.227,37.074-11.227,61.618
		c0,41.251,9.921,70.494,30.81,91.381c5.222,5.222,10.704,9.399,16.711,12.533c8.613,4.699,16.187,6.787,26.63,7.31
		C225.659,636.755,227.749,637.017,233.493,637.017"/>
	<path fill="#231F20" d="M379.963,397.336c6.79,0.26,8.357,2.871,8.357,14.097c0,2.351,0,4.962-0.262,7.833
		c0,2.611-0.262,4.7-0.262,6.005v40.73l0.523,11.488c0,1.567,0,2.088-0.262,4.438c-0.262,2.349-0.262,4.178-0.262,5.744
		c0,4.96,1.306,7.571,3.916,7.571c1.83,0,3.396-0.784,7.049-2.873c1.306-0.782,2.09-1.304,2.872-1.565
		c4.701-2.35,11.749-5.223,14.361-5.484l8.095-1.044l4.176-0.522c2.612-0.783,3.656-0.783,5.224-0.783
		c12.009,0,27.414,4.7,36.029,10.705c6.789,4.961,12.271,12.533,15.143,20.887c2.09,6.007,2.612,10.705,2.872,23.236
		c0,1.306,0,2.352,0,3.133v3.135l1.045,50.651l-0.26,10.966c0,1.827,0,2.611,0,3.917v3.916v1.565
		c0,15.405,2.088,20.365,10.703,25.588c4.178,2.61,5.483,3.654,5.483,5.222c0,3.654-4.961,4.7-20.888,4.7h-4.7h-4.959
		c-2.09,0-4.178,0-6.005,0l-25.064,0.521h-1.568h-1.306c-9.659,0-13.575-1.306-13.575-4.438c0-1.828,1.826-4.18,6.528-7.833
		c6.265-4.7,8.877-10.184,8.877-19.061c0-1.306,0-3.132,0-5.222c0-1.566,0-2.611,0-3.394v-1.044l-0.524-37.075l-0.26-44.387
		c0-1.042-0.784-3.916-1.828-7.047c-1.044-3.396-3.133-6.529-5.221-8.095c-3.656-2.872-9.921-4.7-15.667-4.7
		c-9.399,0-21.41,5.744-26.37,12.533c-2.612,3.394-3.394,7.31-3.394,14.621c0,2.35,0,4.959,0.26,7.834
		c0.262,3.915,0.262,5.221,0.262,7.309v48.04c0,2.09,0,3.918-0.262,7.834c-0.26,3.655-0.26,6.266-0.26,8.093
		c0,7.05,0.782,12.271,2.35,15.667c1.566,3.132,2.872,4.438,7.831,7.571c6.006,3.654,8.355,6.004,8.355,8.094
		c0,2.609-3.916,3.916-10.443,3.916c-1.304,0-2.872,0-4.699,0c-1.828,0-3.134,0-3.916,0h-1.568l-37.075,0.521h-1.044
		c-0.782,0-1.566,0-2.872,0c-1.566,0-3.134,0-4.438,0c-8.877,0-12.795-1.306-12.795-4.176c0-0.784,0.262-1.567,0.523-1.828
		l9.921-8.877c2.61-4.439,3.394-6.527,3.916-10.183c0.262-3.395,0.522-7.312,0.522-11.487c0-2.352,0-4.439,0-6.79
		c-0.26-3.915-0.26-4.959-0.26-7.31l-1.046-140.205c0-11.228-0.26-13.578-1.304-17.756c-0.784-3.394-1.828-4.96-5.746-7.832
		c-3.654-2.873-5.222-4.962-5.222-6.789c0-1.566,1.568-3.656,3.396-4.177l9.66-3.395c8.877-3.134,15.665-6.007,20.364-8.877
		c3.396-2.089,6.527-4.439,12.533-9.66C378.136,398.901,378.397,398.641,379.963,397.336"/>
	<path fill="#231F20" d="M574.219,397.857c5.48,0.784,6.787,2.35,6.787,8.355c0,1.044,0,2.35,0,3.394c0,1.305,0,2.351,0,2.873V413
		l0.521,32.897l1.307,150.128v0.261c0,1.306,0,3.917-0.263,7.049c0,2.61-0.26,5.224-0.26,7.834c0,12.793,1.042,18.276,4.176,22.192
		c1.567,1.827,3.134,3.134,7.312,5.745l1.828,1.044c1.305,0.782,1.827,1.566,3.393,3.394c1.045,1.306,1.566,2.35,1.566,3.134
		c0,0.522-0.262,0.782-1.044,0.782c-4.96,1.828-6.527,2.088-13.577,2.088c-1.567,0-3.394,0-5.221,0c-2.352,0-4.178,0-5.223,0
		c-1.303,0-2.611,0-6.268,0.262l-4.176,0.262l-23.76,0.522l-7.831-0.262c-11.229-0.261-14.099-1.307-14.621-5.482
		c1.564-1.045,2.088-1.567,4.176-2.873c9.921-6.527,11.749-9.659,11.749-19.32c0-1.044,0-2.09,0-3.132c0-1.307,0-2.351,0-2.872
		v-1.046v-34.203l-0.521-82.764v-50.391c0-6.528-2.35-11.488-7.31-14.361c-3.656-2.088-4.962-3.915-4.962-5.745
		c0-0.521,0-1.043,0.26-1.565l1.568-2.09c1.828-1.305,3.656-2.089,7.833-3.133c4.438-1.305,10.706-3.395,15.927-5.744
		c6.266-2.872,9.66-4.96,18.799-12.01C570.561,400.469,571.344,399.947,574.219,397.857"/>
	<path fill="#231F20" d="M888.048,416.134c7.833,1.567,13.839,3.395,21.668,6.005l5.224,1.827c0.524,0.261,2.09,0.784,3.918,1.044
		c6.005,1.828,8.093,2.612,10.181,4.179c2.351,1.828,3.658,4.699,3.658,7.832c0,7.833-8.098,17.233-21.933,25.587
		c-9.923,6.005-22.976,10.706-29.506,10.706c-1.043,0-1.827,0-2.869-0.262h-0.524c-3.655-0.782-6.003-2.871-6.003-5.743
		c0-2.873,2.871-6.005,9.921-10.444c4.438-2.872,5.741-3.917,7.31-6.526c1.828-2.873,2.611-5.484,2.611-8.355
		c0-4.178-1.567-7.311-5.222-11.227c-3.396-3.655-4.699-5.745-4.699-7.832c0-2.612,1.567-4.439,5.481-6.006
		C887.523,416.395,887.788,416.395,888.048,416.134"/>
	<path fill="#231F20" d="M684.397,484.278l6.004-1.305h8.617l11.749,0.783c38.381,2.611,72.582,42.819,72.582,85.378
		c0,48.303-38.119,85.899-87.203,85.899c-17.232,0-32.375-3.657-44.648-10.445c-25.846-14.621-42.816-45.692-42.816-78.066
		c0-16.186,4.438-31.068,13.574-44.386c9.662-14.359,20.627-23.497,38.381-32.114c4.7-2.35,8.355-3.655,10.445-3.916
		L684.397,484.278"/>
	<path fill="#231F20" d="M954.885,573.312c-3.391,1.563-5.742,1.826-16.447,1.826c-2.609,0-4.961,0-7.571,0c-2.348,0-3.655,0-4.96,0
		h-0.523l-66.316,0.522l-7.31,0.521c-0.784,3.134-0.784,4.18-0.784,6.527c0,4.961,1.044,11.228,3.136,17.232
		c5.218,15.143,11.487,23.238,22.712,28.72c6.266,3.134,12.795,4.7,18.801,4.7c1.564,0,3.392-0.261,4.96-0.522l3.653-0.521
		l6.789-1.828c8.618-2.35,18.279-8.094,25.588-14.883c4.178-3.916,7.05-5.481,9.66-5.481c3.915,0,7.049,3.132,7.049,7.312
		c0,3.13-1.565,6.265-5.481,10.441c-15.143,16.71-39.165,26.894-63.969,26.894c-47.257,0-85.638-38.642-85.638-86.684
		c0-28.459,14.1-54.828,38.121-70.754c7.31-4.701,17.491-9.661,22.713-10.966c0.26,0,4.439-0.784,12.795-2.089l7.309-1.305
		l6.268,0.262l7.31,0.783c35.512,3.655,64.489,39.162,64.489,78.85c0,4.959-0.521,8.617-1.564,9.398L954.885,573.312"/>
	<path fill="#FFFFFF" d="M878.91,501.771c7.31,0.521,12.01,2.089,15.663,5.743c7.313,7.05,11.489,18.017,13.057,33.159v0.784
		c0,0.261,0,0.522,0,0.784c0.261,2.348,0.522,4.436,0.522,6.264c0,3.916-0.782,5.221-3.658,6.789
		c-0.779,0.26-1.044,0.521-1.304,0.784l-31.069-0.524h-0.26c-1.046,0-2.61,0-4.438,0c-1.827,0-3.655,0-5.745,0
		c-10.445,0-12.009-1.043-12.009-7.57c0-3.916,1.563-10.706,4.176-18.797c1.567-4.44,3.134-8.356,4.701-11.49
		c1.304-2.35,3.392-5.221,5.22-7.571c3.134-3.394,5.485-4.961,11.228-6.79C877.345,502.555,877.604,502.555,878.91,501.771"/>
	<path fill="#FFFFFF" d="M693.535,502.555c9.921,0.26,15.404,1.828,20.626,6.003c12.271,9.923,19.581,32.115,19.581,59.789
		c0,26.634-6.525,48.043-17.493,57.964c-3.132,2.872-6.527,5.222-8.354,6.006l-7.833,2.871c-6.787,0-9.661-0.521-13.316-1.565
		c-4.961-1.566-9.137-4.7-12.792-9.14c-8.877-11.227-14.622-33.159-14.622-55.874c0-28.195,8.093-50.912,21.932-60.573
		c2.088-1.566,4.439-2.61,9.138-4.438C691.709,503.077,691.969,503.077,693.535,502.555"/>
</g>
</svg>
