<?xml version="1.0" encoding="utf-8"?>
<!-- Generator: Adobe Illustrator 21.1.0, SVG Export Plug-In . SVG Version: 6.00 Build 0)  -->
<svg version="1.1" id="图层_1" xmlns="http://www.w3.org/2000/svg" xmlns:xlink="http://www.w3.org/1999/xlink" x="0px" y="0px"
	 viewBox="0 0 1217.9 267" style="enable-background:new 0 0 1217.9 267;" xml:space="preserve">
<g id="Clearpay_Logo_Black">
	<g>
		<g>
			<g>
				<path d="M957.9,74.3l-81.1,167.3h-33.6l30.3-62.5L825.9,74.3h34.5l30.6,70.2l33.4-70.2H957.9z"/>
			</g>
			<g>
				<g>
					<path d="M649.3,133.7c0-19.2-14.5-34-32.3-34s-32.3,14.3-32.3,34c0,19.5,14.5,34,32.3,34S649.3,152.9,649.3,133.7 M555.2,241.6
						V74.3h29.2v15.4c8.8-10.9,21.9-17.6,37.5-17.6c32.1,0,57.3,26.4,57.3,61.3s-25.7,61.5-58,61.5c-15,0-27.3-5.9-35.9-15.9v62.5
						L555.2,241.6L555.2,241.6z"/>
					<path d="M784.6,133.7c0-20-14.5-34-32.3-34S720,114,720,133.7c0,19.5,14.5,34,32.3,34S784.6,153.6,784.6,133.7 M784.8,193.1
						v-15.4c-8.8,10.7-21.9,17.3-37.5,17.3c-32.6,0-57.3-26.1-57.3-61.3c0-34.9,25.7-61.5,58-61.5c15.2,0,28,6.7,36.8,17.1v-15H814
						v118.8H784.8z"/>
					<path d="M502.5,85.9c0,0,7.4-13.8,25.7-13.8c7.8,0,12.8,2.7,12.8,2.7v30.3c0,0-11-6.8-21.1-5.4c-10.1,1.4-16.5,10.6-16.5,23
						v70.4h-30.2V74.3h29.2L502.5,85.9L502.5,85.9z"/>
				</g>
			</g>
			<path d="M1184.7,67.6l-34.6-19.8L1115,27.7c-23.2-13.3-52.2,3.4-52.2,30.2v4.5c0,2.5,1.3,4.8,3.5,6l16.3,9.3
				c4.5,2.6,10.1-0.7,10.1-5.9V61.1c0-5.3,5.7-8.6,10.3-6l32,18.4l31.9,18.3c4.6,2.6,4.6,9.3,0,11.9L1135,122l-32,18.4
				c-4.6,2.6-10.3-0.7-10.3-6v-5.3c0-26.8-29-43.6-52.2-30.2l-35.1,20.1l-34.6,19.8c-23.3,13.4-23.3,47.1,0,60.5l34.6,19.8
				l35.1,20.1c23.2,13.3,52.2-3.4,52.2-30.2v-4.5c0-2.5-1.3-4.8-3.5-6l-16.3-9.3c-4.5-2.6-10.1,0.7-10.1,5.9v10.7
				c0,5.3-5.7,8.6-10.3,6l-32-18.4l-31.9-18.3c-4.6-2.6-4.6-9.3,0-11.9l31.9-18.3l32-18.4c4.6-2.6,10.3,0.7,10.3,6v5.3
				c0,26.8,29,43.6,52.2,30.2l35.1-20.1l34.6-19.8C1208,114.6,1208,81,1184.7,67.6z"/>
		</g>
		<g>
			<path d="M137.5,148.8c-6.4,27.3-29.9,46.1-60.3,46.1c-35.1,0-61.5-26.4-61.5-61.3s26.8-61.5,62-61.5c29.7,0,52.9,18.8,59.6,45.6
				h-30.9C100.9,107,90,99.9,77.9,99.9c-17.6,0-32.3,14.5-32.3,33.7s14.7,33.7,32.3,33.7c12.6,0,23.5-7.1,28.7-18.5L137.5,148.8
				L137.5,148.8z"/>
			<path d="M151.4,193V25.4h29.9V193H151.4z"/>
			<path d="M226.3,141.5c2.1,17.6,14.7,27.5,30.6,27.5c12.6,0,22.3-5.9,28-15.4h30.6c-7.1,25.2-29.7,41.3-59.4,41.3
				c-35.9,0-61-25.2-61-61s26.6-61.7,61.7-61.7c35.4,0,61,26.1,61,61.7c0,2.6-0.2,5.2-0.7,7.6H226.3z M285.9,122.9
				c-2.1-15.4-14.7-24.7-29.4-24.7c-14.7,0-26.8,9-29.9,24.7H285.9z"/>
			<path d="M424.6,193v-15.4c-8.8,10.7-21.8,17.3-37.5,17.3c-32.5,0-57.2-26.1-57.2-61.3c0-34.9,25.6-61.5,57.9-61.5
				c15.2,0,28,6.6,36.8,17.1v-15h29.2v118.7h-29.2V193z M424.3,133.6c0-19.9-14.5-34-32.3-34s-32.3,14.2-32.3,34
				c0,19.5,14.5,34,32.3,34S424.3,153.6,424.3,133.6z"/>
		</g>
	</g>
</g>
</svg>
