<?xml version="1.0" encoding="utf-8"?>
<!-- Generator: Adobe Illustrator 23.0.3, SVG Export Plug-In . SVG Version: 6.00 Build 0)  -->
<svg version="1.1" id="Layer_1" xmlns="http://www.w3.org/2000/svg" xmlns:xlink="http://www.w3.org/1999/xlink" x="0px" y="0px"
	 viewBox="0 0 521.33 99.88" style="enable-background:new 0 0 521.33 99.88;" xml:space="preserve">
<style type="text/css">
	.st0{fill:#FF9900;}
	.st1{fill:#434345;}
	.st2{fill:#434343;}
</style>
<g>
	<g>
		<g>
			<path class="st0" d="M7.62,26.81c1.92-0.29,3.85-0.56,5.78-0.8c1.53-0.19,3.07-0.33,4.61-0.46c1.68-0.14,3.37-0.27,5.06-0.36
				c1.78-0.09,3.56-0.16,5.34-0.19c1.93-0.03,3.86-0.04,5.78-0.01c1.84,0.03,3.67,0.1,5.5,0.2c1.7,0.1,3.41,0.25,5.11,0.41
				c2.53,0.24,5.04,0.61,7.53,1.1c1.97,0.39,3.91,0.92,5.83,1.51c4.1,1.26,8.24,2.39,12.42,3.35c1.31,0.3,2.62,0.57,3.96,0.72
				c0.64,0.07,1.28,0.11,1.93,0.11V10.28L0,0v28.26C2.52,27.69,5.06,27.19,7.62,26.81z"/>
		</g>
		<g>
			<path class="st0" d="M76.36,40.95c-1.08,0.02-2.09,0.32-3.05,0.8c-0.39,0.19-0.67,0.5-0.92,0.85c-0.37,0.52-0.62,1.09-0.85,1.68
				c-0.43,1.13-0.81,2.27-1.26,3.39c-0.65,1.58-1.15,3.22-1.74,4.81c-1.13,3.04-2.49,5.96-4.22,8.71c-1.82,2.89-3.97,5.49-6.56,7.72
				c-3.56,3.06-7.63,5.14-12.17,6.3c-1.78,0.45-3.59,0.75-5.42,0.92c-1.77,0.17-3.54,0.17-5.31,0.13c-1.47-0.03-2.94-0.13-4.4-0.29
				c-3.28-0.36-6.49-1.02-9.57-2.25c-2.66-1.06-5.07-2.51-7.16-4.47c-2.08-1.96-3.65-4.29-4.83-6.89c-0.95-2.09-1.62-4.27-2.14-6.49
				c-0.43-1.85-0.75-3.72-1.05-5.6c-0.27-1.69-0.5-3.38-0.87-5.05c-0.34-1.53-0.75-3.03-1.37-4.47c-0.3-0.69-0.65-1.35-1.1-1.95
				c-0.28-0.37-0.59-0.72-0.98-0.99c-0.41-0.3-0.86-0.49-1.39-0.48v62.54l76.45-9.86V40.96C76.42,40.96,76.39,40.95,76.36,40.95z"/>
		</g>
		<g>
			<path class="st0" d="M55.34,31.62c-1.83-0.86-3.75-1.42-5.71-1.87c-3.06-0.69-6.17-1.05-9.3-1.25c-1.87-0.12-3.74-0.15-5.62-0.13
				c-3.07,0.03-6.13,0.23-9.17,0.72c-1.82,0.29-3.62,0.71-5.36,1.33c-1.84,0.65-3.59,1.5-5.16,2.68c-1.94,1.47-3.4,3.3-4.25,5.6
				c-0.74,2.01-1.15,4.09-1.28,6.23c-0.12,1.88-0.01,3.74,0.28,5.6c0.34,2.14,0.91,4.21,1.69,6.22c1.05,2.69,2.4,5.23,4.17,7.52
				c2.15,2.78,4.82,4.9,8.07,6.26c2.21,0.93,4.53,1.47,6.9,1.78c1.71,0.22,3.44,0.33,5.69,0.34c1.54,0.01,3.58-0.17,5.6-0.55
				c2.54-0.48,4.96-1.29,7.25-2.49c3.58-1.88,6.48-4.53,8.8-7.83c1.76-2.5,3.09-5.23,4.12-8.11c0.84-2.33,1.48-4.7,1.72-7.17
				c0.15-1.55,0.14-3.1-0.13-4.64c-0.46-2.67-1.61-4.99-3.52-6.92C58.75,33.52,57.12,32.46,55.34,31.62z"/>
		</g>
	</g>
	<g>
		<path class="st2" d="M111.71,40.88c6.48,2.46,12.84,5.64,12.84,14.76s-7.74,13.08-15.24,13.08c-5.88,0-10.5-1.56-14.82-5.34
			l2.82-3.66c3.48,3.18,7.2,4.56,12,4.56c1.74,0,10.44-0.48,10.44-8.64c0-6.84-5.4-8.7-10.86-10.8c-5.94-2.28-12.78-4.62-12.78-14.1
			c0-7.26,5.7-12.18,13.92-12.18c5.04,0,9.54,1.98,13.08,4.62l-2.76,3.66c-2.82-2.04-6.42-3.84-10.32-3.84
			c-4.38,0-9.12,2.16-9.12,7.74C100.91,37.58,106.25,38.78,111.71,40.88z"/>
		<path class="st2" d="M168.17,68.06h-4.56V49.1c0-5.4-3.42-6.54-6.36-6.54c-3.66,0-6.42,2.88-6.42,6.54v18.96h-4.5V49.1
			c0-5.4-3.42-6.54-6.36-6.54c-3.66,0-6.36,2.88-6.36,6.54v18.96h-4.56V38.78h4.56v2.94c2.1-2.1,4.26-3.6,7.74-3.6
			c3.6,0,6.18,1.86,7.74,4.26c3.06-3.24,5.58-4.26,9.42-4.26c5.34,0,9.66,4.38,9.66,11.1V68.06z"/>
		<path class="st2" d="M197.33,68.06h-4.56v-3.3c-3.54,3.78-7.38,3.96-9.84,3.96c-5.16,0-10.56-3.54-10.56-9.66
			c0-2.28,0.84-5.46,3.78-7.8c3.42-2.76,8.82-3.24,16.5-1.8c-0.42-5.22-2.34-7.02-7.32-7.02c-2.28,0-5.64,0.48-9,2.34l-1.86-3.96
			c4.32-2.28,8.64-2.7,10.92-2.7c10.38,0,11.94,7.08,11.94,13.98V68.06z M192.77,53.72c-8.52-1.74-12-0.48-13.8,0.9
			c-1.26,0.96-1.92,2.52-1.92,4.44c0,0.78,0.54,5.58,6.42,5.34c6.12-0.24,9.3-3.06,9.3-8.34V53.72z"/>
		<path class="st2" d="M222.23,39.56l-2.28,4.32c-1.32-1.14-3.18-1.44-4.8-1.44c-3.9,0-6.96,3.06-6.96,6.96v18.66h-4.56V38.78h4.56
			v3.54c1.86-2.52,4.68-4.2,8.16-4.2C218.51,38.12,220.55,38.6,222.23,39.56z"/>
		<path class="st2" d="M239.09,66.98c-1.32,1.08-3.06,1.74-4.98,1.74c-4.26,0-7.62-3.42-7.62-7.92V42.98h-2.76v-4.2h2.76V27.8h4.56
			v10.98h6v4.2h-6V60.8c0,1.74,0.96,3.6,3.12,3.6c0.96,0,1.86-0.36,2.52-0.96L239.09,66.98z"/>
		<path class="st2" d="M272.21,53.36c0,8.28-6.6,14.7-14.82,14.7h-13.74l-0.06-48.84h13.38c6.66,0,12,5.28,12,12.06
			c0,3.72-1.92,7.56-4.8,9.24C268.79,42.74,272.21,47.72,272.21,53.36z M248.27,23.54v15.3h8.7c4.08,0,7.2-3.42,7.2-7.56
			c0-4.2-3.12-7.74-7.2-7.74H248.27z M267.41,53.36c0-5.7-4.38-10.2-10.02-10.2V43.1c-0.18,0.06-0.24,0.06-9.12,0.06l0.06,20.58
			h9.06C263.03,63.74,267.41,59.06,267.41,53.36z"/>
		<path class="st2" d="M299.93,39.38v17.64c0,6.54-5.1,11.7-11.58,11.7s-11.64-5.16-11.64-11.7V39.38h4.56v17.64
			c0,4.2,2.94,7.38,7.08,7.38s7.02-3.18,7.02-7.38V39.38H299.93z"/>
		<path class="st2" d="M312.23,81.32h-4.74l7.26-15.96l-11.52-26.58h4.86l9.12,21.42l9.96-21.42h4.86L312.23,81.32z"/>
		<path class="st2" d="M379.67,57.26c-4.5,7.2-11.88,11.46-20.88,11.46c-14.04,0-24.36-10.5-24.36-25.02
			c0-14.58,10.32-25.14,24.36-25.14c6.96,0,13.08,2.46,17.46,6.84l-3.06,3.42c-3.54-3.66-8.52-5.82-14.4-5.82
			c-11.34,0-19.56,8.82-19.56,20.7c0,11.88,8.22,20.58,19.56,20.58c7.08,0,12.78-3.48,16.14-8.4V45.62h-15.18v-4.26h19.86
			L379.67,57.26z"/>
		<path class="st2" d="M390.71,19.22v48.84h-4.56V19.22H390.71z"/>
		<path class="st2" d="M420.35,68.06h-4.56v-3.3c-3.54,3.78-7.38,3.96-9.84,3.96c-5.16,0-10.56-3.54-10.56-9.66
			c0-2.28,0.84-5.46,3.78-7.8c3.42-2.76,8.82-3.24,16.5-1.8c-0.42-5.22-2.34-7.02-7.32-7.02c-2.28,0-5.64,0.48-9,2.34l-1.86-3.96
			c4.32-2.28,8.64-2.7,10.92-2.7c10.38,0,11.94,7.08,11.94,13.98V68.06z M415.79,53.72c-8.52-1.74-12-0.48-13.8,0.9
			c-1.26,0.96-1.92,2.52-1.92,4.44c0,0.78,0.54,5.58,6.42,5.34c6.12-0.24,9.3-3.06,9.3-8.34V53.72z"/>
		<path class="st2" d="M445.19,60.32c0,5.82-5.28,8.4-10.5,8.4c-3.78,0-7.32-1.56-10.14-4.32l2.58-3.6c2.1,2.22,4.74,3.6,7.56,3.6
			c1.02,0,5.94-0.24,5.94-4.08c0-3.18-1.38-3.48-6.24-4.86c-3.42-0.96-9-2.28-9-8.94c0-5.52,5.1-8.4,10.02-8.4
			c3.54,0,6.78,1.32,9.3,3.72l-2.7,3.42c-1.8-1.8-4.08-2.82-6.6-2.82c-1.92,0-5.46,0.9-5.46,4.08c0,3.24,2.28,3.66,5.64,4.62
			C440.27,52.46,445.19,53.66,445.19,60.32z"/>
		<path class="st2" d="M468.23,60.32c0,5.82-5.28,8.4-10.5,8.4c-3.78,0-7.32-1.56-10.14-4.32l2.58-3.6c2.1,2.22,4.74,3.6,7.56,3.6
			c1.02,0,5.94-0.24,5.94-4.08c0-3.18-1.38-3.48-6.24-4.86c-3.42-0.96-9-2.28-9-8.94c0-5.52,5.1-8.4,10.02-8.4
			c3.54,0,6.78,1.32,9.3,3.72l-2.7,3.42c-1.8-1.8-4.08-2.82-6.6-2.82c-1.92,0-5.46,0.9-5.46,4.08c0,3.24,2.28,3.66,5.64,4.62
			C463.31,52.46,468.23,53.66,468.23,60.32z"/>
		<path class="st2" d="M497.51,64.22c-3.12,2.94-6.96,4.5-11.88,4.5c-8.58,0-14.7-6.24-14.7-15.24c0-8.88,6-15.36,14.16-15.36
			c8.4,0,13.38,6.54,13.2,16.26h-22.68c0,5.46,4.2,10.02,10.02,10.02c3.84,0,6.72-1.32,9-3.48L497.51,64.22z M475.97,50h17.52
			c-0.9-3.84-3.18-7.56-8.4-7.56C480.71,42.44,477.23,45.14,475.97,50z"/>
		<path class="st2" d="M521.33,60.32c0,5.82-5.28,8.4-10.5,8.4c-3.78,0-7.32-1.56-10.14-4.32l2.58-3.6c2.1,2.22,4.74,3.6,7.56,3.6
			c1.02,0,5.94-0.24,5.94-4.08c0-3.18-1.38-3.48-6.24-4.86c-3.42-0.96-9-2.28-9-8.94c0-5.52,5.1-8.4,10.02-8.4
			c3.54,0,6.78,1.32,9.3,3.72l-2.7,3.42c-1.8-1.8-4.08-2.82-6.6-2.82c-1.92,0-5.46,0.9-5.46,4.08c0,3.24,2.28,3.66,5.64,4.62
			C516.41,52.46,521.33,53.66,521.33,60.32z"/>
	</g>
</g>
</svg>
