<?xml version="1.0" encoding="utf-8"?>
<!-- Generator: Adobe Illustrator 23.0.3, SVG Export Plug-In . SVG Version: 6.00 Build 0)  -->
<svg version="1.1" id="Layer_1" xmlns="http://www.w3.org/2000/svg" xmlns:xlink="http://www.w3.org/1999/xlink" x="0px" y="0px"
	 viewBox="0 0 71.28 93.12" style="enable-background:new 0 0 71.28 93.12;" xml:space="preserve">
<style type="text/css">
	.st0{fill:#FF9900;}
	.st1{fill:#434345;}
	.st2{fill:#434343;}
</style>
<g>
	<g>
		<path class="st0" d="M51.6,30.01c-1.7-0.8-3.5-1.33-5.33-1.74c-2.86-0.64-5.75-0.98-8.67-1.16c-1.74-0.11-3.49-0.14-5.24-0.12
			c-2.86,0.03-5.72,0.22-8.55,0.67c-1.7,0.27-3.37,0.66-5,1.24c-1.72,0.61-3.34,1.4-4.81,2.5c-1.81,1.37-3.17,3.08-3.96,5.22
			c-0.69,1.87-1.07,3.82-1.2,5.81c-0.11,1.75-0.01,3.49,0.26,5.22c0.31,1.99,0.84,3.93,1.58,5.8c0.98,2.51,2.24,4.87,3.89,7.01
			c2.01,2.59,4.49,4.56,7.52,5.84c2.06,0.87,4.22,1.37,6.43,1.66c1.6,0.21,3.2,0.31,5.3,0.32c1.43,0.01,3.34-0.16,5.22-0.52
			c2.36-0.45,4.62-1.21,6.76-2.32c3.34-1.75,6.04-4.22,8.21-7.3c1.64-2.34,2.88-4.88,3.84-7.56c0.78-2.17,1.38-4.38,1.6-6.69
			c0.14-1.45,0.13-2.89-0.12-4.33c-0.43-2.49-1.5-4.65-3.28-6.45C54.78,31.78,53.26,30.79,51.6,30.01z"/>
	</g>
	<g>
		<path class="st0" d="M7.1,24.99c1.79-0.27,3.59-0.52,5.39-0.74c1.43-0.18,2.86-0.31,4.29-0.43c1.57-0.13,3.14-0.25,4.71-0.34
			c1.66-0.09,3.32-0.15,4.98-0.18c1.8-0.03,3.59-0.04,5.39-0.01c1.71,0.03,3.42,0.09,5.13,0.19c1.59,0.09,3.18,0.24,4.76,0.39
			c2.36,0.22,4.7,0.57,7.02,1.03c1.84,0.36,3.64,0.85,5.43,1.4c3.82,1.17,7.68,2.23,11.58,3.12c1.22,0.28,2.44,0.53,3.69,0.67
			c0.6,0.07,1.2,0.1,1.8,0.1V9.58L0,0v26.34C2.35,25.82,4.72,25.35,7.1,24.99z"/>
	</g>
	<g>
		<path class="st0" d="M71.19,38.18c-1.01,0.02-1.95,0.3-2.84,0.74c-0.36,0.18-0.63,0.47-0.85,0.79c-0.34,0.48-0.58,1.02-0.79,1.57
			c-0.4,1.05-0.75,2.12-1.18,3.16c-0.6,1.48-1.07,3-1.62,4.49c-1.05,2.83-2.32,5.56-3.93,8.12c-1.69,2.69-3.7,5.12-6.11,7.2
			c-3.32,2.86-7.11,4.79-11.35,5.87c-1.66,0.42-3.35,0.7-5.05,0.86c-1.65,0.16-3.3,0.16-4.95,0.12c-1.37-0.03-2.74-0.12-4.1-0.27
			c-3.06-0.33-6.05-0.95-8.92-2.09c-2.48-0.99-4.73-2.34-6.67-4.17c-1.94-1.83-3.41-4-4.51-6.42c-0.88-1.94-1.51-3.98-1.99-6.05
			c-0.4-1.72-0.7-3.47-0.98-5.22c-0.25-1.57-0.47-3.15-0.81-4.7c-0.32-1.42-0.7-2.83-1.28-4.17c-0.28-0.64-0.61-1.26-1.03-1.82
			c-0.26-0.35-0.55-0.67-0.91-0.93C0.91,34.99,0.5,34.8,0,34.81v58.3l71.28-9.2V38.18C71.25,38.18,71.22,38.18,71.19,38.18z"/>
	</g>
</g>
</svg>
