<?xml version="1.0" encoding="UTF-8"?>
<svg width="80px" height="53px" viewBox="0 0 80 53" version="1.1" xmlns="http://www.w3.org/2000/svg" xmlns:xlink="http://www.w3.org/1999/xlink">
    <title>Emporio Armani</title>
    <g id="Emporio-Armani" stroke="none" stroke-width="1" fill="none" fill-rule="evenodd">
        <g transform="translate(0.000000, 23.000000)" fill="#000000" fill-rule="nonzero" id="Shape">
            <path d="M67.8125905,4.89857475 L68.9689682,1.50914375 L70.0883913,4.89857475 L67.8125905,4.89857475 M55.82114,3.58519022 L55.82114,0.46243121 L56.3630734,0.46243121 C57.2587717,0.46243121 57.8596327,1.04491475 57.8596327,2.09801944 C57.8596327,2.6791047 57.4055911,3.58479071 56.4625511,3.58479071 L55.82114,3.58519022 L55.82114,3.58519022 Z M49.9641441,4.89857475 L51.1209213,1.50914375 L52.2403444,4.89857475 L49.9641441,4.89857475 Z M79.9996005,0.313614254 L76.5714172,0.313614254 L76.5714172,0.462630964 L77.1379204,0.462630964 L77.1379204,5.82623373 L73.6508095,0.313614254 L72.1522527,0.313614254 L72.1522527,0.462630964 L72.7175574,0.462630964 L72.7175574,7.24548805 L71.769923,7.24548805 L69.3421092,0 L66.8339942,7.2452883 L65.9410925,7.2452883 L65.9410925,0.462630964 L66.4584561,0.462630964 L66.4584561,0.313614254 L65.1061195,0.313614254 L63.179689,5.97085585 L61.1615713,0.313614254 L59.7848646,0.313614254 L59.7848646,0.462630964 L60.3513678,0.462630964 L60.3513678,7.24548805 L59.3122459,7.24548805 C58.9548855,7.24548805 58.6600481,6.92628067 58.6600481,6.42529688 L58.6600481,5.37239196 C58.6600481,4.50306123 58.3562218,3.80991381 57.3874135,3.66209562 C58.1928228,3.55283002 58.7838958,2.83391429 58.7838958,2.05906735 C58.7838958,1.07387913 58.0537938,0.314213517 56.6009808,0.314213517 L54.4396392,0.314213517 L54.4396392,0.463230227 L55.0049439,0.463230227 L55.0049439,7.24608731 L53.9214766,7.24608731 L51.4936628,0 L48.986147,7.2452883 L48.52032,7.2452883 L48.52032,7.394305 L49.8137291,7.394305 L49.8137291,7.2452883 L49.1629296,7.2452883 L49.9136063,5.04759146 L52.2898834,5.04759146 L53.0163898,7.2452883 L52.1264844,7.2452883 L52.1264844,7.394305 L56.6966631,7.394305 L56.6966631,7.2452883 L55.8215395,7.2452883 L55.8215395,3.73460643 L56.4629506,3.73460643 C57.3434675,3.73460643 57.8058987,4.09256614 57.8058987,4.97288335 L57.8058987,5.58972464 C57.8058987,7.04413571 58.7423469,7.39450476 59.2427314,7.39450476 L61.1186241,7.39450476 L61.1186241,7.24548805 L60.5013833,7.24548805 L60.5013833,0.970206646 L62.8762622,7.47021164 L65.1270937,0.757867823 L65.1270937,7.24548805 L64.5605905,7.24548805 L64.5605905,7.39450476 L67.6621755,7.39450476 L67.6621755,7.24548805 L67.0117755,7.24548805 L67.7620527,5.04779122 L70.1383299,5.04779122 L70.8644367,7.24548805 L69.9749308,7.24548805 L69.9749308,7.39450476 L73.4354744,7.39450476 L73.4354744,7.24548805 L72.8669736,7.24548805 L72.8669736,0.697941532 L77.2877361,7.63880427 L77.2877361,0.462630964 L78.6177002,0.462630964 L78.6177002,7.24548805 L78.0507975,7.24548805 L78.0507975,7.39450476 L80,7.39450476 L80,7.24548805 L79.4334968,7.24548805 L79.4330973,0.462630964 L80,0.462830718 L79.9996005,0.313614254 L79.9996005,0.313614254 Z M3.09279586,0.462630964 C4.2947175,0.462630964 4.59474846,1.15757618 4.59474846,2.15335138 L4.73397721,2.15335138 L4.73397721,0.313614254 L0,0.313614254 L0,0.462630964 L0.616641531,0.462630964 L0.616641531,7.24548805 L0,7.24548805 L0,7.39450476 L4.73417696,7.39450476 L4.73417696,5.3556126 L4.59494821,5.3556126 C4.59494821,6.40851752 4.33746492,7.24548805 2.60100077,7.24548805 L1.43203859,7.24548805 L1.43203859,3.89401037 L1.93442066,3.89401037 C2.71306293,3.89401037 3.0830079,4.29551651 3.0830079,4.97787721 L3.22223665,4.97787721 L3.22223665,2.66072731 L3.0830079,2.66072731 C3.0830079,3.35307572 2.71306293,3.7447939 1.93442066,3.7447939 L1.43203859,3.7447939 L1.43203859,0.462630964 L3.09279586,0.462630964 M33.9476444,7.42526692 C32.0657591,7.42526692 31.9732729,4.96609171 31.9732729,3.85885361 C31.9732729,2.75980544 32.0985188,0.292440298 33.9476444,0.292440298 C35.7925751,0.292440298 35.9318039,2.76020495 35.9318039,3.85885361 C35.9318039,4.95790178 35.8263336,7.42526692 33.9476444,7.42526692 M33.9476444,0.143423589 C32.0957223,0.143423589 30.8794183,2.20488799 30.8794183,3.85945287 C30.8794183,5.6646325 32.1957992,7.56509493 33.9476444,7.56509493 C35.6994896,7.56509493 37.015471,5.78029024 37.015471,3.85945287 C37.0156707,2.20488799 35.6996894,0.143423589 33.9476444,0.143423589 Z M19.9930086,7.42526692 C18.1111233,7.42526692 18.0188368,4.96609171 18.0188368,3.85885361 C18.0188368,2.75980544 18.1440828,0.292440298 19.9930086,0.292440298 C21.8381391,0.292440298 21.9769686,2.76020495 21.9769686,3.85885361 C21.9771681,4.95790178 21.8712983,7.42526692 19.9930086,7.42526692 M19.9930086,0.143423589 C18.1410865,0.143423589 16.9247825,2.20488799 16.9247825,3.85945287 C16.9247825,5.6646325 18.2409636,7.56509493 19.9930086,7.56509493 C21.7444543,7.56509493 23.0612347,5.78029024 23.0612347,3.85945287 C23.0612347,2.20488799 21.7452533,0.143423589 19.9930086,0.143423589 Z M24.7068106,3.58519022 L24.7068106,0.46243121 L25.248744,0.46243121 C26.1446421,0.46243121 26.745503,1.04491475 26.745503,2.09801944 C26.745503,2.6791047 26.291062,3.58479071 25.3482217,3.58479071 L24.7068106,3.58519022 M28.6689372,0.46243121 L29.2356402,0.462630964 L29.2356402,7.24548805 L28.1973173,7.24548805 C27.8395573,7.24548805 27.5459185,6.92628067 27.5459185,6.42529688 L27.5459185,5.37239196 C27.5459185,4.50306123 27.2416927,3.80991381 26.2732839,3.66209562 C27.0790927,3.55263026 27.6701657,2.83391429 27.6701657,2.05946686 C27.6701657,1.07387913 26.9396642,0.314213517 25.4870509,0.314213517 L23.3257094,0.314213517 L23.3257094,0.463230227 L23.8910141,0.463230227 L23.8910141,7.24608731 L23.3257094,7.24608731 L23.3257094,7.39510402 L25.5815347,7.39510402 L25.5815347,7.24608731 L24.7066109,7.24608731 L24.7066109,3.73460643 L25.3478222,3.73460643 C26.2287387,3.73460643 26.6905706,4.08217892 26.6905706,4.97288335 L26.6905706,5.58972464 C26.6905706,7.06590893 27.6270188,7.39450476 28.1278028,7.39450476 L30.6181397,7.39450476 L30.6181397,7.24548805 L30.0514367,7.24548805 L30.0514367,0.462630964 L30.6181397,0.462830718 L30.6181397,0.313614254 L28.6689372,0.313614254 L28.6689372,0.46243121 L28.6689372,0.46243121 Z M13.8709387,4.3112971 L13.4580466,4.3112971 L13.4580466,0.46243121 L13.8709387,0.46243121 C14.8958781,0.46243121 15.5368896,0.991180848 15.5368896,2.40624032 C15.5368896,3.6840686 15.0440958,4.3112971 13.8709387,4.3112971 M12.6326618,7.2452883 L11.2947075,7.2452883 L11.2947075,0.462630964 L12.6326618,0.462630964 L12.6326618,7.2452883 Z M14.0700938,0.313614254 L10.4591353,0.313614254 L8.53370354,5.97085585 L6.5143873,0.313614254 L5.13907893,0.313614254 L5.13907893,0.462630964 L5.70538238,0.462630964 L5.70538238,7.24548805 L5.13907893,7.24548805 L5.13907893,7.39450476 L6.47104062,7.39450476 L6.47104062,7.24548805 L5.8547986,7.24548805 L5.8547986,0.970006892 L8.22907823,7.47021164 L10.4793104,0.758267331 L10.4793104,7.24548805 L9.91280725,7.24548805 L9.91280725,7.39450476 L14.0249493,7.39450476 L14.0249493,7.24548805 L13.4580466,7.24548805 L13.4580466,4.46091308 L14.0696943,4.46091308 C15.6883034,4.46091308 16.47154,3.56022093 16.47154,2.4072391 C16.47154,1.29480739 15.7819882,0.313614254 14.0700938,0.313614254 Z M48.694306,2.82053075 C48.7036945,2.86727325 48.7068905,2.91201822 48.7068905,2.95476564 C48.7068905,3.42478751 48.205707,3.66549145 48.205707,3.66549145 L38.7643199,3.66549145 C38.7643199,3.66549145 38.2631363,3.42478751 38.2631363,2.95476564 C38.2631363,2.91201822 38.2673312,2.86727325 38.2761204,2.82053075 L41.7798108,2.82053075 L42.1269838,3.23002707 L42.2076845,2.82053075 L44.5789679,2.82053075 L44.8909841,3.17269758 L45.189417,2.82053075 L48.694306,2.82053075 M44.1538907,1.58525014 L44.4331472,2.43540445 L42.2094823,2.43540445 L42.2430411,1.58525014 L44.1538907,1.58525014 M49.7348262,1.59084326 C49.7438151,1.63758577 49.7474107,1.68253049 49.7474107,1.72587717 C49.7474107,2.19549954 49.2468264,2.43600372 49.2468264,2.43600372 L45.5144173,2.43600372 L46.2295377,1.59124277 L49.7348262,1.59084326 M40.7400897,1.59084326 L41.4548106,2.43560421 L37.7236,2.43560421 C37.7236,2.43560421 37.2226162,2.19490027 37.2226162,1.72507815 C37.2226162,1.68193122 37.226811,1.63758577 37.2358,1.59044375 L40.7400897,1.59084326 M50.7757458,0.360956024 C50.7855338,0.407498777 50.7889296,0.453042757 50.7889296,0.495790178 C50.7889296,0.965212788 50.2877461,1.20611648 50.2877461,1.20611648 L46.5553369,1.20611648 L47.2708568,0.361355533 L50.7751466,0.361355533 M44.6900313,1.009758 C44.4922745,1.009758 44.3776155,1.0399209 44.3138939,1.2466666 L42.2192703,1.2466666 L42.2188708,1.22229658 C42.2146759,0.793623843 42.4393995,0.38352826 42.4513848,0.363353076 C42.4661666,0.337984279 42.484544,0.313614254 42.5173037,0.313614254 L44.4689032,0.313814009 C44.6662605,0.313814009 45.1390789,0.59107298 45.1820261,1.009758 L44.6900313,1.009758 M36.6824805,1.20591672 C36.6824805,1.20591672 36.1818963,0.965013034 36.1818963,0.495790178 C36.1818963,0.452843003 36.1860911,0.407898285 36.1952798,0.36075627 L39.6985708,0.36075627 L40.4142904,1.20551721 L36.6824805,1.20591672 M44.2651539,5.23955535 L44.4834853,5.87637206 L43.8562568,5.87637206 L44.0809804,5.23955535 L44.2651539,5.23955535 M44.6814418,6.45865585 L44.7309809,6.60507576 L44.4583163,6.60507576 L44.4583163,6.73851163 L45.384577,6.73851163 L45.384577,6.60507576 L45.1145092,6.60507576 L45.0629725,6.45865585 L45.6041069,6.45865585 C45.6069035,6.46984209 45.6164917,6.52377576 45.6164917,6.60427674 C45.6164917,6.96862859 45.4143404,7.24209223 45.0925362,7.394305 L41.8740949,7.3939055 C41.4208524,7.17657282 41.3519371,6.80003596 41.3519371,6.59728534 C41.3519371,6.52037993 41.3621246,6.46824406 41.3643219,6.45865585 L41.6030283,6.45865585 C41.7736184,6.65721163 42.0053334,6.79564136 42.2857885,6.79564136 C42.6193782,6.79564136 42.6635239,6.59748509 42.8474976,6.59748509 C42.8896457,6.59748509 42.9269998,6.6372362 42.9367878,6.7395104 L43.0690251,6.7395104 L43.0690251,6.45985438 L43.5036905,6.45985438 L43.4509553,6.60607453 L43.2565944,6.60607453 L43.2565944,6.7395104 L43.7919359,6.7395104 L43.7919359,6.60587477 L43.597575,6.60587477 L43.6499106,6.45945487 L44.6814418,6.45865585 M42.3271376,4.29931185 C42.4457917,4.29931185 42.5322853,4.33327008 42.5990032,4.36563027 C42.6307642,4.38121111 42.7000789,4.42295976 42.7340371,4.42295976 C42.8047502,4.42295976 42.8355123,4.39679195 42.8506936,4.30909981 L42.9705462,4.30909981 L42.9705462,4.94591652 L44.0462231,4.94591652 L44.2955165,4.25097131 L44.5370195,4.94591652 L47.1775716,4.94591652 C47.6316131,4.7265863 47.6977318,4.37282143 47.6977318,4.16447769 C47.6977318,4.08597425 47.6887428,4.0302428 47.6871448,4.01026737 L39.2852791,4.01026737 C39.2779477,4.05126369 39.2746029,4.09287354 39.2752914,4.13451455 C39.2752914,4.33466836 39.3412103,4.72319048 39.80484,4.94631603 L41.404872,4.94631603 C41.5702686,4.59934281 41.8776904,4.29931185 42.3271376,4.29931185 M40.3253998,5.23935559 C40.3218042,5.24355043 40.3118165,5.29628557 40.3118165,5.37518852 C40.3118165,5.57494282 40.3825295,5.94588656 40.8299791,6.16182096 C41.0940543,6.1638185 41.0421182,6.16501703 41.4112641,6.16541654 C41.312985,5.9640642 41.2606494,5.74353545 41.2606494,5.54937427 C41.2606494,5.45369196 41.2734337,5.34802193 41.300001,5.24035436 L40.3253998,5.23935559 M43.7543821,6.16421801 L43.8109126,6.00501383 L44.5280305,6.00501383 L44.5819642,6.16421801 L43.7543821,6.16421801 M44.6396932,5.23955535 L46.6470242,5.23995486 C46.6482227,5.24494871 46.6572116,5.29328925 46.6572116,5.36639933 C46.6572116,5.56415609 46.5924912,5.9452873 46.1370514,6.16421801 L44.9594998,6.16421801 L44.6396932,5.23955535 M43.9417516,5.23955535 L41.7128931,5.23915584 C41.7040388,5.3420522 41.6999062,5.44530039 41.7005084,5.54857525 C41.7005084,5.73734307 41.7114949,5.96446371 41.762632,6.16461752 L42.7200543,6.16421801 L42.7200543,5.82543472 L42.5039202,5.82503521 L42.5039202,5.69199884 L43.2537978,5.69199884 L43.2537978,5.82503521 L43.0696244,5.82543472 L43.0696244,6.16421801 L43.6099597,6.16421801 L43.9417516,5.23955535"></path>
            <path d="M42.6517384,6.45865585 C42.5757297,6.58835578 42.4356975,6.66699984 42.285389,6.66440278 C42.1020145,6.66440278 41.9751705,6.58350229 41.8886769,6.45865585 L42.6517384,6.45865585 M41.7610339,4.94631603 C41.8321465,4.66745903 41.9899524,4.43294747 42.3295347,4.43294747 C42.5203,4.43294747 42.7380322,4.58436124 42.822728,4.94631603 L41.7610339,4.94631603"></path>
        </g>
    </g>
</svg>