<?xml version="1.0" encoding="utf-8"?>
<!-- Generator: Adobe Illustrator 27.6.0, SVG Export Plug-In . SVG Version: 6.00 Build 0)  -->
<svg version="1.1" id="Layer_1" xmlns="http://www.w3.org/2000/svg" xmlns:xlink="http://www.w3.org/1999/xlink" x="0px" y="0px"
	 viewBox="0 0 283.5 45.4" style="enable-background:new 0 0 283.5 45.4;" xml:space="preserve">
<style type="text/css">
	.st0{fill:#231F20;}
	.st1{fill:none;}
	.st2{clip-path:url(#SVGID_00000141449280056010957790000008938587652336274826_);fill:#231F20;}
</style>
<path class="st0" d="M11.6,36.1c-2.3-3.6-3.7-8.5-3.7-13.2c0-4.7,1.2-9,3.4-12.8l0.2-0.4c2.1-4.3,7-7.3,11.7-7.3v0
	c3.1,0,6.4,0.9,8.9,2.2c4.6,2.9,8.3,7.2,10.4,12.3V9c0-1.7-2.7-3.6-2.7-3.6C35.4,2,29.8,0.1,23.7,0.1c-2.5,0-5.9,0.6-5.9,0.6
	C7.6,2.9,0,12,0,22.8c0,11.6,8.7,21.1,19.9,22.3c0,0,2.3,0.3,3.9,0.2c6.6,0,12.6-2.3,17.3-6.2l0.6-0.7c0.6-0.7,0.9-1.7,0.9-2.7v-6.5
	c0-1.9,0.9-3.6,2.4-4.7H32.9c1.4,1,2.4,2.7,2.4,4.7l0.1,6c0,1.2-0.5,2.3-1.3,3.1c-1,1.1-4.8,3-4.8,3c-1.8,1-3.9,1.5-6.1,1.5
	C18.2,43.1,13.8,40.3,11.6,36.1L11.6,36.1"/>
<path class="st0" d="M134.4,22.7c0,10.8,7.6,19.7,17.8,21.9c0,0,3.4,0.6,5.9,0.6c6.1,0,11.6-1.9,16.1-5.2c0,0,2.8-1.7,2.8-3.5
	l1.1-8.2c-3.1,7.8-8.4,10.7-11.4,12.4c-2.6,1.3-5.9,2.3-8.9,2.3v0c-4.7,0-9.5-2.7-11.7-7l-0.3-0.4c-2.1-3.8-3.4-8.2-3.4-12.8
	s1.2-9,3.4-12.8l0.2-0.4c2.1-4.3,7-7.3,11.7-7.3v0c3.1,0,6.4,0.9,8.9,2.2c4.6,2.9,8.3,7.2,10.4,12.3V8.9c0-1.7-2.7-3.7-2.7-3.7
	C169.8,1.9,164.2,0,158.1,0c-2.5,0-5.9,0.6-5.9,0.6C142,2.8,134.4,11.9,134.4,22.7"/>
<rect class="st1" width="283.4" height="45.4"/>
<path class="st0" d="M204.6,22.7c0,10.8,7.6,19.7,17.8,21.9c0,0,3.4,0.6,5.9,0.6c6.1,0,11.6-1.9,16.1-5.2c0,0,2.8-1.7,2.8-3.5
	l1.1-8.2c-3.1,7.8-8.4,10.7-11.4,12.4c-2.6,1.3-5.9,2.3-8.9,2.3v0c-4.7,0-9.5-2.7-11.7-7l-0.3-0.4c-2.1-3.8-3.4-8.2-3.4-12.8
	c0-4.7,1.2-9,3.4-12.8l0.2-0.4c2.1-4.3,7-7.3,11.7-7.3v0c3.1,0,6.4,0.9,8.9,2.2c4.6,2.9,8.3,7.2,10.4,12.3V9c0-1.7-2.7-3.6-2.7-3.6
	C240,2,234.4,0,228.3,0c-2.5,0-5.9,0.6-5.9,0.6C212.2,2.8,204.6,11.9,204.6,22.7"/>
<g>
	<defs>
		<rect id="SVGID_1_" width="283.4" height="45.4"/>
	</defs>
	<clipPath id="SVGID_00000168110248909275667480000002426025722396054698_">
		<use xlink:href="#SVGID_1_"  style="overflow:visible;"/>
	</clipPath>
	<path style="clip-path:url(#SVGID_00000168110248909275667480000002426025722396054698_);fill:#231F20;" d="M283.5,2h-11.7
		c1.4,1,2.4,2.7,2.4,4.6v34.2c0,1.8-0.9,3.5-2.3,4.5h11.5c-1.4-1-2.3-2.6-2.3-4.5V6.5C281.1,4.6,282,3,283.5,2"/>
</g>
<path class="st0" d="M80.8,2H69.1c1.4,1,2.4,2.7,2.4,4.6l0,0v25.6c0.4,4.7,3.3,8.6,7.4,10.5l0,0c3.3,1.6,7,2.6,11,2.6
	c4,0,7.8-0.9,11.2-2.5l0.1,0c4.1-1.9,7-5.8,7.4-10.5l0,0V6.5c0-1.9,0.9-3.5,2.4-4.5H104c1.4,1,2.4,2.6,2.4,4.5v25.7l0,0.1
	c-0.3,2.8-1.7,5.3-3.7,7l-0.1,0.1c-2.3,1.8-6.4,3.2-10.2,3.2c-2.4,0-4.7-0.5-6.8-1.3l-0.2-0.1c-3.8-1.3-6.5-4.8-7-8.9l0-0.1V6.6l0,0
	C78.4,4.7,79.3,3,80.8,2"/>
</svg>
