<?xml version="1.0" encoding="UTF-8"?>
<svg width="23px" height="18px" viewBox="0 0 23 18" version="1.1" xmlns="http://www.w3.org/2000/svg" xmlns:xlink="http://www.w3.org/1999/xlink">
    <title>JCB</title>
    <defs>
        <linearGradient x1="-57.5274194%" y1="50.1341146%" x2="232.38871%" y2="50.1341146%" id="linearGradient-1">
            <stop stop-color="#007940" offset="0%"></stop>
            <stop stop-color="#00873F" offset="22.9%"></stop>
            <stop stop-color="#40A737" offset="74.3%"></stop>
            <stop stop-color="#5CB531" offset="100%"></stop>
        </linearGradient>
        <linearGradient x1="0.180400891%" y1="49.9600137%" x2="100.272829%" y2="49.9600137%" id="linearGradient-2">
            <stop stop-color="#007940" offset="0%"></stop>
            <stop stop-color="#00873F" offset="22.9%"></stop>
            <stop stop-color="#40A737" offset="74.3%"></stop>
            <stop stop-color="#5CB531" offset="100%"></stop>
        </linearGradient>
        <linearGradient x1="-62.8019366%" y1="49.8622159%" x2="253.671655%" y2="49.8622159%" id="linearGradient-3">
            <stop stop-color="#007940" offset="0%"></stop>
            <stop stop-color="#00873F" offset="22.9%"></stop>
            <stop stop-color="#40A737" offset="74.3%"></stop>
            <stop stop-color="#5CB531" offset="100%"></stop>
        </linearGradient>
        <linearGradient x1="0.17344098%" y1="50.0058486%" x2="101.806793%" y2="50.0058486%" id="linearGradient-4">
            <stop stop-color="#1F286F" offset="0%"></stop>
            <stop stop-color="#004E94" offset="47.5%"></stop>
            <stop stop-color="#0066B1" offset="82.6%"></stop>
            <stop stop-color="#006FBC" offset="100%"></stop>
        </linearGradient>
        <linearGradient x1="-0.575723831%" y1="49.9142628%" x2="98.1311247%" y2="49.9142628%" id="linearGradient-5">
            <stop stop-color="#6C2C2F" offset="0%"></stop>
            <stop stop-color="#882730" offset="17.3%"></stop>
            <stop stop-color="#BE1833" offset="57.3%"></stop>
            <stop stop-color="#DC0436" offset="85.9%"></stop>
            <stop stop-color="#E60039" offset="100%"></stop>
        </linearGradient>
    </defs>
    <g id="Desktop---Prototype---V-10" stroke="none" stroke-width="1" fill="none" fill-rule="evenodd">
        <g id="Empty-cart-A" transform="translate(-1315.000000, -533.000000)" fill-rule="nonzero">
            <g id="Group-28" transform="translate(160.000000, 431.000000)">
                <g id="Group-76" transform="translate(977.000000, 101.000000)">
                    <g id="Group-71-Copy-3" transform="translate(171.000000, 0.000000)">
                        <g id="JCB" transform="translate(7.000000, 1.000000)">
                            <path d="M22.7027027,13.9722222 C22.7027027,15.9166667 21.1207295,17.5 19.1779555,17.5 L0,17.5 L0,3.52777778 C0,1.58333333 1.58197317,0 3.52474724,0 L22.7027027,0 L22.7027027,13.9722222 Z" id="Path" fill="#FFFFFF"></path>
                            <path d="M16.0810811,10.4054054 L17.6830863,10.4054054 C17.7288579,10.4054054 17.8356582,10.390625 17.8814298,10.390625 C18.1865737,10.3315034 18.4459459,10.0654561 18.4459459,9.69594595 C18.4459459,9.34121622 18.1865737,9.07516892 17.8814298,9.00126689 C17.8356582,8.98648649 17.7441151,8.98648649 17.6830863,8.98648649 L16.0810811,8.98648649 L16.0810811,10.4054054 Z" id="Path" fill="url(#linearGradient-1)"></path>
                            <path d="M17.6411545,1.41891892 C16.271745,1.41891892 15.1488292,2.54260906 15.1488292,3.94375356 L15.1488292,6.56569723 L18.6682116,6.56569723 C18.7503762,6.56569723 18.8462349,6.56569723 18.9147054,6.57956995 C19.7089629,6.6211881 20.2978089,7.03736963 20.2978089,7.75875096 C20.2978089,8.32753239 19.9006802,8.81307751 19.1611991,8.91018654 L19.1611991,8.93793197 C19.9691507,8.99342285 20.5853849,9.45122253 20.5853849,10.1587311 C20.5853849,10.9217306 19.9006802,11.4211485 18.9968699,11.4211485 L15.1351351,11.4211485 L15.1351351,16.5540541 L18.7914585,16.5540541 C20.160868,16.5540541 21.2837838,15.4303639 21.2837838,14.0292194 L21.2837838,1.41891892 L17.6411545,1.41891892 L17.6411545,1.41891892 Z" id="Path" fill="url(#linearGradient-2)"></path>
                            <path d="M18.4459459,7.80405405 C18.4459459,7.41707617 18.1628283,7.15909091 17.8297488,7.11071867 C17.7964408,7.11071867 17.7131709,7.09459459 17.663209,7.09459459 L16.0810811,7.09459459 L16.0810811,8.51351351 L17.663209,8.51351351 C17.7131709,8.51351351 17.8130948,8.51351351 17.8297488,8.49738943 C18.1628283,8.4490172 18.4459459,8.19103194 18.4459459,7.80405405 L18.4459459,7.80405405 Z" id="Path" fill="url(#linearGradient-3)"></path>
                            <path d="M3.9249383,1.41891892 C2.5555288,1.41891892 1.43261301,2.54363997 1.43261301,3.94606992 L1.43261301,10.1806348 C2.13101186,10.5277709 2.85679889,10.749938 3.58258593,10.749938 C4.44531391,10.749938 4.91091314,10.2222911 4.91091314,9.50024795 L4.91091314,6.5565336 L7.04719196,6.5565336 L7.04719196,9.48636251 C7.04719196,10.624969 6.34879311,11.5552938 3.97971468,11.5552938 C2.54183471,11.5552938 1.41891892,11.2359286 1.41891892,11.2359286 L1.41891892,16.5540541 L5.07524228,16.5540541 C6.44465178,16.5540541 7.56756757,15.429333 7.56756757,14.026903 L7.56756757,1.41891892 L3.9249383,1.41891892 Z" id="Path" fill="url(#linearGradient-4)"></path>
                            <path d="M10.5328658,1.41891892 C9.16345633,1.41891892 8.04054054,2.54158004 8.04054054,3.94144144 L8.04054054,7.24012474 C8.67046891,6.6995842 9.76599651,6.35308385 11.5325348,6.43624394 C12.4774273,6.47782398 13.4907903,6.74116424 13.4907903,6.74116424 L13.4907903,7.80838531 C12.9841088,7.54504505 12.3815687,7.30942481 11.6010052,7.25398475 C10.2589839,7.15696466 9.45103232,7.82224532 9.45103232,8.98648649 C9.45103232,10.1645877 10.2589839,10.8298683 11.6010052,10.7189882 C12.3815687,10.6635482 12.9841088,10.4140679 13.4907903,10.1645877 L13.4907903,11.2318087 C13.4907903,11.2318087 12.4911214,11.495149 11.5325348,11.536729 C9.76599651,11.6198891 8.67046891,11.2733888 8.04054054,10.7328482 L8.04054054,16.5540541 L11.6968639,16.5540541 C13.0662734,16.5540541 14.1891892,15.4313929 14.1891892,14.0315315 L14.1891892,1.41891892 L10.5328658,1.41891892 Z" id="Path" fill="url(#linearGradient-5)"></path>
                        </g>
                    </g>
                </g>
            </g>
        </g>
    </g>
</svg>