<?xml version="1.0" encoding="UTF-8"?>
<svg width="25px" height="20px" viewBox="0 0 25 20" version="1.1" xmlns="http://www.w3.org/2000/svg" xmlns:xlink="http://www.w3.org/1999/xlink">
    <title>Mastercard</title>
    <g id="Desktop---Prototype---V-10" stroke="none" stroke-width="1" fill="none" fill-rule="evenodd">
        <g id="Empty-cart-A" transform="translate(-1200.000000, -532.000000)">
            <g id="Group-28" transform="translate(160.000000, 431.000000)">
                <g id="Group-76" transform="translate(977.000000, 101.000000)">
                    <g id="Group-71-Copy" transform="translate(57.000000, 0.000000)">
                        <g id="Mastercard" transform="translate(6.000000, 0.000000)">
                            <polygon id="Path" points="0 0 24.5 0 24.5 20 0 20"></polygon>
                            <path d="M5.99760265,17.4100719 L5.99760265,16.3309352 C6.00925704,16.1473372 5.94798205,15.9671419 5.82941005,15.8363205 C5.71083806,15.7054991 5.54643548,15.6367025 5.37814447,15.647482 C5.1563643,15.6316093 4.94424854,15.7487705 4.8245861,15.9532374 C4.7154883,15.7548668 4.51572661,15.637546 4.30397763,15.647482 C4.11960931,15.637307 3.94409246,15.734481 3.84267899,15.9028777 L3.84267899,15.6906475 L3.5,15.6906475 L3.5,17.4100719 L3.84597398,17.4100719 L3.84597398,16.4640287 C3.83107377,16.3449802 3.86562492,16.2248844 3.94019872,16.1365143 C4.01477252,16.0481442 4.12158496,16.000724 4.23148785,16.0071942 C4.45884218,16.0071942 4.57416684,16.1690647 4.57416684,16.4604316 L4.57416684,17.4172661 L4.92014082,17.4172661 L4.92014082,16.4640287 C4.90585202,16.3451156 4.94061444,16.2254089 5.01504998,16.1372026 C5.08948551,16.0489964 5.19592543,16.0013782 5.30565468,16.0071942 C5.53959899,16.0071942 5.65162867,16.1690647 5.65162867,16.4604316 L5.65162867,17.4172661 L5.99760265,17.4100719 Z M11.1163701,15.6906475 L10.5529267,15.6906475 L10.5529267,15.1690647 L10.2069528,15.1690647 L10.2069528,15.6906475 L9.89392867,15.6906475 L9.89392867,16.0323741 L10.2135427,16.0323741 L10.2135427,16.823741 C10.2135427,17.2230215 10.3552273,17.4604366 10.7605111,17.4604366 C10.9119256,17.4609869 11.0604059,17.4148521 11.1888599,17.3273381 L11.0900102,17.0071942 C10.9981134,17.0670341 10.893815,17.1004501 10.786871,17.1043165 C10.6221215,17.1043165 10.5595167,16.9892086 10.5595167,16.8165467 L10.5595167,16.0323741 L11.1196651,16.0323741 L11.1163701,15.6906475 Z M14.0390265,15.647482 C13.8688266,15.6420175 13.7095246,15.7386336 13.6238577,15.8992806 L13.6238577,15.6906475 L13.2844737,15.6906475 L13.2844737,17.4100719 L13.6271527,17.4100719 L13.6271527,16.4460431 C13.6271527,16.1618705 13.7391824,16.0035971 13.9566517,16.0035971 C14.0299462,16.0025026 14.1027211,16.0171699 14.1708261,16.0467626 L14.2762658,15.6870503 C14.1980051,15.6564863 14.1155534,15.6406734 14.0324365,15.6402878 L14.0390265,15.647482 Z M9.62044448,15.8273381 C9.42647252,15.7014347 9.2034552,15.6390073 8.97792137,15.647482 C8.57922755,15.647482 8.31892331,15.8561151 8.31892331,16.1978417 C8.31892331,16.4784172 8.51003275,16.6510791 8.86259671,16.7050359 L9.02734623,16.7302158 C9.21516067,16.7589928 9.30412541,16.8129496 9.30412541,16.9100719 C9.30412541,17.0431654 9.17891578,17.118705 8.94497147,17.118705 C8.75679498,17.1246514 8.57225917,17.0613003 8.42106801,16.9388489 L8.2563185,17.2302158 C8.45593129,17.3823724 8.69501708,17.4605489 8.93838149,17.4532374 C9.39309015,17.4532374 9.65668937,17.2194244 9.65668937,16.8920863 C9.65668937,16.5647482 9.44910498,16.4316546 9.10642599,16.3776978 L8.94167648,16.352518 C8.79340192,16.3309352 8.67478226,16.2985611 8.67478226,16.1834532 C8.67478226,16.0683453 8.78681193,15.9820144 8.97462638,15.9820144 C9.14821892,15.9842158 9.31839204,16.0349949 9.46887493,16.1294964 L9.62044448,15.8273381 Z M18.79864,15.647482 C18.6284401,15.6420175 18.4691381,15.7386336 18.3834712,15.8992806 L18.3834712,15.6906475 L18.0440872,15.6906475 L18.0440872,17.4100719 L18.3867662,17.4100719 L18.3867662,16.4460431 C18.3867662,16.1618705 18.4987958,16.0035971 18.7162652,16.0035971 C18.7895597,16.0025026 18.8623346,16.0171699 18.9304396,16.0467626 L19.0358793,15.6870503 C18.9576186,15.6564863 18.8751669,15.6406734 18.79205,15.6402878 L18.79864,15.647482 Z M14.383353,16.5467626 C14.3751118,16.7910854 14.4615604,17.0278889 14.6214792,17.1990483 C14.7813981,17.3702076 14.999981,17.4598758 15.2235755,17.4460431 C15.4293276,17.4574711 15.6315338,17.3843165 15.7903138,17.2410071 L15.6255643,16.9388489 C15.5071046,17.037466 15.3626542,17.0917133 15.2136905,17.0935251 C14.9510305,17.0703243 14.7486996,16.830847 14.7486996,16.5431654 C14.7486996,16.2554839 14.9510305,16.0160066 15.2136905,15.9928057 C15.3626542,15.9946176 15.5071046,16.0488649 15.6255643,16.147482 L15.7903138,15.8453237 C15.6315338,15.7020144 15.4293276,15.6288597 15.2235755,15.6402878 C14.999981,15.6264551 14.7813981,15.7161233 14.6214792,15.8872826 C14.4615604,16.058442 14.3751118,16.2952455 14.383353,16.5395683 L14.383353,16.5467626 Z M17.5926735,16.5467626 L17.5926735,15.6906475 L17.2499945,15.6906475 L17.2499945,15.8992806 C17.1319356,15.7334442 16.9480047,15.6397393 16.755746,15.647482 C16.3008027,15.647482 15.9319984,16.0501036 15.9319984,16.5467626 C15.9319984,17.0434215 16.3008027,17.4460431 16.755746,17.4460431 C16.9480047,17.4537858 17.1319356,17.3600809 17.2499945,17.1942446 L17.2499945,17.4028776 L17.5926735,17.4028776 L17.5926735,16.5467626 Z M16.3175123,16.5467626 C16.3327508,16.2645087 16.5518589,16.0473216 16.8106719,16.0579267 C17.0694849,16.0685317 17.2730631,16.3030387 17.2688774,16.5857454 C17.2646918,16.8684522 17.0542776,17.0956541 16.7952859,17.0971223 C16.6634103,17.0989439 16.5368308,17.0405535 16.4461095,16.9360493 C16.3553882,16.8315451 16.3087706,16.6904252 16.3175123,16.5467626 L16.3175123,16.5467626 Z M12.1822994,15.647482 C11.7273562,15.6544352 11.3637151,16.0626935 11.3700843,16.5593525 C11.3764535,17.0560114 11.7504211,17.4529963 12.2053644,17.4460431 C12.442396,17.4593253 12.6754945,17.3759968 12.8594199,17.2122302 L12.6946704,16.9352518 C12.564578,17.0491508 12.4034101,17.1124407 12.2366668,17.1151079 C12.0011353,17.1372212 11.7922682,16.9506601 11.7654832,16.6942446 L12.9352047,16.6942446 L12.9352047,16.5503597 C12.9352047,16.0107913 12.6287706,15.6510791 12.1872419,15.6510791 L12.1822994,15.647482 Z M12.1822994,15.9820144 C12.2858615,15.979604 12.3860567,16.0222176 12.4608314,16.1004755 C12.5356061,16.1787334 12.5788314,16.2862214 12.5809933,16.3992805 L11.7572457,16.3992805 C11.769656,16.1591409 11.9555181,15.9738106 12.1757095,15.9820144 L12.1822994,15.9820144 Z M20.7673967,16.5503597 L20.7673967,15 L20.4378976,15 L20.4378976,15.8992806 C20.3198387,15.7334442 20.1359079,15.6397393 19.9436491,15.647482 C19.4887059,15.647482 19.1199015,16.0501036 19.1199015,16.5467626 C19.1199015,17.0434215 19.4887059,17.4460431 19.9436491,17.4460431 C20.1359079,17.4537858 20.3198387,17.3600809 20.4378976,17.1942446 L20.4378976,17.4028776 L20.7673967,17.4028776 L20.7673967,16.5503597 Z M21.3390775,17.1600719 C21.360497,17.1597854 21.3817622,17.1640619 21.4016823,17.1726618 C21.4206026,17.1810906 21.4379214,17.1932885 21.4527546,17.208633 C21.467231,17.2241405 21.4789601,17.2424327 21.487352,17.2625899 C21.504216,17.3050444 21.504216,17.3532289 21.487352,17.3956834 C21.4789601,17.4158405 21.467231,17.4341328 21.4527546,17.4496402 C21.4379214,17.4649847 21.4206026,17.4771827 21.4016823,17.4856115 C21.3819589,17.4951124 21.3606356,17.5000131 21.3390775,17.5 C21.2753276,17.4994754 21.2175768,17.4588456 21.1908029,17.3956834 C21.1741342,17.3531849 21.1741342,17.3050884 21.1908029,17.2625899 C21.1991948,17.2424327 21.2109239,17.2241405 21.2254003,17.208633 C21.2402336,17.1932885 21.2575524,17.1810906 21.2764727,17.1726618 C21.2979313,17.1633432 21.3209448,17.1590538 21.34402,17.1600719 L21.3390775,17.1600719 Z M21.3390775,17.4640287 C21.355521,17.4641378 21.3718009,17.4604607 21.3868548,17.4532374 C21.4010293,17.4463286 21.4138844,17.436566 21.4247472,17.4244604 C21.4674663,17.3735778 21.4674663,17.2954868 21.4247472,17.2446043 C21.4139102,17.2324653 21.401049,17.2226979 21.3868548,17.2158273 C21.371786,17.2086549 21.3555162,17.20498 21.3390775,17.2050353 C21.322653,17.2051307 21.3064106,17.2087993 21.2913001,17.2158273 C21.2764981,17.2224532 21.2630558,17.2322365 21.2517602,17.2446043 C21.2090412,17.2954868 21.2090412,17.3735778 21.2517602,17.4244604 C21.2630836,17.4367912 21.2765187,17.4465693 21.2913001,17.4532374 C21.3079217,17.4610625 21.3259308,17.4647489 21.34402,17.4640287 L21.3390775,17.4640287 Z M21.3489624,17.25 C21.364342,17.2491857 21.3794973,17.2542765 21.3917973,17.2643884 C21.4020287,17.2736323 21.4075493,17.2876949 21.4066248,17.3021582 C21.407103,17.3142365 21.4029196,17.3259802 21.3950923,17.3345323 C21.3855431,17.344001 21.3733613,17.3497005 21.3604949,17.3507194 L21.4082723,17.4100719 L21.3703799,17.4100719 L21.3258975,17.3507194 L21.3110701,17.3507194 L21.3110701,17.4100719 L21.2797677,17.4100719 L21.2797677,17.2517985 L21.3489624,17.25 Z M21.3127176,17.2805755 L21.3127176,17.323741 L21.3489624,17.323741 C21.3554122,17.3258402 21.3622827,17.3258402 21.3687324,17.323741 C21.3710822,17.3186502 21.3710822,17.3126447 21.3687324,17.3075539 C21.3710822,17.3024631 21.3710822,17.2964576 21.3687324,17.2913669 C21.3622827,17.2892676 21.3554122,17.2892676 21.3489624,17.2913669 L21.3127176,17.2805755 Z M19.5004729,16.5503597 C19.5157114,16.2681058 19.7348195,16.0509188 19.9936325,16.0615238 C20.2524456,16.0721289 20.4560237,16.3066358 20.4518381,16.5893426 C20.4476524,16.8720493 20.2372383,17.0992512 19.9782465,17.1007194 C19.8463709,17.102541 19.7197915,17.0441507 19.6290701,16.9396464 C19.5383488,16.8351422 19.4917312,16.6940224 19.5004729,16.5503597 L19.5004729,16.5503597 Z M7.93011446,16.5503597 L7.93011446,15.6906475 L7.58743547,15.6906475 L7.58743547,15.8992806 C7.46937651,15.7334442 7.2854457,15.6397393 7.09318692,15.647482 C6.6382437,15.647482 6.26943935,16.0501036 6.26943935,16.5467626 C6.26943935,17.0434215 6.6382437,17.4460431 7.09318692,17.4460431 C7.2854457,17.4537858 7.46937651,17.3600809 7.58743547,17.1942446 L7.58743547,17.4028776 L7.93011446,17.4028776 L7.93011446,16.5503597 Z M6.65495321,16.5503597 C6.67019172,16.2681058 6.88929982,16.0509188 7.14811285,16.0615238 C7.40692587,16.0721289 7.61050406,16.3066358 7.60631839,16.5893426 C7.60213271,16.8720493 7.39171858,17.0992512 7.1327268,17.1007194 C7.00028294,17.1035579 6.87282224,17.0456127 6.78137024,16.9409884 C6.68991824,16.836364 6.64286295,16.6946566 6.65165822,16.5503597 L6.65495321,16.5503597 Z" id="Shape" fill="#231F20" fill-rule="nonzero"></path>
                            <g id="_Group_" transform="translate(2.500000, 2.500000)" fill-rule="nonzero">
                                <polygon id="Path" fill="#FF5F00" points="7.11317109 1.28308441 12.3859429 1.28308441 12.3859429 10.7169156 7.11317109 10.7169156"></polygon>
                                <path d="M7.44795025,6.00083323 C7.44597885,4.15964339 8.29474799,2.41986761 9.74955698,1.28308441 C7.27885168,-0.650000788 3.7308198,-0.368430212 1.59892277,1.92991591 C-0.532974256,4.22826202 -0.532974256,7.77173798 1.59892277,10.0700841 C3.7308198,12.3684302 7.27885168,12.6500008 9.74955698,10.7169156 C8.29521082,9.58049327 7.44649352,7.84143827 7.44795025,6.00083323 L7.44795025,6.00083323 Z" id="_Path_" fill="#EB001B"></path>
                                <path d="M19.5,6.00083323 C19.5,8.29777871 18.1825471,10.3930641 16.107307,11.3968137 C14.032067,12.4005632 11.5633218,12.1365555 9.74955698,10.7169156 C11.2032686,9.57952848 12.0520497,7.84070469 12.0520497,6 C12.0520497,4.15929531 11.2032686,2.42047152 9.74955698,1.28308441 C11.5633218,-0.136555504 14.032067,-0.400563227 16.107307,0.603186335 C18.1825471,1.6069359 19.5,3.70222129 19.5,5.99916677 L19.5,6.00083323 Z M18.9241798,9.71703947 L18.9241798,9.52373009 L19.0028529,9.52373009 L19.0028529,9.48373504 L18.8036593,9.48373504 L18.8036593,9.52373009 L18.889028,9.52373009 L18.889028,9.71703947 L18.9241798,9.71703947 Z M19.3108498,9.71703947 L19.3108498,9.48373504 L19.2505895,9.48373504 L19.1802859,9.65038106 L19.1099823,9.48373504 L19.0564176,9.48373504 L19.0564176,9.71703947 L19.0999389,9.71703947 L19.0999389,9.54206115 L19.1652208,9.69370903 L19.210416,9.69370903 L19.275698,9.54206115 L19.275698,9.71870593 L19.3108498,9.71703947 Z" id="Shape" fill="#F79E1B"></path>
                            </g>
                        </g>
                    </g>
                </g>
            </g>
        </g>
    </g>
</svg>