<?xml version="1.0" encoding="UTF-8"?>
<svg width="33px" height="8px" viewBox="0 0 33 8" version="1.1" xmlns="http://www.w3.org/2000/svg" xmlns:xlink="http://www.w3.org/1999/xlink">
    <title>paypal</title>
    <g id="Desktop---Prototype---V-10" stroke="none" stroke-width="1" fill="none" fill-rule="evenodd">
        <g id="Empty-cart-A" transform="translate(-1539.000000, -538.000000)" fill-rule="nonzero">
            <g id="Group-28" transform="translate(160.000000, 431.000000)">
                <g id="Group-76" transform="translate(977.000000, 101.000000)">
                    <g id="Group-71-Copy-7" transform="translate(400.000000, 0.000000)">
                        <g id="paypal" transform="translate(2.000000, 6.000000)">
                            <path d="M12.2988837,2.00000005 L10.4846614,2.00000005 C10.360576,1.99992454 10.2548985,2.08705918 10.2355673,2.20538657 L9.501814,6.69648692 C9.49498724,6.73866286 9.50762625,6.78161021 9.53640325,6.81402117 C9.56518024,6.84643212 9.60721122,6.86505848 9.65142964,6.86499617 L10.5175556,6.86499617 C10.641727,6.86505179 10.7474359,6.77778261 10.7666498,6.65935346 L10.9645456,5.44803426 C10.983744,5.32970095 11.0893036,5.24246205 11.2133745,5.2423917 L11.7876969,5.2423917 C12.9827651,5.2423917 13.6724826,4.68410928 13.852605,3.57778816 C13.9337794,3.09377267 13.8560536,2.71347479 13.6212844,2.44713822 C13.3634361,2.15468018 12.9061004,2.00000005 12.2988837,2.00000005 L12.2988837,2.00000005 Z M12.5081864,3.64027482 C12.4089732,4.26872668 11.9115808,4.26872668 11.4306355,4.26872668 L11.1568707,4.26872668 L11.3489305,3.09505314 C11.3605464,3.02411539 11.4238869,2.97187247 11.4982809,2.97187247 L11.6237564,2.97187247 C11.9513722,2.97187247 12.2604187,2.97187247 12.4201148,3.15216184 C12.5153489,3.25972084 12.5445292,3.41952278 12.5081864,3.64027482 L12.5081864,3.64027482 Z M17.7219201,3.62004348 L16.8531414,3.62004348 C16.7787475,3.6200446 16.7154069,3.6722864 16.703791,3.74322414 L16.665326,3.9778052 L16.6045778,3.89278237 C16.4164971,3.62926283 15.9970958,3.54116688 15.5784904,3.54116688 C14.6184567,3.54116688 13.7984887,4.24311739 13.6387926,5.22779441 C13.5557612,5.7189805 13.673809,6.18865479 13.9624292,6.51619755 C14.2271747,6.81736275 14.6059887,6.94284824 15.0566926,6.94284824 C15.8302373,6.94284824 16.2591885,6.46267415 16.2591885,6.46267415 L16.2204582,6.69571864 C16.2134738,6.73788597 16.2259662,6.78089124 16.2546441,6.81340402 C16.2833219,6.84591679 16.3253091,6.86467626 16.3695433,6.86473992 L17.1521074,6.86473992 C17.2762788,6.8647957 17.3819876,6.77752652 17.4012015,6.65909736 L17.8707399,3.78855258 C17.8777342,3.74647773 17.8652653,3.70355816 17.8366269,3.67113088 C17.8079886,3.63870359 17.7660614,3.62003031 17.7219201,3.62004348 L17.7219201,3.62004348 Z M16.5109354,5.25237932 C16.4271082,5.73152905 16.0331734,6.05318167 15.5307407,6.05318167 C15.2784633,6.05318167 15.0768535,5.97507335 14.9473989,5.82705169 C14.8190053,5.68005439 14.7701945,5.47082653 14.811047,5.23778203 C14.8893034,4.76272979 15.2898701,4.43057736 15.7846098,4.43057736 C16.0313164,4.43057736 16.2318651,4.50971005 16.3639725,4.65901219 C16.4963452,4.80985088 16.5488698,5.0203592 16.5109354,5.25237932 L16.5109354,5.25237932 Z M22.3488634,3.62004297 L21.4758402,3.62004297 C21.3922513,3.62017122 21.3141196,3.66013701 21.267068,3.7268342 L20.0629805,5.43907101 L19.5525895,3.79367444 C19.5204211,3.69063317 19.4221362,3.62009548 19.3106578,3.62004297 L18.4527554,3.62004297 C18.4038947,3.61991805 18.3579827,3.64259324 18.3294983,3.68091809 C18.3010139,3.71924295 18.2934683,3.76849337 18.3092411,3.81313749 L19.2708665,6.53745326 L18.366806,7.76951597 C18.3340518,7.81404872 18.3297894,7.872508 18.3557586,7.92103113 C18.3817279,7.96955425 18.4335839,7.99999977 18.4901593,7.99999977 L19.3621214,7.99999977 C19.4447599,8.00010942 19.5221919,7.96105871 19.5693019,7.89551365 L22.4730126,3.84924659 C22.5050906,3.80462777 22.5088559,3.74650521 22.4827863,3.69837576 C22.4567167,3.65024631 22.4051233,3.62004297 22.3488634,3.62004297 L22.3488634,3.62004297 Z" id="Shape" fill="#253B80"></path>
                            <path d="M24.8301334,2.00025904 L22.9954165,2.00025904 C22.8700492,2.00031012 22.7633444,2.08841711 22.7438135,2.20800953 L22.0018797,6.75080303 C21.994896,6.79339097 22.0075728,6.83679655 22.0365704,6.86958388 C22.065568,6.90237121 22.107978,6.92125168 22.1526269,6.92125168 L23.0941264,6.92125168 C23.1818746,6.92112744 23.2564965,6.85938928 23.2700875,6.77567091 L23.4806508,5.48798052 C23.5000632,5.36828517 23.6067997,5.28004214 23.7322538,5.27997099 L24.312711,5.27997099 C25.5213711,5.27997099 26.2185098,4.71526267 26.4009086,3.59620765 C26.4832563,3.10662108 26.4041274,2.72194591 26.1667408,2.45254378 C25.9062861,2.15671951 25.4441198,2.00025904 24.8301334,2.00025904 L24.8301334,2.00025904 Z M25.0417696,3.65941353 C24.9417185,4.29509895 24.4387808,4.29509895 23.9522053,4.29509895 L23.6756565,4.29509895 L23.8701258,3.10791628 C23.8816449,3.03614543 23.9456678,2.98322799 24.020873,2.98331768 L24.1477475,2.98331768 C24.4787476,2.98331768 24.7915078,2.98331768 24.9529843,3.16568231 C25.0492801,3.27447933 25.0785176,3.43612061 25.0417696,3.65941353 L25.0417696,3.65941353 Z M30.313362,3.63894933 L29.4354338,3.63894933 C29.3601866,3.63874944 29.2960996,3.69171991 29.2846866,3.76354782 L29.2457928,4.00082893 L29.1840991,3.91482748 C28.9939216,3.64827479 28.5701127,3.55916485 28.1468403,3.55916485 C27.1761033,3.55916485 26.3472619,4.2691949 26.1857854,5.26520568 C26.1020965,5.76204538 26.2209239,6.23712569 26.512762,6.5684385 C26.7809954,6.87307015 27.1634964,7 27.619225,7 C28.4013938,7 28.8351273,6.51429904 28.8351273,6.51429904 L28.7959653,6.7500259 C28.7888881,6.79276798 28.8015881,6.83635636 28.8307063,6.86926303 C28.8598244,6.90216969 28.9024278,6.92108 28.9472489,6.92099264 L29.7382694,6.92099264 C29.8637236,6.92092149 29.9704601,6.83267846 29.9898724,6.71298311 L30.4649139,3.80939799 C30.4717288,3.76670797 30.4588801,3.72327411 30.4297423,3.69050315 C30.4006045,3.65773218 30.3580892,3.63889889 30.313362,3.63894933 L30.313362,3.63894933 Z M29.0888762,5.29007357 C29.0046509,5.77473837 28.6057877,6.10009325 28.0977535,6.10009325 C27.8432,6.10009325 27.6388061,6.0210859 27.5079081,5.87136048 C27.3780831,5.72267123 27.3292646,5.51103513 27.3700361,5.27530826 C27.4497015,4.7947881 27.8541975,4.45881256 28.354453,4.45881256 C28.6039101,4.45881256 28.8066946,4.53885608 28.9402749,4.6898767 C29.0746598,4.84245156 29.1277701,5.05538286 29.0888762,5.29007357 L29.0888762,5.29007357 Z M31.3490114,2.12485753 L30.5960801,6.75080303 C30.5890963,6.79339097 30.6017732,6.83679655 30.6307708,6.86958388 C30.6597684,6.90237121 30.7021784,6.92125168 30.7468273,6.92125168 L31.5037821,6.92125168 C31.6295836,6.92125168 31.7363406,6.83317791 31.7556534,6.71324215 L32.4981236,2.1707077 C32.5050989,2.12809532 32.4924272,2.0846683 32.4634398,2.0518426 C32.4344523,2.01901689 32.3920489,2.00007635 32.3473764,2 L31.4997586,2 C31.4245918,2.00025704 31.360727,2.05315352 31.3490114,2.12485753 L31.3490114,2.12485753 Z" id="Shape" fill="#179BD7"></path>
                            <path d="M2.08494741,7.5 L2.21853766,6.61429093 L1.92096091,6.60709221 L0.5,6.60709221 L1.48749504,0.0714551407 C1.49357132,0.030181395 1.52769497,-0.000218989741 1.56770027,0 L3.96364011,0 C4.75905127,0 5.30797182,0.172770446 5.59456505,0.513776436 C5.72892159,0.673747971 5.81449087,0.840918225 5.85587064,1.02488549 C5.89929386,1.21791781 5.90006015,1.44854344 5.85765866,1.72982672 L5.85459349,1.7503564 L5.85459349,1.930591 L5.98895003,2.01004353 C6.09152002,2.06428456 6.18371608,2.13765771 6.26098371,2.22653834 C6.37592752,2.363314 6.45025785,2.53714974 6.48167583,2.7432464 C6.51411552,2.95520868 6.50338743,3.20743047 6.45025785,3.49297966 C6.38895449,3.82145455 6.28984738,4.10753698 6.1560017,4.34162866 C6.03790788,4.55133704 5.87912605,4.73296652 5.6898407,4.87486711 C5.51206094,5.006577 5.30081976,5.10655921 5.06199207,5.17054783 C4.83057187,5.23346996 4.56671197,5.26519765 4.277309,5.26519765 L4.0908446,5.26519765 C3.95750978,5.26519765 3.82800642,5.31532207 3.72634501,5.40517275 C3.62482773,5.49598215 3.55748349,5.62145333 3.53630457,5.75924308 L3.52225589,5.83896223 L3.28623793,7.40001779 L3.27550984,7.45734092 C3.27270011,7.47547103 3.26784692,7.48453608 3.26069486,7.49066833 C3.25376655,7.49658254 3.24512284,7.49987193 3.23617352,7.5 L2.08494741,7.5 Z" id="Path" fill="#253B80"></path>
                            <path d="M5.84795703,2 C5.84073607,2.04771213 5.83248355,2.09649045 5.82319946,2.14660151 C5.50418796,3.83944913 4.41279212,4.42425589 3.01888981,4.42425589 L2.30917304,4.42425589 C2.13870691,4.42425589 1.99506148,4.55219902 1.96849868,4.72598845 L1.60512988,7.10786317 L1.50223127,7.78302976 C1.49393581,7.83722881 1.50900895,7.89246512 1.54348235,7.9341965 C1.57795575,7.97592788 1.62837484,8 1.6814657,8 L2.94023298,8 C3.08929413,8 3.21591874,7.88804976 3.23938685,7.73611728 L3.25176563,7.67001333 L3.4887677,6.11550422 L3.50398329,6.0302088 C3.5271935,5.87774323 3.65407601,5.76579298 3.80313716,5.76579298 L3.99139779,5.76579298 C5.21096559,5.76579298 6.16567907,5.25402044 6.44471742,3.77307863 C6.56128427,3.15442026 6.50093772,2.63784984 6.19249976,2.27454465 C6.09474097,2.16215808 5.97798644,2.06912366 5.84795703,2 L5.84795703,2 Z" id="Path" fill="#179BD7"></path>
                            <path d="M5.6559197,2.11915854 C5.55089447,2.08851891 5.44405378,2.064605 5.33603669,2.04755986 C5.12260053,2.01448015 4.90688954,1.99860847 4.6909526,2.00009556 L2.7360234,2.00009556 C2.58229816,2 2.45144983,2.11292025 2.42784019,2.26611015 L2.0119657,4.9225018 L2,5 C2.0267705,4.82526559 2.1759391,4.6963548 2.35125972,4.69644303 L3.08302865,4.69644303 C4.52024197,4.69644303 5.64554942,4.10783212 5.97447318,2.40501696 C5.98431164,2.3546029 5.99255468,2.30552965 6,2.25752903 C5.91320489,2.21162773 5.82274647,2.17314608 5.72957522,2.14248845 C5.70514873,2.13431489 5.68059373,2.12653725 5.6559197,2.11915854 L5.6559197,2.11915854 Z" id="Path" fill="#222D65"></path>
                            <path d="M2.48807394,2.00868431 C2.51086081,1.85957191 2.63836739,1.74966192 2.78802225,1.75013045 L4.6907142,1.75013045 C4.91612833,1.75013045 5.1265321,1.76500186 5.31856113,1.7963101 C5.44850617,1.81689846 5.57665676,1.84769165 5.70184279,1.8884085 C5.79630451,1.91997764 5.88403745,1.95728662 5.96504161,2.00033545 C6.06027973,1.38799851 5.96426522,0.971077152 5.63584899,0.593551994 C5.27378887,0.177935147 4.62032081,0 3.78414049,0 L1.3566037,0 C1.18579621,0 1.04009224,0.125232948 1.01369472,0.295601938 L0.00256612082,6.75683936 C-0.00696504969,6.81754791 0.0103273786,6.87942145 0.049894619,6.92618408 C0.0894618594,6.97294671 0.147342689,6.99991685 0.20831151,7 L1.70701786,7 L2.08331194,4.59317928 L2.48807394,2.00868431 Z" id="Path" fill="#253B80"></path>
                        </g>
                    </g>
                </g>
            </g>
        </g>
    </g>
</svg>