<?xml version="1.0" encoding="UTF-8" standalone="no"?>
<!-- Created with Inkscape (http://www.inkscape.org/) -->

<svg
   xmlns:dc="http://purl.org/dc/elements/1.1/"
   xmlns:cc="http://creativecommons.org/ns#"
   xmlns:rdf="http://www.w3.org/1999/02/22-rdf-syntax-ns#"
   xmlns:svg="http://www.w3.org/2000/svg"
   xmlns="http://www.w3.org/2000/svg"
   xmlns:sodipodi="http://sodipodi.sourceforge.net/DTD/sodipodi-0.dtd"
   xmlns:inkscape="http://www.inkscape.org/namespaces/inkscape"
   width="145.0974"
   height="91.078209"
   viewBox="0 0 145.0974 91.078212"
   id="svg6948"
   version="1.1"
   inkscape:version="0.91 r13725"
   sodipodi:docname="persol.svg">
  <defs
     id="defs6950">
    <clipPath
       id="clipPath6613"
       clipPathUnits="userSpaceOnUse">
      <path
         inkscape:connector-curvature="0"
         id="path6615"
         d="m 0,0 595.276,0 0,841.89 L 0,841.89 0,0 Z" />
    </clipPath>
  </defs>
  <sodipodi:namedview
     id="base"
     pagecolor="#ffffff"
     bordercolor="#666666"
     borderopacity="1.0"
     inkscape:pageopacity="0.0"
     inkscape:pageshadow="2"
     inkscape:zoom="6.0280947"
     inkscape:cx="72.048698"
     inkscape:cy="45.249734"
     inkscape:document-units="px"
     inkscape:current-layer="layer1"
     showgrid="false"
     fit-margin-top="0"
     fit-margin-left="0"
     fit-margin-right="0"
     fit-margin-bottom="0"
     units="px"
     inkscape:window-width="1280"
     inkscape:window-height="744"
     inkscape:window-x="-4"
     inkscape:window-y="-4"
     inkscape:window-maximized="1" />
  <metadata
     id="metadata6953">
    <rdf:RDF>
      <cc:Work
         rdf:about="">
        <dc:format>image/svg+xml</dc:format>
        <dc:type
           rdf:resource="http://purl.org/dc/dcmitype/StillImage" />
        <dc:title></dc:title>
      </cc:Work>
    </rdf:RDF>
  </metadata>
  <g
     inkscape:label="Layer 1"
     inkscape:groupmode="layer"
     id="layer1"
     transform="translate(-227.9513,-594.89454)">
    <g
       id="g7025"
       transform="translate(0.49999844,-0.50000011)">
      <g
         transform="matrix(1.25,0,0,-1.25,340.41864,623.00388)"
         id="g6617">
        <path
           inkscape:connector-curvature="0"
           id="path6619"
           style="fill:#231f20;fill-opacity:1;fill-rule:nonzero;stroke:none"
           d="m 0,0 c -1.071,1.511 -2.606,2.51 -4.26,2.808 -2.103,0.37 -4.123,-0.203 -5.556,-1.548 -2.775,-2.339 -4.712,-6.601 -5.213,-10.641 -0.531,-3.505 -0.497,-7.443 1.75,-10.174 1.393,-1.455 3.226,-2.347 5.318,-2.048 3.348,0.99 6.328,4.251 7.763,7.399 C 1.669,-10.096 2.628,-4.045 0,0 m -4.282,-14.818 c 0.05,-1.011 -0.624,-1.983 -1.387,-1.983 l -0.263,0 c -1.518,0 -2.701,3.799 -3.107,4.923 -0.343,0.944 -1.355,5.507 -1.355,6.673 l 0,1.717 c 0,0.668 0.447,2.875 1.52,2.875 l 0.463,0 c 0.189,0 1.043,-0.268 1.982,-2.148 0.331,-0.661 0.644,-1.417 1.058,-3.072 0.659,-2.646 1.079,-6.825 1.089,-7.136 0.063,-1.833 -0.023,-1.321 0,-1.849" />
      </g>
      <g
         transform="matrix(1.25,0,0,-1.25,268.03639,629.65188)"
         id="g6621">
        <path
           inkscape:connector-curvature="0"
           id="path6623"
           style="fill:#231f20;fill-opacity:1;fill-rule:nonzero;stroke:none"
           d="m 0,0 c 2.019,-1.666 3.357,-4.043 2.676,-6.706 -0.913,-2.976 -4.124,-4.75 -6.838,-5.515 -0.324,-0.061 -0.662,0.096 -0.694,0.396 0.965,3.192 1.344,7.361 -1.09,9.975 -1.818,2.339 -4.781,2.851 -7.564,2.246 -5.539,-0.955 -10.004,-6.544 -11.198,-11.759 -1.721,-5.509 -0.515,-11.708 3.17,-15.954 0.153,-0.336 -0.235,-0.551 -0.495,-0.661 -3.364,-0.608 -6.517,0.952 -8.39,3.699 -1.438,2.545 -1.933,5.665 -1.486,8.754 0.601,4.523 3.689,8.089 6.969,11.397 5.553,4.931 12.628,7.82 20.348,6.11 C -3,1.505 -1.44,0.919 0,0" />
      </g>
      <g
         transform="matrix(1.25,0,0,-1.25,229.84264,678.08525)"
         id="g6633">
        <path
           inkscape:connector-curvature="0"
           id="path6635"
           style="fill:#231f20;fill-opacity:1;fill-rule:nonzero;stroke:none"
           d="m 0,0 c -0.175,-1.537 1.41,-2.626 2.411,-3.601 2.731,-1.997 7.089,-2.873 10.24,-1.156 7.35,4.367 8.465,12.681 8.721,20.645 0.33,5.739 -1.618,11.427 0.264,16.748 0.181,0.929 0.801,1.713 0.925,2.61 l -0.198,0.033 C 21.388,34.918 20.554,34.217 19.687,33.627 13.496,28.53 11.82,21.091 12.486,13.147 L 13.378,2.279 c 0.193,-1.762 0.197,-3.356 -0.841,-4.648 0,0 -0.625,-1.167 -2.345,-1.305 C 8.93,-3.811 7.969,-2.754 7.969,-2.754 5.831,-1.047 5.116,1.837 4.162,4.188 3.294,5.258 2.774,4.154 2.774,4.154 1.765,2.856 0.668,1.484 0,0" />
      </g>
      <g
         transform="matrix(1.25,0,0,-1.25,357.71289,601.61275)"
         id="g6637">
        <path
           inkscape:connector-curvature="0"
           id="path6639"
           style="fill:#231f20;fill-opacity:1;fill-rule:nonzero;stroke:none"
           d="M 0,0 C 0,1.533 -0.801,2.776 -1.79,2.776 -2.777,2.776 -3.578,1.533 -3.578,0 l 0.015,-0.233 c -0.167,-4.357 -0.1,-8.798 0.198,-13.081 0.008,-0.175 0.115,-0.381 0.365,-0.397 0.352,-10e-4 0.625,0.321 0.892,0.595 1.261,1.963 1.624,4.308 2.113,6.607 0.16,1.984 0.384,4.248 0.032,6.263 L 0,0 Z m 8.131,-30.887 -45.882,-23.255 -5.45,-2.741 -18.4,-9.316 c -4.827,-0.405 -9.574,-0.982 -14.435,-1.289 -0.208,0.025 -0.423,0.124 -0.462,0.298 0.031,0.586 0.676,0.554 1.024,0.793 l 13.345,5.945 44.759,19.49 21.801,9.513 3.199,1.583 c 1.216,0.442 1.984,1.499 1.717,2.233 -0.266,0.734 -1.469,0.971 -2.684,0.528 L 6.5,-27.17 c -1.504,-0.381 -2.805,-1.21 -4.116,-1.967 -2.364,-1.795 -4.892,-3.142 -7.598,-3.963 -1.289,-0.284 -2.717,-0.152 -3.468,0.99 -0.529,0.674 -0.578,1.516 -0.595,2.346 -0.553,6.964 -0.62,14.508 -0.066,21.471 0.413,3.637 1.057,7.187 3.237,10.107 1.411,1.827 3.442,3.107 5.847,2.677 C 1.067,4.202 2.38,3.121 3.077,1.848 5.17,-2.385 3.933,-7.933 1.59,-11.663 c -1.184,-2.47 -3.957,-4.187 -4.756,-6.804 -0.249,-2.427 -0.315,-5.011 -0.199,-7.499 0.048,-1.111 0.685,-2.341 1.818,-2.708 1.706,-0.213 3.022,0.774 4.429,1.551 l 0.229,0.136 c 0.585,0.382 1.265,0.724 2.012,0.996 2.998,1.285 5.709,0.677 6.234,-0.767 0.356,-0.976 -0.137,-2.124 -1.513,-3.133 0,0 -1.465,-0.86 -1.713,-0.996" />
      </g>
      <g
         transform="matrix(1.25,0,0,-1.25,271.71701,654.69913)"
         id="g6641">
        <path
           inkscape:connector-curvature="0"
           id="path6643"
           style="fill:#231f20;fill-opacity:1;fill-rule:nonzero;stroke:none"
           d="m 0,0 c -0.038,0.964 -0.334,3.799 -1.387,3.799 l -0.265,0 c -0.708,0 -1.506,-1.104 -1.916,-4.195 l 0.02,-0.283 c -0.028,-0.574 -0.035,-1.151 -0.057,-1.713 0.211,-0.881 -0.317,-2.408 0.958,-2.575 1.078,0.339 2.118,1.356 2.61,2.379 0.016,0.613 0.079,1.238 0.066,1.861 L 0,0 Z m 23.015,0.896 c 0.558,0.7 1.257,2.292 1.409,2.612 0.159,0.334 0.185,0.66 0.595,0.66 0.297,0 0.472,-0.247 1.255,-1.552 0.325,-0.542 0.859,-1.107 1.322,-1.752 l -0.001,-0.03 c 0.776,-0.829 1.682,-1.503 2.79,-1.805 0.786,-0.089 1.389,0.389 1.95,0.859 0.397,0.554 0.677,1.189 0.528,1.917 -0.453,2.782 -3.409,4.267 -4.922,6.44 -2.498,2.879 -4.53,6.644 -2.973,10.538 1.134,2.71 3.958,4.799 6.937,4.955 2.107,0.067 3.964,-0.553 5.648,-1.652 0.363,-0.222 0.504,-0.7 0.364,-1.123 L 36.1,17.56 c -0.215,-0.294 -0.578,-0.508 -0.893,-0.33 -0.437,0.537 -1.937,2.579 -1.937,2.579 -0.31,0.581 -0.938,0.976 -1.636,0.976 -1.013,0 -1.834,-0.832 -1.834,-1.859 l -0.023,-0.339 c 0.013,-0.34 0.078,-0.679 0.179,-0.994 0.86,-2.589 3.834,-3.73 5.153,-5.978 1.932,-3.026 3.402,-7.459 1.421,-10.967 -1.735,-2.881 -4.905,-4.367 -8.193,-4.03 -1.565,0.126 -2.879,0.77 -4.195,1.354 -0.425,0.059 -0.665,-0.345 -0.793,-0.66 -1.539,-2.964 -4.271,-5.678 -7.564,-6.309 -1.141,-0.055 -2.156,0.275 -2.808,1.122 -1.049,1.522 -0.834,3.776 -0.562,5.55 0.253,1.348 0.63,2.639 1.083,3.896 l 0.109,0.339 c 0.505,1.476 1.189,2.325 1.189,3.072 0,0.379 -0.301,0.661 -0.727,0.661 l -0.859,0 c -0.846,0 -1.569,0.528 -1.85,0.528 -0.717,0 -0.879,-0.928 -1.123,-1.981 C 10.088,3.538 9.702,2.118 9.675,1.91 L 9.541,1.376 C 8.273,-3.44 6.906,-8.211 4.063,-12.399 c -1.879,-2.539 -4.832,-4.693 -8.131,-4.163 -2.19,0.196 -4.172,1.995 -5.054,3.931 -1.627,4.761 -0.389,10.208 2.049,14.204 1.797,2.642 4.251,4.777 7.233,5.29 1.193,0.21 2.489,0.175 3.337,-0.732 0.521,-0.5 0.954,-1.044 1.299,-1.628 L 4.811,4.455 C 4.814,4.445 5.835,2.609 5.835,1.283 l 0,-1.09 c 0,-1.269 -0.591,-1.625 -1.354,-2.181 0,0 -0.704,-0.589 -0.826,-0.661 L 3.53,-2.722 c -1.987,-1.476 -3.977,-2.937 -5.979,-4.36 -0.615,-1.095 -0.07,-2.39 0.43,-3.402 0.573,-0.954 1.556,-1.82 2.741,-1.816 1.374,-0.088 2.191,0.928 3.006,2.081 2.781,5.973 4.488,12.351 5.683,18.938 l 0.127,0.433 c 0.043,0.156 0.47,2.874 0.529,3.337 0.112,0.852 0.218,1.371 0.363,2.246 0.04,0.251 0.02,0.925 0.463,0.925 0.396,0 0.205,-0.162 1.652,-2.577 0.445,-0.743 1.473,-1.562 2.609,-2.014 l 0.874,-0.184 c 0.818,-0.132 1.632,-0.033 2.433,0.117 l 0.15,0.063 c 0.559,0 0.869,0.265 1.256,0.265 0.31,0 0.482,-0.156 0.495,-0.397 L 19.569,8.951 19.451,8.756 C 18.796,7.287 18.113,5.825 17.866,4.183 17.69,2.869 17.476,1.308 18.428,0.252 c 0.699,-0.759 1.788,-1.246 2.774,-0.858 0.561,0.285 1.025,0.677 1.424,1.131 l 0.389,0.371 z" />
      </g>
    </g>
  </g>
</svg>
