<?xml version="1.0" encoding="UTF-8" standalone="no"?><svg id="Layer_1" data-name="Layer 1" xmlns="http://www.w3.org/2000/svg" viewBox="0 0 2490.93 580.62"><title>2020-Polaroid</title><path d="M133.77,536.15H43.6V42H241.14c110.13,0,179,53.68,179,157.62,0,102.55-68.83,157.61-179,157.61H133.77ZM236.32,279.42c61.95,0,95-28.91,95-79.84,0-51.63-33-79.85-95-79.85H133.77V279.42Z"/><path d="M612.82,543.72c-103.93,0-177.58-75.71-177.58-187.9s73.65-187.91,177.58-187.91,177.59,75.72,177.59,187.91-73.66,187.9-177.59,187.9m0-72.27c56.44,0,91.55-43.36,91.55-115.63s-35.11-115.63-91.55-115.63-91.54,43.36-91.54,115.63,35.1,115.63,91.54,115.63"/><rect x="837.21" y="41.95" width="85.35" height="494.2"/><path d="M1189.62,505.86c-22,23.41-56.44,36.49-97,36.49-70.89,0-123.9-42-123.9-107.38,0-67.45,51.63-98.42,121.15-112.88l98.42-20.65v-6.19c0-33-17.2-53.69-59.88-53.69-37.86,0-59.19,17.21-68.14,50.94l-79.84-17.9c17.2-61.26,68.14-106.69,152.8-106.69,81.22,0,137,41.3,137,124.59V449.43c0,29.59,1.38,60.56,5.51,86.72h-84a215.91,215.91,0,0,1-2.07-30.29m-1.38-139.72-76.4,16.52c-33.72,7.58-59.19,19.28-59.19,50.24,0,26.85,20,41.3,54.38,41.3,42,0,81.21-22,81.21-64.69Z"/><path d="M1541.35,259.46a219.16,219.16,0,0,0-28.91-2.07c-52.31,0-90.86,33-90.86,88.79v190h-85.35V174.8h85.35v57.81c15.83-39.23,51.62-59.88,97.74-59.88a197.9,197.9,0,0,1,22,1.38Z"/><path d="M1736.14,543.72c-103.93,0-177.59-75.71-177.59-187.9s73.66-187.91,177.59-187.91,177.58,75.72,177.58,187.91-73.65,187.9-177.58,187.9m0-72.27c56.44,0,91.54-43.36,91.54-115.63s-35.1-115.63-91.54-115.63-91.55,43.36-91.55,115.63,35.11,115.63,91.55,115.63"/><path d="M1960.52,42h88.1v87.42h-88.1Zm86.73,494.2H1961.9V174.8h85.35Z"/><path d="M2362.49,42h85.35v494.2h-85.35v-44c-24.09,35.79-60.57,51.62-104.62,51.62-102.56,0-162.44-85.35-162.44-187.9s59.88-187.91,162.44-187.91c44.05,0,80.53,15.83,104.62,51.63Zm-88.1,201c-58.5,0-92.92,46.11-92.92,112.88,0,67.45,34.42,112.88,92.92,112.88,51.62,0,90.16-37.17,90.16-101.87V345.49c0-66.07-38.54-102.55-90.16-102.55"/></svg>