<?xml version="1.0" encoding="utf-8"?>
<!-- Generator: Adobe Illustrator 19.2.1, SVG Export Plug-In . SVG Version: 6.00 Build 0)  -->
<svg version="1.1" id="layer" xmlns="http://www.w3.org/2000/svg" xmlns:xlink="http://www.w3.org/1999/xlink" x="0px" y="0px"
	 viewBox="0 0 652 652" style="enable-background:new 0 0 652 652;" xml:space="preserve">
<style type="text/css">
	.st0{fill:#002E53;}
</style>
<path class="st0" d="M132.7,332.6V331l8.6,0l-0.4-96.6l-8.6,0l0-1.6l41.1-0.2c22.7-0.1,35.1,10.8,35.2,26
	c0.1,15.1-11.4,24.7-34.8,24.8l-17.2,0.1l0.2,47.4l13.2,0l0,1.6L132.7,332.6 M156.6,282l13.5-0.1c15.5-0.1,22.3-6.4,22.2-23.7
	c-0.1-13.6-6.2-24-21.1-23.9l-14.7,0.1L156.6,282z"/>
<path class="st0" d="M269,230c21.6-0.1,41.3,20.3,41.4,52c0.1,31.7-19.4,52.3-41,52.4c-21.6,0.1-41.3-20.3-41.4-52.1
	C227.9,250.6,247.5,230.1,269,230 M269.4,332.8c15.9-0.1,23.4-12.9,23.3-50.7c-0.1-37.8-7.8-50.6-23.7-50.5
	c-15.9,0.1-23.4,12.9-23.3,50.7C245.9,320.1,253.5,332.9,269.4,332.8"/>
<path class="st0" d="M357.1,330.2l21.2-0.1c9.4,0,12.2-3.4,20.6-38.6l3.2,0l0.1,40.1l-69.1,0.3v-1.6l8.6,0l-0.4-96.6l-8.6,0v-1.6
	l38.4-0.2l0,1.6l-14.3,0.1L357.1,330.2"/>
<path class="st0" d="M467.2,229.2c21.6-0.1,41.3,20.3,41.4,52c0.1,31.7-19.4,52.3-41,52.4c-21.6,0.1-41.3-20.3-41.4-52
	S445.5,229.3,467.2,229.2 M467.5,332.1c15.9-0.1,23.4-12.9,23.3-50.7c-0.1-37.8-7.8-50.6-23.7-50.5c-15.9,0.1-23.4,12.9-23.3,50.7
	C444,319.3,451.7,332.1,467.5,332.1"/>
<path class="st0" d="M31.6,374.3l5.8,0c7,0,9.3,4.6,9.3,8.8c0,6.1-3.7,9.6-11.3,9.6l-3.8,0L31.6,374.3 M36.6,415.3v-1.3l-4.9,0
	l-0.1-20.2h0.3l16.3,21.5l10.1,0v-1.3l-3.1,0L40,393.8c9.2-0.6,14-4.7,14-10.6c0-5.3-3.8-10.2-14.5-10.2L20.9,373v1.3l3.8,0
	l0.2,39.6l-3.8,0l0,1.3L36.6,415.3z"/>
<path class="st0" d="M88.6,378.8h0.1l6.1,17.9l-12.6,0L88.6,378.8 M82.5,415.1l0-1.3l-6.1,0l5.5-15.7l13.5-0.1l5.3,15.6l-4.7,0v1.3
	l14.2,0l0-1.4l-2.5,0l-14.2-41.4l-4.1,0l-14.6,41.5l-3.7,0l0,1.3L82.5,415.1z"/>
<path class="st0" d="M137.5,413.5l9.4,0c4.2,0,5.4-0.8,9.2-15.7l1.4,0l0.1,17l-30.8,0.1l0-1.3l3.8,0l-0.2-39.6l-3.8,0l0-1.3
	l17.1-0.1v1.4l-6.4,0L137.5,413.5"/>
<path class="st0" d="M188.3,373.7l6.6,0c6.6,0,9.4,3.9,9.4,9.7c0,7.3-3,9.4-9.9,9.4l-6,0L188.3,373.7 M194.3,414.7l0-1.3l-5.9,0
	l-0.1-19.3l7.7,0c10.5,0,15.5-4.3,15.5-10.7c0-6.4-5.5-11-15.7-11l-18.3,0.1v1.4l3.8,0l0.1,39.6l-3.8,0l0,1.3L194.3,414.7z"/>
<polygon class="st0" points="239.4,393.2 239.5,413.2 243.7,413.2 243.7,414.5 228.8,414.6 228.8,413.2 232.6,413.2 232.5,373.6 
	228.6,373.6 228.6,372.2 243.6,372.2 243.6,373.5 239.4,373.5 239.4,391.9 256.3,391.8 256.2,373.5 252,373.5 252,372.1 267,372.1 
	267,373.4 263.1,373.4 263.3,413.1 267.1,413.1 267.1,414.4 252.2,414.5 252.2,413.1 256.4,413.1 256.3,393.2 "/>
<path class="st0" d="M335.9,412.8l9.4,0c4.2,0,5.4-0.8,9.2-15.7l1.4,0l0.1,17l-30.8,0.1l0-1.3l3.8,0l-0.1-39.6l-3.8,0v-1.4l17.1-0.1
	l0,1.4l-6.4,0L335.9,412.8"/>
<path class="st0" d="M389.1,377.7h0.1l6.1,17.9l-12.6,0L389.1,377.7 M382.9,414v-1.3l-6.1,0l5.5-15.7l13.5,0l5.3,15.6l-4.7,0l0,1.3
	l14.2,0l0-1.3l-2.5,0l-14.2-41.4l-4.1,0L375,412.7l-3.7,0l0,1.3L382.9,414z"/>
<path class="st0" d="M441.6,371.4l0,1.3l-4.6,0l0.1,30.7c0,7.4,4.5,9.8,8.5,9.8c6.1,0,10.3-3.9,10.3-10.3l-0.1-30.3l-5.7,0l0-1.3
	l11.3,0l0,1.3l-3.8,0l0.1,30.3c0,7.1-4.9,11.5-12.3,11.6c-10.3,0-15.1-4.1-15.1-12.5l-0.1-29.3l-3.8,0l0-1.4L441.6,371.4"/>
<path class="st0" d="M490,372.6l5.8,0c7,0,9.3,4.6,9.3,8.8c0,6-3.7,9.6-11.3,9.6l-3.8,0L490,372.6 M495,413.5l0-1.3l-4.8,0
	l-0.1-20.2h0.3l16.3,21.5l10.1,0l0-1.3l-3.1,0L498.4,392c9.2-0.6,14-4.7,14-10.7c0-5.3-3.8-10.2-14.5-10.2l-18.6,0.1l0,1.3l3.8,0
	l0.2,39.6l-3.8,0l0,1.3L495,413.5z"/>
<path class="st0" d="M531.6,413.4l0-1.3l3.8,0l-0.2-39.6l-3.8,0l0-1.4l32.4-0.1l0.1,13.6l-1.4,0c-3.5-11.4-4.5-12.2-7.6-12.2
	l-12.6,0l0.1,18.4l5,0c3.2,0,4.7-1.9,6-8.5l1.4,0l0.1,18.2h-1.4c-1.3-6.5-2.9-8.4-6-8.4l-5,0l0.1,19.9l11.2,0
	c4.6,0,5.9-1.7,9.6-14.3l1.5,0l0.1,15.7L531.6,413.4"/>
<polygon class="st0" points="589.9,373.4 589.7,373.4 589.9,411.8 595.2,411.8 595.2,413.2 583.9,413.2 583.9,411.9 588.1,411.8 
	588,372.2 583.7,372.2 583.7,370.9 596,370.8 614.9,401.3 615,401.3 614.9,372.1 609.8,372.1 609.8,370.8 620.9,370.7 620.9,372.1 
	616.6,372.1 616.8,413.1 614.6,413.1 "/>
</svg>
