<?xml version="1.0" encoding="utf-8"?>
<!-- Generator: Adobe Illustrator 21.0.2, SVG Export Plug-In . SVG Version: 6.00 Build 0)  -->
<svg version="1.1" id="Layer_1" xmlns="http://www.w3.org/2000/svg" xmlns:xlink="http://www.w3.org/1999/xlink" x="0px" y="0px"
	 viewBox="0 0 503.7 82.9" style="enable-background:new 0 0 503.7 82.9;" xml:space="preserve">
<g>
	<g>
		<path d="M13.5,54.1c0,1.7,0.3,2.4,2.2,2.4v1.1H0v-1.1c1.9,0,2.2-0.6,2.2-2.4V3.5c0-1.7-0.3-2.4-2.2-2.4V0h38.2
			c13.8,0,21.1,7.3,21.1,16.5c0,9.4-5.8,15.4-15.5,16.9l14.6,20.7c1.1,1.6,1.7,2.4,3.4,2.4v1.1H44.2v-1.1c0.9,0,1.1-0.3,1.1-0.6
			c0-0.6-0.2-1-1-2.1L29.8,33.1H13.5V54.1z M13.7,23.7h24c5.7,0,10.3-2.2,10.3-7.2s-4.6-7.2-10.3-7.2h-24V23.7z"/>
		<path d="M109.6,57.6v-1.1c1.4-0.1,1.9-0.5,3-3l21.6-48.6c0.4-0.8,0.9-1.7,0.9-2.4c0-0.9-0.6-1.3-1.7-1.4V0h17.3v1.1
			c-1.2,0.2-1.7,0.6-1.7,1.2c0,0.6,0.3,1.3,0.7,2.1l23,49.2c1.1,2.5,1.4,3,3.1,3v1.1H160v-1.1c1,0,1.4-0.4,1.4-0.8
			c0-0.9-0.7-2-6-13.3h-27.2c-4.6,10.3-5.8,11.9-5.8,12.9c0,0.7,0.5,1.1,1.2,1.2v1.1H109.6z M150.8,33.4l-9.5-20.7L132,33.4H150.8z"
			/>
		<path d="M227.3,56.5c1.7,0,2.1-0.6,2.1-2.4V3.5c0-1.7-0.3-2.4-2.1-2.4V0H243v1.1c-2.1,0-2.4,0.6-2.4,2.4v44.8h36.6
			c1.9,0,2.7-0.6,2.7-1.9h1.1v13h-1.1c0-1.1-0.8-1.7-2.7-1.7h-49.9V56.5z"/>
		<path d="M345.5,54.1c0,1.7,0.3,2.4,2.2,2.4v1.1h-15.7v-1.1c1.9,0,2.2-0.6,2.2-2.4V3.5c0-1.7-0.3-2.4-2.2-2.4V0H370
			c12.5,0,18.8,6.3,18.8,16.4s-5.1,16.4-18.8,16.4h-24.5V54.1z M345.5,23.4h24.3c6,0,7.8-1.9,7.8-7s-1.7-7-7.8-7h-24.3V23.4z"/>
		<path d="M490.1,22.5v-19c0-1.7-0.3-2.4-2.4-2.4V0h15.8v1.1c-1.8,0-2.2,0.6-2.2,2.4v50.7c0,1.7,0.4,2.4,2.2,2.4v1.1h-15.8v-1.1
			c2.1,0,2.4-0.6,2.4-2.4V32.5h-35.6v21.7c0,1.7,0.4,2.4,2.3,2.4v1.1h-15.9v-1.1c2.1,0,2.4-0.6,2.4-2.4V3.5c0-1.7-0.3-2.4-2.4-2.4V0
			h15.9v1.1c-1.9,0-2.3,0.6-2.3,2.4v19H490.1z"/>
	</g>
	<g>
		<path d="M3.2,76.2v5.3c0,0.6,0.3,0.8,0.6,0.8v0.2H0.3v-0.2c0.3,0,0.6-0.2,0.6-0.8V68.8c0-0.6-0.3-0.8-0.5-0.8v-0.2H7
			c3.2,0,4.7,1.8,4.7,3.8c0,2.6-1.2,4.1-3.3,4.4l2.7,5.4c0.2,0.4,0.5,0.7,1,0.7v0.2H8.3v-0.2c0.2,0,0.4-0.2,0.4-0.4
			c0-0.1,0-0.2-0.1-0.4l-2.7-5.2H3.2z M3.2,74.3h3.6c1.9,0,2.5-0.7,2.5-2.2c0-1.8-0.9-2.4-2.9-2.4H3.2V74.3z"/>
		<path d="M29.9,78.5l-1,2.9c0,0.1-0.1,0.4-0.1,0.5c0,0.2,0.2,0.3,0.3,0.4v0.2h-3v-0.2c0.3,0,0.5-0.1,0.7-0.9L31,69
			c0-0.1,0.1-0.3,0.1-0.5c0-0.2-0.1-0.4-0.3-0.4v-0.2h3.8v0.2c-0.2,0.1-0.4,0.2-0.4,0.5c0,0.1,0,0.3,0.1,0.5l4,12.4
			c0.1,0.3,0.2,0.7,0.5,0.7v0.2h-3.2v-0.2c0.3,0,0.4-0.2,0.4-0.4c0-0.2-0.1-0.5-0.1-0.7L35,78.5H29.9z M30.6,76.5h3.8l-1.8-5.9h0
			L30.6,76.5z"/>
		<path d="M54,68.8c0-0.6-0.3-0.8-0.6-0.8v-0.2h3.5v0.2c-0.3,0-0.6,0.2-0.6,0.8v11.6h6.7c0.5,0,0.6-0.2,0.6-0.5H64v3h-0.2
			c0-0.3-0.1-0.5-0.6-0.5h-9.7v-0.2c0.3,0,0.6-0.2,0.6-0.8V68.8z"/>
		<path d="M81.8,81.4c0,0.6,0.3,0.8,0.6,0.8v0.2h-3.5v-0.2c0.3,0,0.6-0.2,0.6-0.8V68.8c0-0.6-0.3-0.8-0.6-0.8v-0.2h6.3
			c3.2,0,4.7,1.6,4.7,4.2c0,2.3-1.3,4-4.5,4h-3.6V81.4z M85,74.2c1.8,0,2.5-0.8,2.5-2.2c0-1.6-0.9-2.3-2.9-2.3h-2.7v4.4H85z"/>
		<path d="M107.3,75.8v5.6c0,0.6,0.3,0.8,0.6,0.8v0.2h-3.5v-0.2c0.3,0,0.6-0.2,0.6-0.8V68.8c0-0.6-0.3-0.8-0.6-0.8v-0.2h3.5v0.2
			c-0.3,0-0.6,0.2-0.6,0.8v4.9h6.5v-4.9c0-0.6-0.3-0.8-0.6-0.8v-0.2h3.5v0.2c-0.3,0-0.6,0.2-0.6,0.8v12.6c0,0.6,0.3,0.8,0.6,0.8v0.2
			h-3.5v-0.2c0.3,0,0.6-0.2,0.6-0.8v-5.6H107.3z"/>
	</g>
	<g>
		<path d="M152.5,68.8c0-0.6-0.3-0.8-0.6-0.8v-0.2h3.5v0.2c-0.3,0-0.6,0.2-0.6,0.8v11.6h6.7c0.5,0,0.6-0.2,0.6-0.5h0.2v3h-0.2
			c0-0.3-0.1-0.5-0.6-0.5H152v-0.2c0.3,0,0.6-0.2,0.6-0.8V68.8z"/>
		<path d="M180.5,78.5l-1,2.9c0,0.1-0.1,0.4-0.1,0.5c0,0.2,0.2,0.3,0.3,0.4v0.2h-3v-0.2c0.3,0,0.5-0.1,0.7-0.9l4.1-12.3
			c0-0.1,0.1-0.3,0.1-0.5c0-0.2-0.1-0.4-0.3-0.4v-0.2h3.8v0.2c-0.2,0.1-0.4,0.2-0.4,0.5c0,0.1,0,0.3,0.1,0.5l4,12.4
			c0.1,0.3,0.2,0.7,0.5,0.7v0.2h-3.2v-0.2c0.3,0,0.4-0.2,0.4-0.4c0-0.2-0.1-0.5-0.1-0.7l-0.8-2.6H180.5z M181.1,76.5h3.8l-1.8-5.9h0
			L181.1,76.5z"/>
		<path d="M215.7,77.9c0,2.7-1.7,4.7-5.5,4.7s-5.5-2-5.5-4.7v-9.1c0-0.6-0.3-0.8-0.6-0.8v-0.2h3.4v0.2c-0.3,0-0.6,0.2-0.6,0.8v9
			c0,1.6,1,2.8,3.3,2.8c2.3,0,3.3-1.2,3.3-2.8v-9c0-0.6-0.3-0.8-0.6-0.8v-0.2h3.4v0.2c-0.3,0-0.6,0.2-0.6,0.8V77.9z"/>
		<path d="M234.6,76.2v5.3c0,0.6,0.3,0.8,0.6,0.8v0.2h-3.5v-0.2c0.3,0,0.6-0.2,0.6-0.8V68.8c0-0.6-0.3-0.8-0.5-0.8v-0.2h6.6
			c3.2,0,4.7,1.8,4.7,3.8c0,2.6-1.2,4.1-3.3,4.4l2.7,5.4c0.2,0.4,0.5,0.7,1,0.7v0.2h-3.8v-0.2c0.2,0,0.4-0.2,0.4-0.4
			c0-0.1,0-0.2-0.1-0.4l-2.7-5.2H234.6z M234.6,74.3h3.6c1.9,0,2.5-0.7,2.5-2.2c0-1.8-0.9-2.4-2.9-2.4h-3.2V74.3z"/>
		<path d="M258.8,68.8c0-0.6-0.3-0.8-0.6-0.8v-0.2h9.4c0.5,0,0.6-0.2,0.6-0.5h0.2v3h-0.2c0-0.3-0.1-0.5-0.6-0.5h-6.4V74h4.2
			c0.5,0,0.6-0.2,0.6-0.5h0.2v3h-0.2c0-0.3-0.1-0.5-0.6-0.5h-4.2v4.4h6.7c0.5,0,0.6-0.2,0.6-0.5h0.2v3h-0.2c0-0.3-0.1-0.5-0.6-0.5
			h-9.6v-0.2c0.3,0,0.6-0.2,0.6-0.8V68.8z"/>
		<path d="M295.4,81.4c0,0.6,0.3,0.8,0.6,0.8v0.2h-3.1v-0.2c0.2,0,0.3,0,0.3-0.2c0-0.2-0.1-0.3-0.3-0.6L286.5,71h0v10.4
			c0,0.6,0.3,0.8,0.6,0.8v0.2h-3.2v-0.2c0.3,0,0.6-0.2,0.6-0.8V68.8c0-0.6-0.3-0.8-0.6-0.8v-0.2h3.7v0.2c-0.2,0.1-0.3,0.1-0.3,0.3
			c0,0.2,0.1,0.3,0.3,0.6l5.8,9.3h0v-9.4c0-0.6-0.3-0.8-0.6-0.8v-0.2h3.2v0.2c-0.3,0-0.6,0.2-0.6,0.8V81.4z"/>
	</g>
	<g>
		<path d="M331.9,68.8c0-0.6-0.3-0.8-0.6-0.8v-0.2h9.4c0.5,0,0.6-0.2,0.6-0.5h0.2v3h-0.2c0-0.3-0.1-0.5-0.6-0.5h-6.4V74h4.2
			c0.5,0,0.6-0.2,0.6-0.5h0.2v3H339c0-0.3-0.1-0.5-0.6-0.5h-4.2v4.4h6.7c0.5,0,0.6-0.2,0.6-0.5h0.2v3h-0.2c0-0.3-0.1-0.5-0.6-0.5
			h-9.6v-0.2c0.3,0,0.6-0.2,0.6-0.8V68.8z"/>
		<path d="M359.5,67.8v0.2c-0.3,0-0.4,0.1-0.4,0.3c0,0.2,0.1,0.3,0.2,0.4l2.8,5l2.6-5.2c0-0.1,0.1-0.1,0.1-0.3
			c0-0.1-0.1-0.2-0.3-0.3v-0.2h3.2v0.2c-0.6,0.2-0.7,0.5-1,1.1l-3.5,6.8v5.5c0,0.6,0.3,0.8,0.6,0.8v0.2h-3.5v-0.2
			c0.3,0,0.6-0.2,0.6-0.8v-5.5l-4.1-7.2c-0.1-0.2-0.3-0.5-0.7-0.6v-0.2H359.5z"/>
		<path d="M382.8,68.8c0-0.6-0.3-0.8-0.6-0.8v-0.2h9.4c0.5,0,0.6-0.2,0.6-0.5h0.2v3h-0.2c0-0.3-0.1-0.5-0.6-0.5h-6.4V74h4.2
			c0.5,0,0.6-0.2,0.6-0.5h0.2v3h-0.2c0-0.3-0.1-0.5-0.6-0.5h-4.2v4.4h6.7c0.5,0,0.6-0.2,0.6-0.5h0.2v3h-0.2c0-0.3-0.1-0.5-0.6-0.5
			h-9.6v-0.2c0.3,0,0.6-0.2,0.6-0.8V68.8z"/>
		<path d="M410.3,67.8v0.2c-0.3,0-0.4,0.2-0.4,0.4c0,0.2,0.1,0.3,0.1,0.5l2.5,10h0l2.3-10.1c0-0.1,0-0.2,0-0.3
			c0-0.2-0.1-0.3-0.4-0.4v-0.2h3.5v0.2c-0.3,0-0.4,0.2-0.4,0.4c0,0.2,0.1,0.5,0.1,0.6l2.3,9.9h0l2.4-10.2c0-0.1,0-0.2,0-0.2
			c0-0.2-0.1-0.3-0.3-0.4v-0.2h3v0.2c-0.3,0.2-0.5,0.3-0.6,0.7l-3.3,12.7c0,0.2,0,0.2,0,0.4c0,0.3,0.1,0.3,0.4,0.3v0.2h-3.4v-0.2
			c0.3,0,0.4-0.2,0.4-0.4c0-0.1,0-0.2-0.1-0.4l-2.4-9.9h0l-2.3,10.1c0,0.1,0,0.2,0,0.3c0,0.1,0.1,0.3,0.4,0.3v0.2h-3.4v-0.2
			c0.3,0,0.3-0.1,0.3-0.3c0-0.2,0-0.3-0.1-0.6l-3.5-12.6c-0.1-0.3-0.2-0.6-0.6-0.7v-0.2H410.3z"/>
		<path d="M440.4,68.8c0-0.6-0.3-0.8-0.6-0.8v-0.2h9.4c0.5,0,0.6-0.2,0.6-0.5h0.2v3h-0.2c0-0.3-0.1-0.5-0.6-0.5h-6.4V74h4.2
			c0.5,0,0.6-0.2,0.6-0.5h0.2v3h-0.2c0-0.3-0.1-0.5-0.6-0.5h-4.2v4.4h6.7c0.5,0,0.6-0.2,0.6-0.5h0.2v3H450c0-0.3-0.1-0.5-0.6-0.5
			h-9.6v-0.2c0.3,0,0.6-0.2,0.6-0.8V68.8z"/>
		<path d="M468.3,78.5l-1,2.9c0,0.1-0.1,0.4-0.1,0.5c0,0.2,0.2,0.3,0.3,0.4v0.2h-3v-0.2c0.3,0,0.5-0.1,0.7-0.9l4.1-12.3
			c0-0.1,0.1-0.3,0.1-0.5c0-0.2-0.1-0.4-0.3-0.4v-0.2h3.8v0.2c-0.2,0.1-0.4,0.2-0.4,0.5c0,0.1,0,0.3,0.1,0.5l4,12.4
			c0.1,0.3,0.2,0.7,0.5,0.7v0.2H474v-0.2c0.3,0,0.4-0.2,0.4-0.4c0-0.2-0.1-0.5-0.1-0.7l-0.8-2.6H468.3z M469,76.5h3.8l-1.8-5.9h0
			L469,76.5z"/>
		<path d="M494.8,76.2v5.3c0,0.6,0.3,0.8,0.6,0.8v0.2h-3.5v-0.2c0.3,0,0.6-0.2,0.6-0.8V68.8c0-0.6-0.3-0.8-0.5-0.8v-0.2h6.6
			c3.2,0,4.7,1.8,4.7,3.8c0,2.6-1.2,4.1-3.3,4.4l2.7,5.4c0.2,0.4,0.5,0.7,1,0.7v0.2h-3.8v-0.2c0.2,0,0.4-0.2,0.4-0.4
			c0-0.1,0-0.2-0.1-0.4l-2.7-5.2H494.8z M494.8,74.3h3.6c1.9,0,2.5-0.7,2.5-2.2c0-1.8-0.9-2.4-2.9-2.4h-3.2V74.3z"/>
	</g>
</g>
</svg>
