<?xml version="1.0" encoding="UTF-8" standalone="no"?><svg id="Layer_1" data-name="Layer 1" xmlns="http://www.w3.org/2000/svg" viewBox="0 0 91 61"><title>Ray Ban</title><g id="Page-1"><g id="Ray-Ban"><polygon id="path2510" points="0.4 0.4 90.35 0.4 90.35 52.07 0.4 52.07 0.4 0.4" style="fill:#c20016"/><polygon id="path2512" points="0.39 0.39 90.36 0.39 90.36 52.08 0.39 52.08 0.39 0.39" style="fill:none;stroke:#ed1c24;stroke-width:0.5px"/><path id="path2524" d="M48.62,25.76a1.55,1.55,0,0,1,1.73,1.36,2.82,2.82,0,0,1-3,2.48c-1.48,0-1.7-1-1.7-1.37a3.06,3.06,0,0,1,3-2.47" style="fill:#fff"/><path id="path2528" d="M52.58,30.32c0-.47.11-1.84.11-2.59l-.17-12.67a11.74,11.74,0,0,1,2-6.89c1-1.4,3.22-4,6.34-4,2.39,0,3.64,2,3.64,4.1,0,2.37-.8,4.26-3.56,6.82s-3.43,2.65-3.43,3.38.89,1.14,1.37,1.47,2.34,1.62,3.26,2.43a2.63,2.63,0,0,1,1.2,2.14,4.81,4.81,0,0,1-1.15,2.93c-.89,1.34-4.21,4.7-5.9,7.94-.4.64-.71.63-1,.28a6.32,6.32,0,0,1-1-1.56,2.12,2.12,0,0,1,0-1.87c.45-.7,3.6-4.6,4.71-6,1-1.24,1-3,.22-3.7s-2.37-2.17-2.86-2.76a1.87,1.87,0,0,1,0-2.4c2.28-2.65,4.73-5.63,4.73-8.58C61.13,7.09,60,6,59.18,6c-2.09,0-3.9,3.9-4,7.44l.39,13.82a2.91,2.91,0,0,1-.75,2.42,2.81,2.81,0,0,1-1.9,1.14c-.22,0-.36-.17-.36-.45" style="fill:#fff"/><path id="path2532" d="M81.88,16.37a.86.86,0,1,0,.86-.86.87.87,0,0,0-.86.86m.25,0a.61.61,0,1,1,.61.67.63.63,0,0,1-.61-.67m.27.47h.2v-.4h.1l.23.4h.21l-.26-.41c.15,0,.26-.08.26-.25s-.14-.29-.38-.29H82.4Zm.2-.56v-.23h.15c.08,0,.18,0,.18.11s-.06.12-.16.12Z" style="fill:#fff"/><path id="path2536" d="M43.31,26.9c-.42,0-1,.91-1.54,2s-1.14,3-1.82,3-.63-2.13-.68-2.61a.91.91,0,0,0-.89-.9,1.07,1.07,0,0,0-.79.71c-.5,1.39-1.16,4.34-2.21,4.34-.47,0-1.07-1.21-1.07-2,0-1.55-.61-1.75-1.24-1.75s-1,1-1.41,1-.58-.09-.92-.09c-1.88,0-3.89,3.22-3.89,5.4,0,1.47.83,1.71,1.44,1.71,2.09,0,3.33-3.16,4-3.16s.18,1.8,1.77,1.8,2.53-2.91,3.12-2.91,0,1.76,1.36,1.76c.81,0,1.31-.75,2.1-1.92.25-.39.63-.5.63.14L41.1,44.71c0,.22.15.47.37.47l1.66,0a.35.35,0,0,0,.33-.44c0-.26.11-14,.2-17.08C43.66,27.29,43.72,26.9,43.31,26.9ZM31.52,32c.25,0,.41.25.41.53,0,.75-1.64,3.33-2.28,3.33-.22,0-.42-.1-.42-.49C29.23,34.5,30.79,32,31.52,32Z" style="fill:#fff"/><path id="path2544" d="M29.22,35.35c0-.84,1.57-3.39,2.3-3.39a.48.48,0,0,1,.42.53c0,.76-1.65,3.36-2.3,3.36C29.42,35.85,29.22,35.74,29.22,35.35Z" style="fill:none;stroke:#c20016;stroke-width:0.5px"/><path id="path2548" d="M79.81,16.34c-1,0-1.82,2-2.21,2.94-.32.79-.72.72-.72.21,0,0-.06-1-.06-1.39a.8.8,0,0,0-.75-.72c-.31,0-.74.16-1.1.83s-1.34,2.79-1.59,3.4-.43,1.13-.93,1.13c-.67,0-.78-1.53-.92-2.45-.09-.58-.25-1.27-1-1.27-.45,0-.65.29-.87.55a1.29,1.29,0,0,1-1,.33c-2.37,0-4.53,3.85-4.53,6.05,0,1.14.36,1.7,1.11,1.7a2.68,2.68,0,0,0,1.8-.89,20.45,20.45,0,0,0,2.1-2.54c.25-.39.46-.14.54.16.18.65.57,1.52,1.63,1.52,1.22,0,1.81-1.37,2.45-2.54.38-.7.62-.37.62,0,0,.84.13,1.34.77,1.34,1,0,1.93-1.91,2.4-2.94S78.32,20,78.71,20s.61,1.31.92,2.07a1.64,1.64,0,0,0,1.68,1.2,2.38,2.38,0,0,0,1.74-1.1c.48-.56,1.08-1.37.85-1.6s-.85.26-1.18.26c-1.06,0-1.48-1.94-1.73-2.89S80.53,16.34,79.81,16.34ZM68.94,21.49c.25,0,.33.17.33.37,0,.56-1.43,3.12-2.18,3.12-.25,0-.41-.28-.41-.56C66.68,23.67,68.21,21.49,68.94,21.49Z" style="fill:#fff"/><path id="path2556" d="M66.67,24.42c0-.75,1.54-2.94,2.27-2.94.25,0,.34.17.34.37,0,.56-1.43,3.13-2.19,3.13C66.84,25,66.67,24.71,66.67,24.42Z" style="fill:none;stroke:#c20016;stroke-width:0.5px"/><path id="path2560" d="M19.5,38.63a.61.61,0,0,0-.38-.56l-3.68-1.71c-.62-.3-.54-.59,0-.92L19,33.18c.42-.25.46-.58.46-1l0-11.79a.81.81,0,0,1,.37-.83l1.42-.92c.59-.3,1.13-.3,1.13.41V29.75c0,.51.24.88.88.38,3.42-2.72,6.77-5.56,6.77-9.9a3.72,3.72,0,0,0-3.81-4.06c-5.39,0-14.36,6.14-17.67,8.4C7.8,25.08,6,26.62,5.66,27s-.66.46-.66-.2,0-1.59,0-2.34a3.68,3.68,0,0,1,1.33-3c7.44-4.72,14.42-7.61,19.27-7.61s6.52,3.26,6.52,5.6c0,4.39-3.22,8.32-9.49,13.08a1.13,1.13,0,0,0-.29.84v2.21a1,1,0,0,0,.71,1l9.74,4.59c1,.46.87,1.09.71,1.42a3.85,3.85,0,0,1-.55,1,1.4,1.4,0,0,1-1.75.25L23.17,40c-.46-.29-.79-.08-.83.29l.08,2a1.54,1.54,0,0,1-.71,1.38c-.54.34-1.17.75-1.5.92s-.67.25-.67-.33-.05-5.36,0-5.36v-.31" style="fill:#fff"/><path id="path2564" d="M5.15,57.81v1.36a1.53,1.53,0,0,1,0,.21A1.3,1.3,0,0,1,3.8,60.51H2l-.22,0A1.28,1.28,0,0,1,.66,59.17v-1.8a1.42,1.42,0,0,1,0-.21A1.28,1.28,0,0,1,2,56H3.8L4,56a1.28,1.28,0,0,1,1.13,1.33h-.9a.41.41,0,0,0-.45-.45H2a.41.41,0,0,0-.46.45v1.8a.41.41,0,0,0,.46.44H3.8a.41.41,0,0,0,.45-.44v-.45H2.91v-.91Z" style="fill:#20201d;fill-opacity:0.9372549057006836"/><polygon id="path2568" points="10.04 57.81 10.04 58.72 7.81 58.72 7.81 59.17 7.81 59.61 10.95 59.61 10.95 60.51 6.9 60.51 6.9 59.17 6.9 56.02 8.25 56.02 10.95 56.02 10.95 56.92 8.25 56.92 7.81 56.92 7.81 57.81 10.04 57.81" style="fill:#20201d;fill-opacity:0.9372549057006836"/><polygon id="path2572" points="12.54 56.02 14.17 56.02 15.97 59.61 16.14 59.61 16.14 56.47 16.14 56.02 17.04 56.02 17.04 56.47 17.04 60.51 15.41 60.51 13.62 56.92 13.45 56.92 13.45 60.06 13.45 60.51 12.54 60.51 12.54 60.06 12.54 56.02" style="fill:#20201d;fill-opacity:0.9372549057006836"/><path id="path2584" d="M23.34,59.17a1.53,1.53,0,0,1,0,.21A1.28,1.28,0,0,1,22,60.51H20.2l-.22,0a1.28,1.28,0,0,1-1.13-1.32V56h.9v3.15a.4.4,0,0,0,.45.44H22a.41.41,0,0,0,.46-.44V56h.89v3.15Z" style="fill:#20201d;fill-opacity:0.9372549057006836"/><polygon id="path2588" points="24.98 56.47 24.98 56.02 25.89 56.02 25.89 56.47 25.89 60.06 25.89 60.51 24.98 60.51 24.98 60.06 24.98 56.47" style="fill:#20201d;fill-opacity:0.9372549057006836"/><polygon id="path2592" points="27.51 56.02 29.14 56.02 30.94 59.61 31.11 59.61 31.11 56.47 31.11 56.02 32.01 56.02 32.01 56.47 32.01 60.51 30.38 60.51 28.59 56.92 28.42 56.92 28.42 60.06 28.42 60.51 27.51 60.51 27.51 60.06 27.51 56.02" style="fill:#20201d;fill-opacity:0.9372549057006836"/><polygon id="path2596" points="36.91 57.81 36.91 58.72 34.67 58.72 34.67 59.17 34.67 59.61 37.81 59.61 37.81 60.51 33.77 60.51 33.77 59.17 33.77 56.02 35.11 56.02 37.81 56.02 37.81 56.92 35.11 56.92 34.67 56.92 34.67 57.81 36.91 57.81" style="fill:#20201d;fill-opacity:0.9372549057006836"/><path id="path2608" d="M43.81,58.72h-.44c-.86,0-1.13-.84-1.13-1.35S42.51,56,43.37,56H45.6a1.22,1.22,0,0,1,1.13,1.35h-.9c0-.37-.17-.44-.23-.44H43.37c-.06,0-.23.07-.23.45s.17.44.23.44H45.6c.85,0,1.13.84,1.13,1.36a1.23,1.23,0,0,1-1.13,1.34H43.36c-.85,0-1.12-.83-1.12-1.34h.9c0,.38.17.45.22.45H45.6c.06,0,.23-.07.23-.44s-.17-.45-.23-.45H43.81Z" style="fill:#20201d;fill-opacity:0.9372549057006836"/><polygon id="path2612" points="48.32 56.47 48.32 56.02 49.22 56.02 49.22 56.47 49.22 60.06 49.22 60.51 48.32 60.51 48.32 60.06 48.32 56.47" style="fill:#20201d;fill-opacity:0.9372549057006836"/><polygon id="path2616" points="50.85 56.02 52.48 56.02 54.27 59.61 54.44 59.61 54.44 56.47 54.44 56.02 55.34 56.02 55.34 56.47 55.34 60.51 53.72 60.51 51.92 56.92 51.75 56.92 51.75 60.06 51.75 60.51 50.85 60.51 50.85 60.06 50.85 56.02" style="fill:#20201d;fill-opacity:0.9372549057006836"/><path id="path2628" d="M61.57,59.38a1.28,1.28,0,0,1-1.33,1.13H58.45l-.22,0a1.28,1.28,0,0,1-1.14-1.32v-1.8l0-.21A1.28,1.28,0,0,1,58.45,56h1.79l.22,0a1.28,1.28,0,0,1,1.13,1.33h-.9a.41.41,0,0,0-.45-.45H58.45a.42.42,0,0,0-.46.45v1.8a.41.41,0,0,0,.46.45h1.79a.42.42,0,0,0,.45-.45h.9a1.53,1.53,0,0,1,0,.21" style="fill:#20201d;fill-opacity:0.9372549057006836"/><polygon id="path2632" points="66.26 57.81 66.26 58.72 64.02 58.72 64.02 59.17 64.02 59.61 67.16 59.61 67.16 60.51 63.12 60.51 63.12 59.17 63.12 56.02 64.46 56.02 67.16 56.02 67.16 56.92 64.46 56.92 64.02 56.92 64.02 57.81 66.26 57.81" style="fill:#20201d;fill-opacity:0.9372549057006836"/><path id="path2644" d="M71.87,57.77l-.4.2-.4-.8c.46-.23,1.05-.5,1.05-1.15H73v4.49h-.9V57.62a2.07,2.07,0,0,1-.25.15" style="fill:#20201d;fill-opacity:0.9372549057006836"/><path id="path2648" d="M74.89,57.37c0-.51.28-1.35,1.13-1.35h2c.85,0,1.13.84,1.13,1.35v1.8l0,.21a1.28,1.28,0,0,1-1.32,1.13H76.24a1.3,1.3,0,0,1-1.34-1.34h.89a.43.43,0,0,0,.45.44h1.58a.41.41,0,0,0,.45-.44V58.7l-.23,0H76c-.85,0-1.13-.84-1.13-1.35m2,.44H78c.06,0,.23-.06.23-.44s-.17-.45-.23-.45H76c-.06,0-.23.07-.23.45s.17.44.23.44Z" style="fill:#20201d;fill-opacity:0.9372549057006836"/><path id="path2652" d="M85,59.17a1.23,1.23,0,0,1-1.13,1.34h-1.8a1.31,1.31,0,0,1-1.34-1.34h.9v.06a.4.4,0,0,0,.44.38h1.8c.06,0,.23-.07.23-.44s-.17-.45-.23-.45H82.09v-.91h1.8s.22-.06.22-.44-.17-.45-.22-.45h-1.8a.41.41,0,0,0-.45.45h-.9a1.42,1.42,0,0,1,0-.21A1.28,1.28,0,0,1,82.09,56h1.8c.84,0,1.12.84,1.12,1.35a1.67,1.67,0,0,1-.27.9,1.67,1.67,0,0,1,.27.9" style="fill:#20201d;fill-opacity:0.9372549057006836"/><path id="path2656" d="M87.89,60.65l-.8-.4.2-.4s.45-.92,1-1.84a13.05,13.05,0,0,1,.77-1.11H86.34V56h4v.89c-.71.3-2.14,3-2.5,3.75" style="fill:#20201d;fill-opacity:0.9372549057006836"/></g></g></svg>