<?xml version="1.0" encoding="UTF-8"?>
<svg width="166px" height="57px" viewBox="0 0 166 57" version="1.1" xmlns="http://www.w3.org/2000/svg" xmlns:xlink="http://www.w3.org/1999/xlink">
    <title>Group 2</title>
    <g id="sectigo-logo" stroke="none" stroke-width="1" fill="none" fill-rule="evenodd">
        <g id="Group-2">
            <path d="M61.5422222,42.3452222 L61.5422222,42.913 C61.5422222,43.5754074 61.6888981,44.0296296 61.98225,44.2756667 C62.2756019,44.5217037 62.8291852,44.6447222 63.643,44.6447222 L64.7785556,44.6447222 C65.5923704,44.6447222 66.1459537,44.5217037 66.4393056,44.2756667 C66.7326574,44.0296296 66.8793333,43.5754074 66.8793333,42.913 L66.8793333,41.891 C66.8793333,41.2096667 66.7563148,40.750713 66.5102778,40.5141389 C66.2642407,40.2775648 65.6491481,40.0362593 64.665,39.7902222 L61.4854444,38.9953333 C59.5739259,38.5221852 58.3484722,37.9354815 57.8090833,37.2352222 C57.2696944,36.534963 57,35.257463 57,33.4027222 L57,32.8917222 C57,30.8666481 57.4305648,29.4755926 58.2916944,28.7185556 C59.1528241,27.9615185 60.7851852,27.583 63.1887778,27.583 L64.5230556,27.583 C66.9266481,27.583 68.5590093,27.9615185 69.4201389,28.7185556 C70.2812685,29.4755926 70.7118333,30.8666481 70.7118333,32.8917222 L70.7118333,33.2607778 C70.7118333,33.9421111 70.3711667,34.2827778 69.6898333,34.2827778 L67.5322778,34.2827778 C66.8509444,34.2827778 66.5102778,33.9421111 66.5102778,33.2607778 L66.5102778,32.693 C66.5102778,32.0305926 66.3636019,31.5763704 66.07025,31.3303333 C65.7768981,31.0842963 65.2233148,30.9612778 64.4095,30.9612778 L63.3023333,30.9612778 C62.4885185,30.9612778 61.9349352,31.0842963 61.6415833,31.3303333 C61.3482315,31.5763704 61.2015556,32.0305926 61.2015556,32.693 L61.2015556,33.4311111 C61.2015556,34.1124444 61.3245741,34.5713981 61.5706111,34.8079722 C61.8166481,35.0445463 62.4317407,35.2858519 63.4158889,35.5318889 L66.5954444,36.3267778 C68.506963,36.7999259 69.7324167,37.3866296 70.2718056,38.0868889 C70.8111944,38.7871481 71.0808889,40.0646481 71.0808889,41.9193889 L71.0808889,42.7142778 C71.0808889,44.7393519 70.6503241,46.1304074 69.7891944,46.8874444 C68.9280648,47.6444815 67.2957037,48.023 64.8921111,48.023 L63.5294444,48.023 C61.1258519,48.023 59.4934907,47.6444815 58.6323611,46.8874444 C57.7712315,46.1304074 57.3406667,44.7393519 57.3406667,42.7142778 L57.3406667,42.3452222 C57.3406667,41.6638889 57.6813333,41.3232222 58.3626667,41.3232222 L60.5202222,41.3232222 C61.2015556,41.3232222 61.5422222,41.6638889 61.5422222,42.3452222 Z M84.8778086,47.7675 L74.4874753,47.7675 C73.806142,47.7675 73.4654753,47.4268333 73.4654753,46.7455 L73.4654753,28.8605 C73.4654753,28.1791667 73.806142,27.8385 74.4874753,27.8385 L84.7358642,27.8385 C85.4171975,27.8385 85.7578642,28.1791667 85.7578642,28.8605 L85.7578642,30.3935 C85.7578642,31.0748333 85.4171975,31.4155 84.7358642,31.4155 L77.6670309,31.4155 L77.6670309,35.9861111 L83.6854753,35.9861111 C84.3668086,35.9861111 84.7074753,36.3267778 84.7074753,37.0081111 L84.7074753,38.5411111 C84.7074753,39.2224444 84.3668086,39.5631111 83.6854753,39.5631111 L77.6670309,39.5631111 L77.6670309,44.1905 L84.8778086,44.1905 C85.559142,44.1905 85.8998086,44.5311667 85.8998086,45.2125 L85.8998086,46.7455 C85.8998086,47.4268333 85.559142,47.7675 84.8778086,47.7675 Z M102.484177,40.9541667 L102.484177,41.4651667 C102.484177,44.0012407 102.034686,45.7282315 101.135705,46.6461389 C100.236723,47.5640463 98.4908066,48.023 95.8979547,48.023 L93.9675103,48.023 C91.3746584,48.023 89.6287418,47.5640463 88.7297603,46.6461389 C87.8307788,45.7282315 87.3812881,44.0012407 87.3812881,41.4651667 L87.3812881,34.1408333 C87.3812881,31.6047593 87.8307788,29.8777685 88.7297603,28.9598611 C89.6287418,28.0419537 91.3746584,27.583 93.9675103,27.583 L95.8979547,27.583 C98.4908066,27.583 100.236723,28.0419537 101.135705,28.9598611 C102.034686,29.8777685 102.484177,31.6047593 102.484177,34.1408333 L102.484177,34.6518333 C102.484177,35.3331667 102.14351,35.6738333 101.462177,35.6738333 L99.3046214,35.6738333 C98.6232881,35.6738333 98.2826214,35.3331667 98.2826214,34.6518333 L98.2826214,34.1976111 C98.2826214,32.9674259 98.1075566,32.1488796 97.757427,31.7419722 C97.4072973,31.3350648 96.7117695,31.1316111 95.6708436,31.1316111 L94.1946214,31.1316111 C93.1536955,31.1316111 92.4581677,31.3350648 92.1080381,31.7419722 C91.7579084,32.1488796 91.5828436,32.9674259 91.5828436,34.1976111 L91.5828436,41.4083889 C91.5828436,42.6385741 91.7579084,43.4571204 92.1080381,43.8640278 C92.4581677,44.2709352 93.1536955,44.4743889 94.1946214,44.4743889 L95.6708436,44.4743889 C96.7117695,44.4743889 97.4072973,44.2709352 97.757427,43.8640278 C98.1075566,43.4571204 98.2826214,42.6385741 98.2826214,41.4083889 L98.2826214,40.9541667 C98.2826214,40.2728333 98.6232881,39.9321667 99.3046214,39.9321667 L101.462177,39.9321667 C102.14351,39.9321667 102.484177,40.2728333 102.484177,40.9541667 Z M107.624769,47.629 L107.624769,30.956873 L103,30.956873 L103,27.7 L116.044878,27.7 L116.044878,30.956873 L111.261167,30.956873 L111.261167,47.629 L107.624769,47.629 Z M122.444794,27.7 L122.444794,47.629 L118.533952,47.629 L118.533952,27.7 L122.444794,27.7 Z M135.234572,39.9302276 L131.9392,39.9302276 L131.9392,37.0081111 L138.986787,37.0081111 C138.986787,38.7842332 138.986787,40.2699184 138.986787,41.4651667 C138.986787,44.0012407 138.819932,45.7282315 137.920951,46.6461389 C137.021969,47.5640463 135.794617,48.023 133.201765,48.023 L131.271321,48.023 C128.678469,48.023 126.932552,47.5640463 126.033571,46.6461389 C125.13459,45.7282315 124.685099,44.0012407 124.685099,41.4651667 L124.685099,34.1408333 C124.685099,31.6047593 125.13459,29.8777685 126.033571,28.9598611 C126.932552,28.0419537 128.678469,27.583 131.271321,27.583 L133.201765,27.583 C135.794617,27.583 137.05678,28.1905383 138.080422,29.1780143 C138.762851,29.8363317 139.064972,31.5095306 138.986787,34.1976111 L135.234572,34.226 L135.234572,34.1976111 C135.352436,32.8317901 135.294657,32.0132438 135.061238,31.7419722 C134.711108,31.3350648 134.01558,31.1316111 132.974654,31.1316111 L131.498432,31.1316111 C130.457506,31.1316111 129.761978,31.3350648 129.411849,31.7419722 C129.061719,32.1488796 128.886654,32.9674259 128.886654,34.1976111 L128.886654,41.4083889 C128.886654,42.6385741 129.061719,43.4571204 129.411849,43.8640278 C129.761978,44.2709352 130.457506,44.4743889 131.498432,44.4743889 L132.974654,44.4743889 C134.01558,44.4743889 134.359248,44.2709352 134.709378,43.8640278 C135.059507,43.4571204 135.234572,42.6385741 135.234572,41.4083889 L135.234572,39.9302276 Z M155.242,34.013 L155.242,41.033 C155.242,43.427 154.849977,45.056 154.06593,45.92 C153.281883,46.784 151.810742,47.216 149.652506,47.216 L147.831494,47.216 C145.673258,47.216 144.202117,46.784 143.41807,45.92 C142.634023,45.056 142.242,43.427 142.242,41.033 L142.242,34.013 C142.242,31.619 142.634023,29.99 143.41807,29.126 C144.202117,28.262 145.673258,27.83 147.831494,27.83 L149.652506,27.83 C151.810742,27.83 153.281883,28.262 154.06593,29.126 C154.849977,29.99 155.242,31.619 155.242,34.013 Z M152.266,41.006 L152.266,34.04 C152.266,32.564 152.080943,31.601 151.710828,31.151 C151.340713,30.701 150.600483,30.476 149.490138,30.476 L148.041862,30.476 C146.931517,30.476 146.191287,30.701 145.821172,31.151 C145.451057,31.601 145.266,32.564 145.266,34.04 L145.266,41.006 C145.266,42.482 145.451057,43.445 145.821172,43.895 C146.191287,44.345 146.931517,44.57 148.041862,44.57 L149.490138,44.57 C150.600483,44.57 151.340713,44.345 151.710828,43.895 C152.080943,43.445 152.266,42.482 152.266,41.006 Z M59.88,18.36 L59.88,18.72 C59.88,19.14 59.973,19.428 60.159,19.584 C60.345,19.74 60.696,19.818 61.212,19.818 L61.932,19.818 C62.448,19.818 62.799,19.74 62.985,19.584 C63.171,19.428 63.264,19.14 63.264,18.72 L63.264,18.072 C63.264,17.64 63.186,17.349 63.03,17.199 C62.874,17.049 62.484,16.896 61.86,16.74 L59.844,16.236 C58.632,15.936 57.855,15.564 57.513,15.12 C57.171,14.676 57,13.866 57,12.69 L57,12.366 C57,11.082 57.273,10.2 57.819,9.72 C58.365,9.24 59.4,9 60.924,9 L61.77,9 C63.294,9 64.329,9.24 64.875,9.72 C65.421,10.2 65.694,11.082 65.694,12.366 L65.694,12.6 C65.694,13.032 65.478,13.248 65.046,13.248 L63.678,13.248 C63.246,13.248 63.03,13.032 63.03,12.6 L63.03,12.24 C63.03,11.82 62.937,11.532 62.751,11.376 C62.565,11.22 62.214,11.142 61.698,11.142 L60.996,11.142 C60.48,11.142 60.129,11.22 59.943,11.376 C59.757,11.532 59.664,11.82 59.664,12.24 L59.664,12.708 C59.664,13.14 59.742,13.431 59.898,13.581 C60.054,13.731 60.444,13.884 61.068,14.04 L63.084,14.544 C64.296,14.844 65.073,15.216 65.415,15.66 C65.757,16.104 65.928,16.914 65.928,18.09 L65.928,18.594 C65.928,19.878 65.655,20.76 65.109,21.24 C64.563,21.72 63.528,21.96 62.004,21.96 L61.14,21.96 C59.616,21.96 58.581,21.72 58.035,21.24 C57.489,20.76 57.216,19.878 57.216,18.594 L57.216,18.36 C57.216,17.928 57.432,17.712 57.864,17.712 L59.232,17.712 C59.664,17.712 59.88,17.928 59.88,18.36 Z M74.71,21.798 L68.122,21.798 C67.69,21.798 67.474,21.582 67.474,21.15 L67.474,9.81 C67.474,9.378 67.69,9.162 68.122,9.162 L74.62,9.162 C75.052,9.162 75.268,9.378 75.268,9.81 L75.268,10.782 C75.268,11.214 75.052,11.43 74.62,11.43 L70.138,11.43 L70.138,14.328 L73.954,14.328 C74.386,14.328 74.602,14.544 74.602,14.976 L74.602,15.948 C74.602,16.38 74.386,16.596 73.954,16.596 L70.138,16.596 L70.138,19.53 L74.71,19.53 C75.142,19.53 75.358,19.746 75.358,20.178 L75.358,21.15 C75.358,21.582 75.142,21.798 74.71,21.798 Z M86.94,17.478 L86.94,17.802 C86.94,19.41 86.655,20.505 86.085,21.087 C85.515,21.669 84.408,21.96 82.764,21.96 L81.54,21.96 C79.896,21.96 78.789,21.669 78.219,21.087 C77.649,20.505 77.364,19.41 77.364,17.802 L77.364,13.158 C77.364,11.55 77.649,10.455 78.219,9.873 C78.789,9.291 79.896,9 81.54,9 L82.764,9 C84.408,9 85.515,9.291 86.085,9.873 C86.655,10.455 86.94,11.55 86.94,13.158 L86.94,13.482 C86.94,13.914 86.724,14.13 86.292,14.13 L84.924,14.13 C84.492,14.13 84.276,13.914 84.276,13.482 L84.276,13.194 C84.276,12.414 84.165,11.895 83.943,11.637 C83.721,11.379 83.28,11.25 82.62,11.25 L81.684,11.25 C81.024,11.25 80.583,11.379 80.361,11.637 C80.139,11.895 80.028,12.414 80.028,13.194 L80.028,17.766 C80.028,18.546 80.139,19.065 80.361,19.323 C80.583,19.581 81.024,19.71 81.684,19.71 L82.62,19.71 C83.28,19.71 83.721,19.581 83.943,19.323 C84.165,19.065 84.276,18.546 84.276,17.766 L84.276,17.478 C84.276,17.046 84.492,16.83 84.924,16.83 L86.292,16.83 C86.724,16.83 86.94,17.046 86.94,17.478 Z M94.8387368,17.766 L94.8387368,9.81 C94.8387368,9.378 95.0389474,9.162 95.4393684,9.162 L96.7073684,9.162 C97.1077895,9.162 97.308,9.378 97.308,9.81 L97.308,17.802 C97.308,19.41 97.0438333,20.505 96.5155,21.087 C95.9871667,21.669 94.9610877,21.96 93.4372632,21.96 L92.3027368,21.96 C90.7789123,21.96 89.7528333,21.669 89.2245,21.087 C88.6961667,20.505 88.432,19.41 88.432,17.802 L88.432,9.81 C88.432,9.378 88.6322105,9.162 89.0326316,9.162 L90.3006316,9.162 C90.7010526,9.162 90.9012632,9.378 90.9012632,9.81 L90.9012632,17.766 C90.9012632,18.546 91.0041491,19.065 91.2099211,19.323 C91.415693,19.581 91.8244561,19.71 92.4362105,19.71 L93.3037895,19.71 C93.9155439,19.71 94.324307,19.581 94.5300789,19.323 C94.7358509,19.065 94.8387368,18.546 94.8387368,17.766 Z M102.175406,15.714 L104.163936,15.714 C104.707807,15.714 105.084552,15.594 105.294169,15.354 C105.503786,15.114 105.608594,14.694 105.608594,14.094 L105.608594,13.05 C105.608594,12.45 105.503786,12.03 105.294169,11.79 C105.084552,11.55 104.707807,11.43 104.163936,11.43 L102.175406,11.43 L102.175406,15.714 Z M105.319663,21.294 L103.908996,17.982 L102.175406,17.982 L102.175406,21.15 C102.175406,21.582 101.971454,21.798 101.56355,21.798 L100.271855,21.798 C99.8639518,21.798 99.66,21.582 99.66,21.15 L99.66,9.81 C99.66,9.378 99.8639518,9.162 100.271855,9.162 L104.180932,9.162 C105.687909,9.162 106.721831,9.438 107.282699,9.99 C107.843566,10.542 108.124,11.544 108.124,12.996 L108.124,14.148 C108.124,15.204 107.985199,16.011 107.707598,16.569 C107.429997,17.127 106.962608,17.514 106.30543,17.73 L107.801076,20.988 C107.86906,21.132 107.903052,21.252 107.903052,21.348 C107.903052,21.648 107.727427,21.798 107.376177,21.798 L105.982506,21.798 C105.676578,21.798 105.455631,21.63 105.319663,21.294 Z M117.411096,21.798 L111.240904,21.798 C110.836301,21.798 110.634,21.582 110.634,21.15 L110.634,9.81 C110.634,9.378 110.836301,9.162 111.240904,9.162 L117.326804,9.162 C117.731406,9.162 117.933708,9.378 117.933708,9.81 L117.933708,10.782 C117.933708,11.214 117.731406,11.43 117.326804,11.43 L113.12905,11.43 L113.12905,14.328 L116.703041,14.328 C117.107644,14.328 117.309945,14.544 117.309945,14.976 L117.309945,15.948 C117.309945,16.38 117.107644,16.596 116.703041,16.596 L113.12905,16.596 L113.12905,19.53 L117.411096,19.53 C117.815699,19.53 118.018,19.746 118.018,20.178 L118.018,21.15 C118.018,21.582 117.815699,21.798 117.411096,21.798 Z M122.675225,19.548 L124.788938,19.548 C125.399196,19.548 125.809734,19.419 126.02055,19.161 C126.231367,18.903 126.336775,18.384 126.336775,17.604 L126.336775,13.356 C126.336775,12.576 126.231367,12.057 126.02055,11.799 C125.809734,11.541 125.399196,11.412 124.788938,11.412 L122.675225,11.412 L122.675225,19.548 Z M120.811163,9.162 L124.922085,9.162 C126.442183,9.162 127.468527,9.453 128.001116,10.035 C128.533705,10.617 128.8,11.712 128.8,13.32 L128.8,17.64 C128.8,19.248 128.533705,20.343 128.001116,20.925 C127.468527,21.507 126.442183,21.798 124.922085,21.798 L120.811163,21.798 C120.411721,21.798 120.212,21.582 120.212,21.15 L120.212,9.81 C120.212,9.378 120.411721,9.162 120.811163,9.162 Z M138.01,14.418 L140.386,14.418 C141.226,14.418 141.646,14.034 141.646,13.266 L141.646,12.492 C141.646,11.724 141.226,11.34 140.386,11.34 L138.01,11.34 L138.01,14.418 Z M140.746,21.798 L136.084,21.798 C135.652,21.798 135.436,21.582 135.436,21.15 L135.436,9.81 C135.436,9.378 135.652,9.162 136.084,9.162 L140.566,9.162 C141.838,9.162 142.765,9.408 143.347,9.9 C143.929,10.392 144.22,11.13 144.22,12.114 L144.22,13.338 C144.22,14.49 143.752,15.186 142.816,15.426 C143.872,15.594 144.4,16.332 144.4,17.64 L144.4,18.846 C144.4,19.842 144.109,20.583 143.527,21.069 C142.945,21.555 142.018,21.798 140.746,21.798 Z M140.566,16.416 L138.01,16.416 L138.01,19.62 L140.566,19.62 C141.406,19.62 141.826,19.236 141.826,18.468 L141.826,17.568 C141.826,16.8 141.406,16.416 140.566,16.416 Z M149.203136,21.15 L149.203136,17.622 L145.782244,10.008 C145.704748,9.84 145.666,9.708 145.666,9.612 C145.666,9.312 145.820992,9.162 146.130976,9.162 L147.509296,9.162 C147.830351,9.162 148.062839,9.33 148.20676,9.666 L150.432,14.814 L152.65724,9.666 C152.801161,9.33 153.033649,9.162 153.354704,9.162 L154.733024,9.162 C155.043008,9.162 155.198,9.312 155.198,9.612 C155.198,9.708 155.159252,9.84 155.081756,10.008 L151.660864,17.622 L151.660864,21.15 C151.660864,21.582 151.461589,21.798 151.063038,21.798 L149.800962,21.798 C149.402411,21.798 149.203136,21.582 149.203136,21.15 Z" id="Combined-Shape" fill="#000000" fill-rule="nonzero"></path>
            <path d="M30.072898,20.2999205 C32.8304255,20.187911 35.4730559,20.9719779 37.5412015,22.8761406 C39.2646561,25.0043225 40.068935,27.468533 39.6093471,30.0447531 L38.9199652,38.2214517 L38.9002256,38.5568565 C38.707725,41.1231996 37.5699257,43.5652416 35.5879529,45.3900642 C33.5198073,47.2942269 30.532486,48.1903034 27.7749585,47.9662843 L12.1489698,47.9662843 C12.0340728,47.9662843 11.5744849,47.8542747 11.3446909,47.518246 C10.885103,47.0702077 10.885103,46.3981503 11.3446909,45.950112 L13.4128365,42.7018345 C14.2171153,41.8057579 15.3660851,41.1337005 16.6299518,41.1337005 L27.2004736,41.1337005 C28.1196495,41.2457101 29.1537222,41.0216909 29.9580011,40.3496335 C30.532486,39.6775761 30.9920739,38.66949 30.9920739,37.6614038 L31.6814557,30.3807818 C31.6814557,29.4847052 31.6814557,28.4766191 30.9920739,27.6925521 C30.302692,27.1325043 29.2686192,26.7964756 28.3494434,26.9084851 L26.1664009,26.9084851 C25.477019,26.7964756 24.9025341,26.2364277 25.0174311,25.5643703 L25.477019,21.5320258 C25.477019,20.9719779 25.9366069,20.4119301 26.6259888,20.2999205 Z M17.3335339,11.4312026 C19.4099816,9.74089584 22.0632203,8.72671178 25.0625337,9.06477313 L40.6358916,9.06477313 C40.7512498,9.06477313 41.2126827,9.17746025 41.4433991,9.40283449 C41.9048319,9.85358296 41.9048319,10.5297057 41.4433991,10.9804541 L39.3669513,14.1356935 C38.5594439,15.0371904 37.4058618,15.7133131 36.1369216,15.7133131 L25.6393247,15.7133131 C24.7164591,15.7133131 23.6782352,15.8260002 22.8707278,16.5021229 C22.2939367,17.1782456 21.8325039,18.1924297 21.8325039,19.2066138 L21.1403547,26.5312765 C21.0249965,27.4327734 21.1403547,28.5596446 21.8325039,29.2357673 C22.5246532,29.7992029 23.562877,30.1372642 24.4857427,30.0245771 L26.5621904,30.0245771 C27.1389814,30.1372642 27.7157725,30.7006998 27.6004143,31.3768225 L27.2543396,35.4335588 C27.2543396,35.9969944 26.7929068,36.56043 26.1007576,36.6731171 L22.6400114,36.6731171 C19.9867726,36.8984913 17.3335339,36.1096815 15.2570861,34.1940005 C13.526713,32.0529453 12.7192056,29.5738287 13.1806384,26.8693378 L13.8727877,18.6431782 L13.8921457,18.3192162 C14.0909531,15.7324248 15.340144,13.2702564 17.3335339,11.4312026 Z" id="Combined-Shape" fill="#06AF72" fill-rule="nonzero"></path>
            <rect id="Rectangle" fill="#06AF72" x="48" y="9" width="1.6" height="39"></rect>
            <path d="M153.132209,0 C160.251756,0.0723306234 166,5.8648781 166,13 C166,13.2830719 165.990953,13.5640306 165.973131,13.8426028 L166,13.8729462 L166,44 C166,51.0771346 160.344808,56.8334283 153.306856,56.9964496 L13,57 C5.92286542,57 0.166571665,51.3448082 0.00355044239,44.3068562 L0,43.9479051 L0,11.0606938 L0.165624008,10.9192606 C1.14517778,4.83014305 6.35373978,0.15543085 12.682636,0.00379801683 L12.9638711,0 L153.132209,0 Z M153.027238,3 L13.0658461,3 L13.0562272,3.00920827 C7.46306439,3.24175703 3,7.84967624 3,13.5 C3,13.6560826 3.00340561,13.8113697 3.01014658,13.9657912 L3,13.9776398 L3,44.0139106 L3.01298447,44.0267808 C3.27953727,49.4215075 7.6175489,53.7452337 13.0182028,53.9891426 L13.0303952,54 L153.083597,54 L153.101767,53.9830446 C158.450554,53.6808237 162.728821,49.3750827 162.987601,44.01479 L163,44 L163,13.9877556 L162.989457,13.9747953 C162.996461,13.8174065 163,13.6591166 163,13.5 C163,7.88237605 158.588444,3.29512625 153.040766,3.01368469 L153.027238,3 Z" id="Shape" fill="#06AF72"></path>
        </g>
    </g>
</svg>