<?xml version="1.0" encoding="utf-8"?>
<!-- Generator: Adobe Illustrator 23.0.3, SVG Export Plug-In . SVG Version: 6.00 Build 0)  -->
<svg version="1.1" baseProfile="tiny" id="图层_1"
	 xmlns="http://www.w3.org/2000/svg" xmlns:xlink="http://www.w3.org/1999/xlink" x="0px" y="0px" viewBox="0 0 972.2 720.6"
	 xml:space="preserve">
<g>
	<g>
		<path fill="#FF9800" d="M582.7,181.7c-10.3-4.9-21.2-8-32.3-10.5c-17.3-3.9-34.8-5.9-52.5-7.1c-10.6-0.7-21.1-0.9-31.7-0.7
			c-17.3,0.2-34.6,1.3-51.8,4.1c-10.3,1.6-20.4,4-30.3,7.5c-10.4,3.7-20.3,8.4-29.1,15.1c-11,8.3-19.2,18.6-24,31.6
			c-4.2,11.3-6.5,23.1-7.2,35.2c-0.7,10.6-0.1,21.1,1.6,31.6c1.9,12.1,5.1,23.8,9.6,35.1c5.9,15.2,13.6,29.5,23.6,42.4
			c12.1,15.7,27.2,27.6,45.6,35.3c12.5,5.2,25.5,8.3,38.9,10c9.7,1.2,19.4,1.9,32.1,1.9c8.7,0.1,20.2-0.9,31.6-3.1
			c14.3-2.7,28-7.3,40.9-14.1c20.2-10.6,36.6-25.6,49.7-44.2c9.9-14.1,17.4-29.5,23.3-45.8c4.7-13.1,8.4-26.5,9.7-40.5
			c0.9-8.8,0.8-17.5-0.7-26.2c-2.6-15.1-9.1-28.2-19.9-39.1C602,192.4,592.8,186.4,582.7,181.7z"/>
		<path fill="#FF9800" d="M313.3,151.4c10.9-1.6,21.7-3.2,32.6-4.5c8.6-1.1,17.3-1.9,26-2.6c9.5-0.8,19-1.5,28.5-2
			c10-0.5,20.1-0.9,30.1-1.1c10.9-0.2,21.8-0.2,32.6-0.1c10.4,0.2,20.7,0.6,31.1,1.2c9.6,0.6,19.2,1.4,28.8,2.3
			c14.3,1.3,28.4,3.4,42.5,6.2c11.1,2.2,22.1,5.2,32.9,8.5c23.2,7.1,46.5,13.5,70.1,18.9c7.4,1.7,14.8,3.2,22.3,4.1
			c3.6,0.4,7.3,0.6,10.9,0.6V58L270.3,0v159.5C284.5,156.3,298.9,153.5,313.3,151.4z"/>
		<path fill="#FF9800" d="M701.4,231.2c-6.1,0.1-11.8,1.8-17.2,4.5c-2.2,1.1-3.8,2.8-5.2,4.8c-2.1,2.9-3.5,6.2-4.8,9.5
			c-2.4,6.4-4.6,12.8-7.1,19.1c-3.6,8.9-6.5,18.2-9.8,27.2c-6.4,17.2-14.1,33.7-23.8,49.2c-10.2,16.3-22.4,31-37,43.6
			c-20.1,17.3-43.1,29-68.7,35.6c-10.1,2.6-20.3,4.2-30.6,5.2c-10,0.9-20,1-30,0.7c-8.3-0.2-16.6-0.7-24.8-1.6
			c-18.5-2-36.6-5.8-54-12.7c-15-6-28.6-14.1-40.4-25.3c-11.8-11.1-20.6-24.2-27.3-38.9c-5.4-11.8-9.1-24.1-12.1-36.7
			c-2.4-10.4-4.3-21-5.9-31.6c-1.5-9.5-2.8-19.1-4.9-28.5c-1.9-8.6-4.2-17.1-7.8-25.2c-1.7-3.9-3.7-7.6-6.2-11
			c-1.6-2.1-3.4-4.1-5.5-5.6c-2.3-1.7-4.9-2.8-7.9-2.7v353.1l431.6-55.7v-277C701.7,231.2,701.5,231.2,701.4,231.2z"/>
	</g>
	<g>
		<path fill="#434343" d="M34.9,640.5c13.1,5,26,11.4,26,29.9c0,18.5-15.7,26.5-30.9,26.5c-11.9,0-21.3-3.2-30-10.8l5.7-7.4
			c7.1,6.4,14.6,9.2,24.3,9.2c3.5,0,21.2-1,21.2-17.5c0-13.9-10.9-17.6-22-21.9c-12-4.6-25.9-9.4-25.9-28.6
			c0-14.7,11.5-24.7,28.2-24.7c10.2,0,19.3,4,26.5,9.4l-5.6,7.4c-5.7-4.1-13-7.8-20.9-7.8c-8.9,0-18.5,4.4-18.5,15.7
			C13,633.8,23.8,636.2,34.9,640.5"/>
		<path fill="#434343" d="M148,696.9h-9.2v-38.4c0-10.9-6.9-13.3-12.9-13.3c-7.4,0-13,5.8-13,13.3v38.4h-9.1v-38.4
			c0-10.9-6.9-13.3-12.9-13.3c-7.4,0-12.9,5.8-12.9,13.3v38.4h-9.2v-59.3H78v6c4.3-4.3,8.6-7.3,15.7-7.3c7.3,0,12.5,3.8,15.7,8.6
			c6.2-6.6,11.3-8.6,19.1-8.6c10.8,0,19.6,8.9,19.6,22.5V696.9z"/>
		<path fill="#434343" d="M204.8,695.5h-9.2v-6.7c-7.2,7.7-15,8-19.9,8c-10.5,0-21.4-7.2-21.4-19.6c0-4.6,1.7-11.1,7.7-15.8
			c6.9-5.6,17.9-6.6,33.4-3.6c-0.9-10.6-4.7-14.2-14.8-14.2c-4.6,0-11.4,1-18.2,4.7l-3.8-8c8.8-4.6,17.5-5.5,22.1-5.5
			c21,0,24.2,14.3,24.2,28.3V695.5z M195.5,666.5c-17.3-3.5-24.3-1-28,1.8c-2.6,1.9-3.9,5.1-3.9,9c0,1.6,1.1,11.3,13,10.8
			c12.4-0.5,18.8-6.2,18.8-16.9V666.5z"/>
		<path fill="#434343" d="M252.9,639.1l-4.6,8.8c-2.7-2.3-6.4-2.9-9.7-2.9c-7.9,0-14.1,6.2-14.1,14.1v37.8h-9.2v-59.3h9.2v7.2
			c3.8-5.1,9.5-8.5,16.5-8.5C245.4,636.2,249.5,637.2,252.9,639.1"/>
		<path fill="#434343" d="M286.4,693.4c-2.7,2.2-6.2,3.5-10.1,3.5c-8.6,0-15.4-6.9-15.4-16v-36.1h-5.6v-8.5h5.6V614h9.2v22.3h12.2
			v8.5h-12.2v36.1c0,3.5,1.9,7.3,6.3,7.3c1.9,0,3.8-0.7,5.1-1.9L286.4,693.4z"/>
		<path fill="#434343" d="M349.9,667.1c0,16.8-13.4,29.8-30,29.8H292l-0.1-99H319c13.5,0,24.3,10.7,24.3,24.4
			c0,7.5-3.9,15.3-9.7,18.7C343,645.6,349.9,655.7,349.9,667.1 M301.4,606.7v31H319c8.3,0,14.6-6.9,14.6-15.3
			c0-8.5-6.3-15.7-14.6-15.7H301.4z M340.2,667.1c0-11.6-8.9-20.7-20.3-20.7v-0.1c-0.4,0.1-0.5,0.1-18.5,0.1l0.1,41.7h18.4
			C331.3,688.1,340.2,678.6,340.2,667.1"/>
		<path fill="#434343" d="M357.5,634.3h9.2v36.8c0,12.5,7.2,15.1,14.1,15.1c8.4,0,14.5-6.9,14.5-15.4v-36.5h9.2v59.3h-9.2v-6
			c-5.7,5.7-10.9,7.3-17,7.3c-11.8,0-20.8-8.8-20.8-23.8V634.3z"/>
		<polygon fill="#434343" points="427.2,720.6 417.5,720.6 432.3,688.2 408.9,634.3 418.8,634.3 437.2,677.8 457.4,634.3 
			467.3,634.3 		"/>
		<g>
			<path fill="#434343" d="M917.5,665.9c0,17.4-14,30.9-31.4,30.9c-17.3,0-31.2-13.5-31.2-30.9c0-17.5,14-31.1,31.2-31.1
				C903.6,634.8,917.5,648.4,917.5,665.9z M886.2,643.5c-12.3,0-21.8,9.8-21.8,22.4c0,12.4,9.5,22.1,21.8,22.1
				c12.4,0,21.9-9.7,21.9-22.1C908.1,653.4,898.6,643.5,886.2,643.5z"/>
			<path fill="#434343" d="M638,665.9c0,17.4-14,30.9-31.4,30.9c-17.3,0-31.2-13.5-31.2-30.9c0-17.5,14-31.1,31.2-31.1
				C624,634.8,638,648.4,638,665.9z M606.6,643.5c-12.3,0-21.8,9.8-21.8,22.4c0,12.4,9.5,22.1,21.8,22.1c12.4,0,21.9-9.7,21.9-22.1
				C628.5,653.4,619,643.5,606.6,643.5z"/>
			<path fill="#434343" d="M972.2,695.4H963v-36.8c0-12.5-7.8-15.1-14.7-15.1c-8.4,0-14.7,6.9-14.7,15.4v36.5h-9.2v-59.3h9.2v6
				c5.7-5.7,11.2-7.3,17.3-7.3c11.8,0,21.4,9.1,21.4,24.2V695.4z"/>
			<path fill="#434343" d="M849.6,613.8c0,3.4-2.8,6.3-6.3,6.3c-3.4,0-6.2-2.9-6.2-6.3c0-3.4,2.8-6.3,6.2-6.3
				C846.8,607.5,849.6,610.4,849.6,613.8z M848,636.1v59.3h-9.5v-59.3H848z"/>
			<path fill="#434343" d="M737.3,687.6c-6.3,6-14.1,9.1-24.1,9.1c-17.4,0-29.8-12.6-29.8-30.9c0-18,12.2-31.1,28.7-31.1
				c17,0,27.1,13.3,26.7,33h-46c0,11.1,8.5,20.3,20.3,20.3c7.8,0,13.6-2.7,18.2-7.1L737.3,687.6z M693.7,658.8h35.5
				c-1.8-7.8-6.4-15.3-17-15.3C703.3,643.5,696.2,649,693.7,658.8z"/>
			<path fill="#434343" d="M793.8,690.8c-5,3.8-11.3,6-18.8,6c-17.1,0-30.8-13.5-30.8-31c0-17.4,13.6-31,30.8-31
				c7.2,0,13.3,1.9,18,5.5l-4.5,7.8c-3.4-2.8-7.9-4.5-13.5-4.5c-12.2,0-21.5,9.8-21.5,22.3c0,12.5,9.4,22.2,21.5,22.2
				c5.7,0,10.3-1.7,13.9-4.6L793.8,690.8z"/>
			<path fill="#434343" d="M829.5,693.2c-2.7,2.2-6.2,3.5-10.1,3.5c-8.6,0-15.4-6.9-15.4-16v-36.1h-5.6v-8.5h5.6v-22.3h9.2v22.3
				h12.2v8.5h-12.2v36.1c0,3.5,1.9,7.3,6.3,7.3c1.9,0,3.8-0.7,5.1-1.9L829.5,693.2z"/>
			<g>
				<path fill="#434343" d="M572.5,629l-6.5,5.5c-3.3-4.6-6.7-8.1-11.3-10.4c-4.6-2.4-9.7-3.5-15.2-3.5c-6,0-11.1,1.5-16.2,4.6
					c-5.1,3.1-9.1,6.7-12,11.9c-2.8,5.2-4.2,11.1-4.2,17.6c0,9.9,2.6,17.5,8.9,24.1c6.3,6.6,14.3,9.9,23.9,9.9
					c10.6,0,19.5-4.4,26.6-13.3l6,5.4c-3.8,5.1-8.5,9.1-14.1,11.9c-5.6,2.8-11.9,4.2-18.9,4.2c-13.2,0-23.7-4.7-31.3-14.1
					c-6.4-8-9.6-17.6-9.6-28.8c0-11.8,3.9-21.8,11.7-29.9c7.8-8.1,17.5-12.1,29.2-12.1c7.1,0,13.4,1.5,19.1,4.5
					C564.2,619.4,568.8,623.6,572.5,629z"/>
			</g>
			<rect x="645.7" y="597.7" fill="#434343" width="9.2" height="99"/>
			<rect x="665.1" y="597.7" fill="#434343" width="9.2" height="99"/>
		</g>
	</g>
</g>
</svg>
