<?xml version="1.0" encoding="utf-8"?>
<!-- Generator: Adobe Illustrator 19.0.0, SVG Export Plug-In . SVG Version: 6.00 Build 0)  -->
<svg version="1.1" id="layer" xmlns="http://www.w3.org/2000/svg" xmlns:xlink="http://www.w3.org/1999/xlink" x="0px" y="0px"
	 viewBox="-153 -46 652 652" style="enable-background:new -153 -46 652 652;" xml:space="preserve">
<path id="Vector" d="M64.8,308.1h6c-0.4,0.7-0.7,1.2-0.9,1.6c-6.6,9.5-13.1,19-19.7,28.5c-0.5,0.7-0.7,1.8-0.8,2.6
	c-0.1,6.2,0,12.4,0,18.7h-6.1c0-0.6,0-1.3,0-1.9c0-5.5,0-11.1,0-16.6c0-0.9-0.4-2.1-0.8-2.9c-6.4-9.5-13-19-19.4-28.5
	c-0.4-0.5-0.6-0.9-0.9-1.5h6.6c0.6,0.1,1.2,0.7,1.6,1.3c5.3,7.7,10.5,15.5,15.7,23.3c0.1,0.2,0.4,0.5,0.7,0.9
	c5.4-7.8,10.7-15.6,15.9-23.4C63.1,309.1,63.9,308.4,64.8,308.1z M87.4,336.5c9.4,0,18.6,0,27.9,0c0-2,0-3.6,0-5.6
	c-9.4,0-18.6,0-27.9,0c0-5.9,0-11.5,0-17.3c10.4,0,20.8,0,31.3,0c0-1.9,0-3.6,0-5.4c-12.4,0-24.8,0-37.4,0c0,17.2,0,34.3,0,51.4H119
	c0-1.8,0-3.4,0-5.3c-10.7,0-21.2,0-31.6,0C87.4,348.3,87.4,342.5,87.4,336.5z M29.5,237.8C28.5,261,10.7,281-16.8,280.5
	c-26.2-0.5-44.4-20.5-44-44.7c-0.4-23.5,17.3-44.7,45.2-44.8C11.4,190.9,30.5,211.5,29.5,237.8z M11.8,225.7
	c-5.7-19.7-30.2-27-45.9-14.1c-7.5,6.2-10.7,14.5-10.8,24.1c-0.1,4.7,0.8,9,2.7,13.3c7.8,18.5,32.7,23.5,46.7,9.1
	C13.5,248.9,15.3,237.7,11.8,225.7z M-57.5,192.6c-24.6,0-49.2,0-73.8,0c0,4.7,0,9.3,0,13.9c9.7,0,19.4,0,29.4,0
	c0,24.2,0,48.4,0,72.4c5.3,0,10.3,0,15.6,0c0-24.1,0-48.2,0-72.5c9.7,0,19.2,0,28.8,0C-57.5,201.7-57.5,197.3-57.5,192.6z
	 M219.6,233.4c1.1-23.5,19-42.5,45.4-42.4c27.3,0.1,45,20.1,45.1,44.7c-0.2,25.8-19.6,45.5-47.2,44.7
	C237.4,279.8,218.5,260.1,219.6,233.4z M238.1,248.1c6.7,17.9,29.3,24.1,44.4,12.4c8-6.2,11.1-14.8,11.6-26.5c-0.5-2-0.8-6-2.1-9.6
	c-3.7-10.3-11-16.9-21.9-18.7c-11-1.9-20.6,1.2-27.5,10.1C234.8,225.5,233.8,236.6,238.1,248.1z M-17.3,336.5c9.4,0,18.7,0,28,0
	c0-1.9,0-3.6,0-5.6c-9.4,0-18.7,0-28,0c0-5.9,0-11.6,0-17.4c10.5,0,20.8,0,31.3,0c0-1.9,0-3.5,0-5.3c-12.5,0-24.9,0-37.2,0
	c0,17.2,0,34.3,0,51.4h37.6c0-1.8,0-3.4,0-5.3c-10.7,0-21.1,0-31.6,0C-17.3,348.3-17.3,342.5-17.3,336.5z M313.2,358.6
	c0.1,0.2,0.5,0.9,0.5,0.9h-6.6c0,0-3.7-8.2-5.2-11.8c-0.6-1.4-0.6-1.4-0.6-1.4h-28.1c0,0-0.1,0.1-0.6,1.4c-1.8,4-3.5,7.8-5.3,11.8
	H261c1.8-3.9,3.4-7.6,5.2-11.4c5.9-13,11.8-25.9,17.6-38.9c0.2-0.6,0.6-1.2,0.6-1.2h6.2c0,0,0.7,1.5,1.3,2.8
	C298.8,326.9,306,342.7,313.2,358.6z M298.8,340.7c-3.9-8.7-7.6-17.1-11.6-25.9c-4,8.9-7.7,17.2-11.6,25.9H298.8z M366.3,243.4
	c7.5,11.7,15,23.5,22.8,35.7c-3.3,0-6.1,0-9,0c-2.6,0-5.2-0.1-7.7,0c-1.2,0-1.8-0.4-2.3-1.3c-6.2-9.8-12.5-19.7-18.7-29.6
	c-1.2-1.8-2.3-2.7-4.6-2.6c-5.2,0.2-10.3,0.1-15.8,0.1c0,11.2,0,22.1,0,33.1c-5.2,0-10.2,0-15.2,0c0-28.8,0-57.5,0-86.3
	c0.6,0,1.2-0.1,1.6-0.1c12.2,0,24.4-0.1,36.5,0c5.4,0,10.7,0.6,15.8,2.6c8,3.2,13.1,8.7,14.6,17.2c0.9,5.2,0.8,10.3-0.8,15.3
	c-2.3,7.1-7.1,11.8-14.2,14.4c-0.9,0.4-1.9,0.7-2.8,1.1C366.6,243.2,366.5,243.2,366.3,243.4z M369.2,218.1
	c-0.2-4.9-2.6-8.5-7.4-9.8c-3.3-0.9-6.7-1.4-10.1-1.5c-6.2-0.2-12.4-0.1-18.5-0.1c-0.7,0-1.3,0-2.1,0c0,8.5,0,16.9,0,25.3
	c7.4,0,14.4,0.1,21.5,0c3.6-0.1,7.1-0.8,10.4-2.6C367.3,226.8,369.4,222.9,369.2,218.1z M352.1,338.8c5.3,7,10.3,13.7,15.6,20.7
	h-7.4c-0.4-0.2-0.7-0.7-0.9-1.1c-4.3-5.9-8.8-11.7-13.1-17.6c-0.4-0.6-1.2-1.2-1.8-1.2c-4.4-0.1-8.9,0-13.6,0c0,6.7,0,13.2,0,19.8
	h-6.2c0-17.1,0-34.2,0-51.4c0.1,0,0.4,0,0.5,0h24.4c4.3,0.2,8.3,1.5,11.6,4.4c4.4,4.1,5.5,9.2,4.2,14.9c-1.3,5.6-5.3,8.7-10.4,10.5
	C354.2,338.2,353.2,338.5,352.1,338.8z M349.1,334.1c1.6,0,3.4-0.7,4.9-1.4c2.8-1.3,4.7-3.4,5.4-6.6c1.4-6.1-2-11.4-8.5-12.1
	c-6.4-0.7-13.1-0.4-19.6-0.6c-0.1,0-0.2,0.1-0.4,0.2c0,6.7,0,13.5,0,20.4C337.2,334.3,343.2,334.4,349.1,334.1z M468.7,230
	c0,3.6,0,7.3,0,10.9c-0.7,2.9-1.1,5.9-2,8.7c-5.3,15.9-16.5,24.9-32.6,28.3c-3.9,0.8-7.7,1.1-11.7,1.2c-9.8,0.1-19.8,0-29.6,0
	c-0.7,0-1.3,0-2.1,0c0-28.9,0-57.6,0-86.5c0.7,0,1.3,0,2,0c10,0,20-0.1,30,0c9.3,0.1,18.3,1.8,26.3,6.7
	c10.9,6.6,17.1,16.3,19.1,28.8C468.2,228.6,468.6,229.3,468.7,230z M452.6,233.8c-0.4-12.3-8.3-22.6-20.1-25.9
	c-8.7-2.5-17.4-0.9-26.5-1.4c0,19.7,0,39,0,58.3c7.3,0,14.4,0.5,21.4-0.1c8.5-0.7,15.6-4.7,20.4-11.9
	C451.7,247,452.8,240.6,452.6,233.8z M220.9,336.5c9.4,0,18.6,0,27.9,0c0-2,0-3.6,0-5.6c-9.4,0-18.6,0-27.9,0c0-5.9,0-11.6,0-17.3
	c10.4,0,20.8,0,31.3,0c0-1.9,0-3.6,0-5.4c-12.4,0-24.7,0-37.2,0c0,17.2,0,34.3,0,51.4h37.6c0-1.8,0-3.4,0-5.3c-10.7,0-21.1,0-31.6,0
	C220.9,348.3,220.9,342.5,220.9,336.5z M77.7,247.7c-0.9-2.3-21-55.3-21-55.3s-18,0-21.5,0c0,28.9,0,57.7,0,86.5c5,0,9.8,0,15,0
	c0-20,0-40,0-60c2.1,4.4,23.1,60.1,23.1,60.1h8.4c0,0,23.2-60.4,23.3-60.3c0,20,0,40,0,60.2c5.2,0,10.2,0,15.2,0
	c0-28.9,0-57.6,0-86.4c-6.9,0-21.4,0-21.4,0S79.7,242.3,77.7,247.7z M182.3,350.7l-14.1-42.5h-5.2L149,350.4c0,0-9.7-28.3-14.5-42.3
	c-2.2,0-4.3,0-6.4,0c0.1,0.5,16,45.7,18,51.4h5.6c4.6-13.5,13.8-40.5,13.8-40.5h0.4c0,0,9.1,26.9,13.6,40.5h5.6
	c6.1-17.1,12.1-34.2,18.3-51.4H197C192,322.1,182.3,350.7,182.3,350.7z M169.4,206.5c16.4,0,32.6,0,48.7,0c0-4.7,0-9.3,0-13.8
	c-21.5,0-42.9,0-64.2,0c0,28.8,0,57.6,0,86.3c5,0,10,0,15.2,0c0-11,0-22,0-33.1c15.2,0,30.2,0,45.2,0c0-4.7,0-9.3,0-13.9
	c-15.1,0-30.1,0-45.1,0C169.4,223.3,169.4,214.9,169.4,206.5z"/>
</svg>
