<?xml version="1.0" encoding="utf-8"?>
<!-- Generator: Adobe Illustrator 24.2.1, SVG Export Plug-In . SVG Version: 6.00 Build 0)  -->
<svg version="1.1" xmlns:svg="http://www.w3.org/2000/svg"
	 xmlns="http://www.w3.org/2000/svg" xmlns:xlink="http://www.w3.org/1999/xlink" x="0px" y="0px" viewBox="0 0 566.9 31.5"
	 style="enable-background:new 0 0 566.9 31.5;" xml:space="preserve">
<style type="text/css">
	.st0{fill:#D61233;}
	.st1{fill:#FFFFFF;}
	.st2{fill:#02154E;}
</style>
<path class="st0" d="M268.8,23.4V8h23.6v15.4L268.8,23.4L268.8,23.4z"/>
<path class="st1" d="M245.2,23.4V8.1h23.6v15.4H245.2z"/>
<path class="st2" d="M58.3,0c-10,0-16.5,7.2-16.5,15.7c0,8.3,6.3,15.8,16.4,15.8c10.4,0,16.6-7.5,16.6-15.8C74.8,7.2,68.4,0,58.3,0z
	 M481.9,0c-9.4,0-16.5,6.9-16.5,15.9c0,9,6.9,15.6,16.4,15.6c4.3,0,7.6-0.7,11.7-2.5h0V16h-10.3v4h5.9v6.3c-2.1,0.7-4.3,1.2-6.7,1.2
	c-7.3,0-12.4-4.8-12.4-11.7C470,9.1,475.2,4,481.8,4c3.7,0,7.4,1.1,11,3V2.6C488,0.6,485.5,0,481.9,0z M0,0.4v4h10.6v26.8H15V4.4
	h10.6v-4H0z M95.5,0.4v30.7h4.4V7.2h0.1l9.5,11.9h0.7l9.4-11.9h0.1v23.9h4.4V0.4h-4.1L109.9,13L99.7,0.4H95.5z M149.1,0.4v30.7h4.4
	V7.2h0.1l9.5,11.9h0.7l9.5-11.9h0.1v23.9h4.4V0.4h-4.1L163.5,13L153.3,0.4H149.1z M196.9,0.4l11.4,14.5v16.2h4.4V14.9l11.4-14.5
	h-5.3L210.5,11l-8.2-10.6H196.9z M245.2,0.4V8h47.2V0.4H245.2z M317.5,0.4v30.7h4.4V17.7h17.2v13.4h4.4V0.4h-4.4v13.4h-17.2V0.4
	H317.5z M361.8,0.4v30.7h4.4V0.4H361.8z M384.3,0.4v30.7h18.3v-4h-13.9V0.4H384.3z M415.2,0.4v30.7h4.4V16.8h12v-4h-12V4.4h12v-4
	H415.2z M447.1,0.4v30.7h4.4V0.4H447.1z M510.3,0.4v30.7h17.8v-4h-13.4v-9.5h12.6v-4h-12.6V4.4h13v-4H510.3z M543.2,0.4v30.7h4.4
	V17.8h1.8c2.3,0,4.1,0.7,8.1,7l4,6.3h5.3c-2.1-2.9-2.9-4-4.2-6.1c-2.3-3.8-4-6.7-6.8-8.5c3.3-1.3,5.1-4,5.1-7.5
	c0-5.3-3.9-8.6-10.1-8.6H543.2z M58.3,4c6.9,0,12,5,12,11.7c0,6.7-5.1,11.7-12,11.7c-6.8,0-11.9-5-11.9-11.7C46.4,9,51.5,4,58.3,4z
	 M547.6,4.2h2.8c4.3,0,6,1.8,6,4.6c0,2.6-1.3,5-6,5h-2.8V4.2z M245.2,23.4v7.7h47.2v-7.7H245.2z"/>
</svg>
