<?xml version="1.0" encoding="utf-8"?>
<!-- Generator: Adobe Illustrator 19.2.1, SVG Export Plug-In . SVG Version: 6.00 Build 0)  -->
<svg version="1.1" id="layer" xmlns="http://www.w3.org/2000/svg" xmlns:xlink="http://www.w3.org/1999/xlink" x="0px" y="0px"
	 viewBox="0 0 652 652" style="enable-background:new 0 0 652 652;" xml:space="preserve">
<style type="text/css">
	.st0{fill:#242424;}
</style>
<path class="st0" d="M324.5,315c-10.7-2.1-20.4-6-20.5-15.2c0-0.2,0-0.5,0-0.7c0.6-7.2,8.9-11.2,16.7-11.2c7.5,0,13.1,3.2,18.2,9.1
	l7.8-6.2c-11.7-7.9-17.3-8.1-26-8.1c-4.9,0-12.2,1.2-18.1,4.7c-5.9,3.4-10.5,8.9-10.5,17.7c0,0.2,0,0.2,0,0.4
	c0.1,15.9,18.6,18.6,24.8,19.9c7.2,1.5,21.2,4.7,21.4,16.8c-0.1,8.1-9.1,12.4-16.4,12.4c0,0,0,0-0.1,0c-6.3,0-16.2-1.3-23-10.8
	l-8.6,6.5c7,5.7,15,9.3,31.7,9.4c17.2-0.1,30.1-8.7,30.1-24.2C352.1,321.5,337.5,317.4,324.5,315L324.5,315z M119.1,357.6h49.1V353
	h-34.5v-29.8v-0.8h27.7v-4.4l-27.7,0.2v-29.6h34.5V284h-49.1V357.6z M509.7,285c4.5,0,9.1,1.5,12.5,4.6c3.2,3,5.5,7.4,5.7,13.4h12.6
	c-0.5-10.9-7.3-20.1-30.7-20.2c-24.1,0.2-37.9,10.4-38,38.3c0.1,27.7,14.2,38.3,36.8,38.3c16.8,0,24.7-3.9,28.8-9.5
	c2.2-3.1,2.8-5.4,2.9-8.6h-9.8c-0.6,8.4-7.9,15.1-17.6,15.2c-5.8,0-12.4-0.9-17.4-5.8c-5.1-4.9-8.4-13.7-8.4-28.9
	c0-16.4,3.3-25.6,7.9-30.7C499.5,285.9,505.3,285.1,509.7,285L509.7,285z M59.2,347.7l-0.8,2.8L36.6,284H21.8l26.5,73.7h13.5
	L89.3,284h-7.2L59.2,347.7z M243.4,324.9l-0.6-1l1.1-0.4c6.9-2.5,16.3-7.9,16.3-19.9c0-11.9-9-19.6-32.9-19.7l-28,0v73.7h14.6v-32.3
	h14.9l19.9,32.3h14.9L243.4,324.9z M223.9,322.1L223.9,322.1l-10,0v-34.6h12c11.7,0,19.5,7.4,19.5,16.4
	C245.2,312.8,237.4,322.1,223.9,322.1L223.9,322.1z M406.5,283.9l-34.1,73.7h6.5l11.9-25.2l0.3-0.6h36.2l10.6,25.8h13.8l-31.4-73.7
	H406.5z M392.9,327.6l16.4-35l0.9-2l15.3,37L392.9,327.6L392.9,327.6z M621.8,288.4V284h-49.1v73.7h49.1V353h-34.5v-29.8v-0.8h27.5
	v-4.4l-27.5,0.2v-29.6H621.8z"/>
</svg>
