<?xml version="1.0" encoding="UTF-8"?>
<svg width="25px" height="18px" viewBox="0 0 25 18" version="1.1" xmlns="http://www.w3.org/2000/svg" xmlns:xlink="http://www.w3.org/1999/xlink">
    <title>Visa</title>
    <g id="Desktop---Prototype---V-10" stroke="none" stroke-width="1" fill="none" fill-rule="evenodd">
        <g id="Empty-cart-A" transform="translate(-1372.000000, -533.000000)" fill-rule="nonzero">
            <g id="Group-28" transform="translate(160.000000, 431.000000)">
                <g id="Group-76" transform="translate(977.000000, 101.000000)">
                    <g id="Group-71-Copy-4" transform="translate(229.000000, 0.000000)">
                        <g id="Visa" transform="translate(6.000000, 1.000000)">
                            <polygon id="Path" fill="#FFFFFF" points="0 0 24.6315789 0 24.6315789 18 0 18"></polygon>
                            <path d="M0.947368421,1.99488112 C1.26201561,1.84837853 1.62183492,1.90754304 1.959847,1.90190832 C2.7340037,1.92022115 3.50971806,1.88500418 4.28387476,1.91599511 C4.63279046,1.91458643 4.93186106,2.17660066 4.9801485,2.48228393 C5.22314336,3.547245 5.44588864,4.6164321 5.68421053,5.68421053 C5.29012271,4.43330388 4.24960626,3.41201185 3.02684366,2.76261098 C2.38041503,2.41185 1.65921875,2.20759159 0.947368421,1.99488112 L0.947368421,1.99488112 Z" id="Path" fill="#F4A929"></path>
                            <path d="M7.28339579,2.02489244 C7.92380938,2.03222386 8.56273709,2.02929129 9.2016648,2.02489244 C8.22990033,4.31669603 7.32351451,6.63489275 6.33094774,8.91789863 C5.70687881,8.89883693 5.08280988,8.90763464 4.45874096,8.90763464 C3.90599419,6.91495321 3.39039439,4.91200778 2.84210526,2.91786006 C4.0085198,3.59381748 5.00108657,4.65687417 5.37701381,5.95893533 C5.43347719,6.21113636 5.4735959,6.46920254 5.52262989,6.72433614 C6.10509422,5.15687739 6.69498794,3.59088491 7.28339579,2.02489244 L7.28339579,2.02489244 Z M9.91934406,2.02195987 C10.5211248,2.02635872 11.1229056,2.02635872 11.7246863,2.02195987 C11.3547026,4.31816232 10.9654025,6.61143219 10.604334,8.90910092 C10.005525,8.91056721 9.40671602,8.91056721 8.80642114,8.90910092 C9.15114493,6.60996591 9.55678973,4.3196286 9.91934406,2.02195987 Z M13.4364182,2.45451397 C14.5151659,1.75509598 15.9252645,1.77562397 17.1184249,2.16272324 C17.0634474,2.67152416 16.9772664,3.17592623 16.8881137,3.67886202 C16.2536437,3.37827357 15.5136762,3.24484163 14.8242286,3.41932956 C14.4988213,3.49557638 14.1778715,3.89440593 14.4483014,4.19352808 C15.0040199,4.75511527 15.8792023,4.88268207 16.4022315,5.49412296 C17.0084699,6.07917071 16.9861817,7.06451428 16.5731075,7.74926942 C16.1362593,8.47214797 15.2952521,8.85044952 14.4765331,8.95895462 C13.5508309,9.05426315 12.5864958,8.99707803 11.7187428,8.64370332 C11.8108673,8.13050354 11.8881329,7.61437119 11.9817433,7.10117141 C12.7321119,7.48387182 13.6028366,7.67595517 14.4393861,7.49266953 C14.7231889,7.39882728 15.015907,7.16862053 14.990647,6.84017267 C14.8970367,6.44867455 14.4824766,6.28151805 14.160041,6.10409755 C13.5344862,5.80057654 12.8613833,5.42814013 12.5805523,4.76098041 C12.2313708,3.91786649 12.693479,2.93105662 13.4364182,2.45451397 L13.4364182,2.45451397 Z M19.3546719,2.727243 C19.475028,2.41052542 19.7127686,2.06594842 20.0886958,2.04688672 C20.6414426,2.0087633 21.1971611,2.04102158 21.7499079,2.03075758 C22.2447054,4.32402746 22.7231582,6.61876362 23.2105263,8.91203349 C22.6548078,8.91349978 22.0990893,8.91349978 21.5433708,8.91496606 C21.4646192,8.57038907 21.3903253,8.22434579 21.3190031,7.87683622 C20.5478322,7.87683622 19.7781472,7.87830251 19.0084622,7.87390365 C18.8851343,8.22141322 18.7573488,8.56892278 18.6251056,8.91349978 C17.9950931,8.91349978 17.3650807,8.91349978 16.7350683,8.91496606 C17.605793,6.85190295 18.485433,4.7917724 19.3546719,2.727243 L19.3546719,2.727243 Z" id="Shape" fill="#1B4DA2"></path>
                            <path d="M19.4210526,6.62995489 C19.739978,5.68637594 20.0010453,4.71518797 20.3580724,3.78947368 C20.4639105,4.74766917 20.6713532,5.68637594 20.8421053,6.63157895 C20.3679507,6.63157895 19.8952072,6.63157895 19.4210526,6.62995489 Z" id="Path" fill="#FFFFFF"></path>
                            <path d="M12.3846923,13.2640332 C13.0976265,13.2765374 14.0156081,13.1577479 14.469867,13.8407875 C14.9493626,14.6926333 14.5944728,15.932108 13.7033051,16.3744426 C13.1323268,16.6761055 12.4604021,16.5463748 11.8421053,16.5745092 C12.0313798,15.4725802 12.1780676,14.3628361 12.3846923,13.2640332 L12.3846923,13.2640332 Z" id="Path" fill="#161314"></path>
                            <path d="M15.6093434,13.2634085 C16.0904395,13.2634085 16.5715355,13.2618424 17.0526316,13.2665407 C17.0324175,13.3652058 16.9933368,13.5609698 16.9731227,13.6596349 C16.6227446,13.6799943 16.2723665,13.6658993 15.9219885,13.6690315 C15.8882983,13.9994812 15.8438272,14.3283648 15.7845325,14.65255 C16.0580969,14.6541161 16.3316613,14.6541161 16.6065733,14.6556822 C16.6065733,14.7606117 16.6038781,14.9704708 16.6038781,15.0754003 C16.3168376,15.0738342 16.0311447,15.0722681 15.7441042,15.0691358 C15.6848095,15.4465689 15.6295575,15.8240019 15.5770008,16.2030011 C15.9489406,16.2092655 16.3208804,16.2076994 16.6941679,16.2092655 C16.6766489,16.2938356 16.6429587,16.4614096 16.6254398,16.5459796 C16.1389534,16.6086241 15.6470764,16.5600747 15.1578947,16.5741697 C15.3007412,15.4684945 15.4476305,14.3643854 15.6093434,13.2634085 L15.6093434,13.2634085 Z" id="Path" fill="#181415"></path>
                            <path d="M17.0526316,16.5789474 C17.2085588,15.4756227 17.3524916,14.3691725 17.5017553,13.2642851 C17.9068996,13.2846013 18.3520251,13.1892715 18.7171881,13.4486935 C19.1409903,13.8409519 18.9330873,14.6364084 18.4706365,14.8583235 C18.9890612,15.106806 18.9783995,16.0085317 18.5412702,16.34453 C18.108139,16.6977189 17.5457348,16.5320639 17.0526316,16.5789474 L17.0526316,16.5789474 Z" id="Path" fill="#191617"></path>
                            <path d="M19.928245,13.2943067 L20.3684211,13.2631579 C20.1947876,14.3689402 20.0379083,15.4762799 19.8490438,16.5789474 L19.4210526,16.5664878 C19.6160095,15.4809523 19.7652733,14.386072 19.928245,13.2943067 Z" id="Path" fill="#181415"></path>
                            <path d="M20.9282022,13.2764667 C21.6879699,13.2484267 22.4477376,13.2749089 23.2090158,13.2655623 C23.2090158,13.3668176 23.2090158,13.5693282 23.2105263,13.6705835 C22.8872852,13.6690257 22.564044,13.6674679 22.2408029,13.6643524 C22.0595462,14.6223833 21.9583445,15.5944343 21.7785983,16.5509074 C21.6743757,16.5586963 21.4674409,16.5727163 21.3647288,16.5789474 C21.5112446,15.6084542 21.6486976,14.6364033 21.8118287,13.6690257 C21.4885875,13.6690257 21.1653464,13.6674679 20.8421053,13.6659102 C20.8632519,13.5677704 20.9070556,13.3730487 20.9282022,13.2764667 L20.9282022,13.2764667 Z" id="Path" fill="#171314"></path>
                            <path d="M12.7309384,13.748417 C13.2170792,13.7427138 13.834401,13.72703 14.0766998,14.2075244 C14.2665262,14.7778441 14.1430619,15.5007243 13.5751259,15.8543225 C13.2139926,16.106689 12.7417415,16.071044 12.3157895,16.078173 C12.4701199,15.303964 12.571978,14.522626 12.7309384,13.748417 L12.7309384,13.748417 Z M18.0368188,13.7441396 C18.3794324,13.7313074 18.9303921,13.6885335 18.9473684,14.1348086 C18.9411952,14.6352641 18.3192435,14.6965735 17.9071813,14.6908703 C17.9488505,14.3743429 17.9951496,14.0606671 18.0368188,13.7441396 L18.0368188,13.7441396 Z M17.8408192,15.0102493 C18.1571966,15.0416169 18.6186446,14.9503658 18.7837782,15.2768738 C18.9581716,15.5335177 18.8007545,15.8928191 18.5106133,16.0125862 C18.2359051,16.1109664 17.9334174,16.0867278 17.6448195,16.1052632 C17.7158115,15.7402586 17.7868035,15.3766797 17.8408192,15.0102493 L17.8408192,15.0102493 Z" id="Shape" fill="#FFFFFF"></path>
                        </g>
                    </g>
                </g>
            </g>
        </g>
    </g>
</svg>