<?xml version="1.0" encoding="UTF-8"?>
<svg width="31px" height="10px" viewBox="0 0 31 10" version="1.1" xmlns="http://www.w3.org/2000/svg" xmlns:xlink="http://www.w3.org/1999/xlink">
    <title>VISA1</title>
    <g id="Desktop---Prototype---V-10" stroke="none" stroke-width="1" fill="none" fill-rule="evenodd">
        <g id="Empty-cart-A" transform="translate(-1140.000000, -537.000000)" fill-rule="nonzero">
            <g id="Group-28" transform="translate(160.000000, 431.000000)">
                <g id="Group-76" transform="translate(977.000000, 101.000000)">
                    <g id="Group-71" transform="translate(0.000000, 0.000000)">
                        <g id="VISA1" transform="translate(3.000000, 5.000000)">
                            <path d="M13.389406,9.85573501 L10.8863947,9.85573501 L12.4519573,0.175472215 L14.9548316,0.175472215 L13.389406,9.85573501 Z M22.4630441,0.412127019 C21.9693403,0.216260608 21.1862852,0 20.21804,0 C17.746236,0 16.0056118,1.31809472 15.9949357,3.20257323 C15.9744046,4.59293731 17.2411716,5.3651793 18.1886121,5.82877087 C19.1569943,6.3024911 19.4861757,6.61168902 19.4861757,7.0339447 C19.4763208,7.68245278 18.7036682,7.98138516 17.9830276,7.98138516 C16.983712,7.98138516 16.4482617,7.82726526 15.6345469,7.46646592 L15.3049548,7.31179852 L14.9546948,9.48480701 C15.5417465,9.75225842 16.6233233,9.98959759 17.746236,10 C20.3725705,10 22.082398,8.70229948 22.1026554,6.69408705 C22.1126471,5.59211607 21.4437449,4.74774158 20.0016425,4.05776074 C19.1261976,3.61483712 18.590063,3.31617848 18.590063,2.86298932 C18.6003285,2.45099918 19.0435259,2.02901725 20.0317547,2.02901725 C20.8454695,2.0083493 21.4433342,2.20394197 21.8962497,2.3996715 L22.1226389,2.50246373 L22.4630441,0.412127019 L22.4630441,0.412127019 Z M25.7897618,6.42636189 C25.9958938,5.87024364 26.7890775,3.71790309 26.7890775,3.71790309 C26.7786751,3.73857104 26.9947988,3.1515193 27.1183958,2.79113058 L27.2933206,3.62523953 C27.2933206,3.62523953 27.7673145,5.94237613 27.8702436,6.42636189 L25.7897618,6.42636189 Z M28.8794142,0.175472215 L26.9433342,0.175472215 C26.3462907,0.175472215 25.8926909,0.350396934 25.6350944,0.978647687 L21.9171913,9.85559814 L24.5435259,9.85559814 C24.5435259,9.85559814 24.9759102,8.66082672 25.0688475,8.40350397 L28.2825075,8.40350397 C28.3543663,8.74336162 28.5811662,9.85559814 28.5811662,9.85559814 L30.8987134,9.85559814 L28.8794142,0.175472215 L28.8794142,0.175472215 Z M8.79578429,0.175472215 L6.34451136,6.77648508 L6.07664933,5.43772242 C5.62346017,3.89296469 4.20216261,2.21461812 2.61606898,1.38009855 L4.86134684,9.84546948 L7.50821243,9.84546948 L11.442513,0.175472215 L8.79578429,0.175472215 Z" id="Shape" fill="#00579F"></path>
                            <path d="M4.06830003,0.175472215 L0.0411990145,0.175472215 L8.78154078e-16,0.371064878 C3.14139064,1.17437722 5.22187243,3.11073091 6.07664933,5.43813304 L5.20120449,0.98918697 C5.05707638,0.370928004 4.61415275,0.195866411 4.06830003,0.175472215 Z" id="Path" fill="#FAA61A"></path>
                        </g>
                    </g>
                </g>
            </g>
        </g>
    </g>
</svg>