<?xml version="1.0" encoding="utf-8"?>
<!-- Generator: Adobe Illustrator 19.2.1, SVG Export Plug-In . SVG Version: 6.00 Build 0)  -->
<svg version="1.1" id="layer" xmlns="http://www.w3.org/2000/svg" xmlns:xlink="http://www.w3.org/1999/xlink" x="0px" y="0px"
	 viewBox="0 0 652 652" style="enable-background:new 0 0 652 652;" xml:space="preserve">
<style type="text/css">
	.st0{fill:#1D1D1B;}
</style>
<path class="st0" d="M164.8,236.7c0,16.4,11.6,29.7,28.5,29.7s28.5-13.3,28.5-29.7c0-16.2-11.6-29.7-28.5-29.7
	S164.8,220.5,164.8,236.7 M151.2,236.9c0-23.5,18.6-42.4,42.1-42.4c23.5,0,42.1,18.9,42.1,42.4c0.1,23.1-18.5,42-41.6,42.1
	c-0.2,0-0.3,0-0.5,0c-23.1,0.1-42-18.5-42.1-41.6C151.2,237.2,151.2,237,151.2,236.9 M300.2,235.9c0,15.7,9.2,30.5,26.3,30.5
	c17.5,0,26.7-14.1,26.7-30.3c0-16-10.1-29-26.9-29C310.4,207,300.2,220.9,300.2,235.9L300.2,235.9z M366.1,272.8
	c0,12.8,0,23.9-8.2,34.4c-7.5,9.5-19.1,14.1-31,14.1c-22.3,0-38.9-14.1-39.4-36.8h13.6c0.2,14.8,10.9,24.2,25.6,24.2
	c21.1,0,25.7-15.5,25.7-33.6v-9.5h-0.3c-6.5,8.4-17,13.3-27.8,13.3c-23.3,0-38.2-19.6-38.2-41.9c0-22.5,15-42.6,38.7-42.6
	c11.1,0,20.8,4.9,27.3,13.6h0.3v-11.4h13.6C366.1,196.6,366.1,272.8,366.1,272.8z M444.2,241.3c0,13.5,1.5,25,18.1,25
	s18.1-11.6,18.1-25v-44.6h13.6v46.2c0,21.3-8,36.1-31.7,36.1c-23.7,0-31.7-14.8-31.7-36.1v-46.2h13.6V241.3L444.2,241.3z M606.9,228
	c-1.9-11.6-11.6-21-23.5-21c-11.8,0-22.7,9.4-24.4,21H606.9L606.9,228z M558.3,239.6c0.2,14.8,10.7,26.8,26.3,26.8
	c11.6,0,19.1-7,24.4-16.5l11.6,6.7c-7.7,14.3-20.6,22.5-37,22.5c-23.9,0-39.2-18.2-39.2-41.2c0-23.7,13.8-43.3,38.9-43.3
	c25.7,0,39.4,21.3,38,45.1H558.3z M137.7,401.3c-0.9-5.7-5.6-10.4-11.4-10.4c-5.7,0-11,4.6-11.8,10.4H137.7L137.7,401.3z M114.2,407
	c0.1,7.3,5.2,13.3,12.7,13.3c5.6,0,9.2-3.5,11.8-8.2l5.6,3.3c-3.7,7.1-10,11.1-17.9,11.1c-11.5,0-19-9-19-20.4
	c0-11.7,6.7-21.4,18.8-21.4c12.4,0,19,10.5,18.4,22.4H114.2L114.2,407z M167.9,385.7h7.7l13.7,28.4l12.5-28.4h7.5l-28.6,61.9h-7.5
	l12.5-26L167.9,385.7z M262.7,401.3c-0.9-5.7-5.6-10.4-11.4-10.4c-5.7,0-11,4.6-11.8,10.4H262.7z M239.2,407
	c0.1,7.3,5.2,13.3,12.7,13.3c5.6,0,9.2-3.5,11.8-8.2l5.6,3.3c-3.7,7.1-10,11.1-17.9,11.1c-11.5,0-19-9-19-20.4
	c0-11.7,6.7-21.4,18.8-21.4c12.4,0,19,10.5,18.4,22.4H239.2z M312.3,412.6l12-29.9l12.1,29.9l11.5-26.8h7.5l-19.2,42.4l-11.9-29.5
	l-12,29.5l-19-42.4h7.5L312.3,412.6z M409.4,401.3c-0.9-5.7-5.6-10.4-11.4-10.4c-5.7,0-10.9,4.6-11.8,10.4H409.4z M385.9,407
	c0.1,7.3,5.2,13.3,12.7,13.3c5.6,0,9.2-3.5,11.8-8.2l5.6,3.3c-3.7,7.1-10,11.1-17.9,11.1c-11.5,0-19-9-19-20.4
	c0-11.7,6.7-21.4,18.8-21.4c12.4,0,19,10.5,18.4,22.4H385.9L385.9,407z M449.4,405.1c0,7.8,4.5,15.1,12.7,15.1c8.5,0,12.9-7,12.9-15
	c0-7.9-4.9-14.4-13-14.4C454.4,390.9,449.4,397.7,449.4,405.1z M481.3,425.4h-6.6v-5.5h-0.2c-3.4,4.4-7.9,6.6-13.4,6.6
	c-11.4,0-18.5-9.9-18.5-20.9c0-11.3,7-21,18.6-21c5.3,0,10.1,2.5,13.3,6.8h0.2v-5.7h6.6V425.4z M520.4,390h0.2
	c2.3-3.1,4.3-5.4,8.6-5.4c2.2,0,4,0.8,5.9,1.9l-3.1,6.2c-1.3-0.9-2.2-1.8-4-1.8c-7.3,0-7.6,9.5-7.6,14.7v19.8h-6.6v-39.7h6.6
	C520.4,385.7,520.4,390,520.4,390z M84.5,194.4l-23.9,53.9l-23.9-53.9H21.3l39.4,85.4l39.2-85.4H84.5z"/>
</svg>
